<svg width="24" height="24" viewBox="0 0 24 24" fill="none" xmlns="http://www.w3.org/2000/svg">
<path d="M17.6681 2.34375H6.32812C5.13465 2.34375 3.99006 2.81786 3.14614 3.66177C2.30223 4.50568 1.82813 5.65028 1.82812 6.84375V13.47C1.82813 14.6635 2.30223 15.8081 3.14614 16.652C3.99006 17.4959 5.13465 17.97 6.32812 17.97H9.13313L11.4169 21.345C11.4858 21.4455 11.5781 21.5278 11.6859 21.5846C11.7937 21.6415 11.9138 21.6712 12.0356 21.6712C12.1575 21.6712 12.2775 21.6415 12.3853 21.5846C12.4932 21.5278 12.5855 21.4455 12.6544 21.345L14.9381 17.97H17.6681C18.8616 17.97 20.0062 17.4959 20.8501 16.652C21.694 15.8081 22.1681 14.6635 22.1681 13.47V6.84375C22.1681 5.65028 21.694 4.50568 20.8501 3.66177C20.0062 2.81786 18.8616 2.34375 17.6681 2.34375ZM12.5644 15C12.5314 15.0363 12.4935 15.0678 12.4519 15.0938C12.4111 15.1226 12.367 15.1465 12.3206 15.165C12.2762 15.1844 12.2296 15.1982 12.1819 15.2062C12.1333 15.2118 12.0842 15.2118 12.0356 15.2062C11.9368 15.205 11.839 15.1859 11.7469 15.15C11.7017 15.1314 11.6589 15.1075 11.6194 15.0787C11.5777 15.0528 11.5399 15.0213 11.5069 14.985C11.366 14.845 11.2865 14.6548 11.2856 14.4562C11.2801 14.4077 11.2801 14.3586 11.2856 14.31C11.2937 14.2622 11.3075 14.2156 11.3269 14.1713C11.3446 14.1245 11.3686 14.0803 11.3981 14.04C11.463 13.9724 11.5391 13.9166 11.6231 13.875C11.6635 13.8476 11.7062 13.8238 11.7506 13.8038C11.7969 13.7861 11.8446 13.7723 11.8931 13.7625C12.0139 13.7388 12.1387 13.7453 12.2564 13.7813C12.3741 13.8172 12.4812 13.8816 12.5681 13.9688C12.6033 14.0028 12.6348 14.0405 12.6619 14.0812C12.6888 14.1226 12.7114 14.1666 12.7294 14.2125C12.7483 14.2574 12.7633 14.3038 12.7744 14.3512C12.7781 14.3999 12.7781 14.4488 12.7744 14.4975C12.7698 14.6854 12.6949 14.8647 12.5644 15ZM13.1231 11.475L12.9431 11.6363C12.8401 11.8193 12.7871 12.0262 12.7894 12.2362C12.7894 12.4352 12.7104 12.6259 12.5697 12.7666C12.4291 12.9072 12.2383 12.9862 12.0394 12.9862C11.8405 12.9862 11.6497 12.9072 11.509 12.7666C11.3684 12.6259 11.2894 12.4352 11.2894 12.2362C11.2798 11.6314 11.4903 11.0436 11.8819 10.5825C11.9419 10.5225 12.0206 10.4513 12.1144 10.365C12.5794 9.94875 13.5394 9.07875 13.5394 8.115C13.5526 7.91459 13.5229 7.71365 13.4522 7.52565C13.3815 7.33765 13.2715 7.16693 13.1295 7.0249C12.9874 6.88288 12.8167 6.77284 12.6287 6.70215C12.4407 6.63145 12.2398 6.60174 12.0394 6.615C11.839 6.60174 11.638 6.63145 11.45 6.70215C11.262 6.77284 11.0913 6.88288 10.9493 7.0249C10.8073 7.16693 10.6972 7.33765 10.6265 7.52565C10.5558 7.71365 10.5261 7.91459 10.5394 8.115C10.5394 8.31391 10.4604 8.50468 10.3197 8.64533C10.1791 8.78598 9.98829 8.865 9.78938 8.865C9.59046 8.865 9.3997 8.78598 9.25904 8.64533C9.11839 8.50468 9.03938 8.31391 9.03938 8.115C9.02633 7.71751 9.09501 7.32157 9.24116 6.9517C9.38731 6.58182 9.60781 6.24588 9.88903 5.96466C10.1703 5.68344 10.5062 5.46293 10.8761 5.31678C11.2459 5.17063 11.6419 5.10196 12.0394 5.115C12.4369 5.10196 12.8328 5.17063 13.2027 5.31678C13.5726 5.46293 13.9085 5.68344 14.1897 5.96466C14.4709 6.24588 14.6914 6.58182 14.8376 6.9517C14.9837 7.32157 15.0524 7.71751 15.0394 8.115C15.0356 9.75 13.7419 10.9125 13.1231 11.475Z" fill="#FEAD55"/>
</svg>
