<svg xmlns="http://www.w3.org/2000/svg" width="22" height="22" viewBox="0 0 22 22" fill="none">
  <path d="M20.1999 7.00988C20.019 6.82764 19.8038 6.68305 19.5668 6.58445C19.3297 6.48585 19.0755 6.4352 18.8187 6.43543H15.5615V3.17821C15.5615 2.65957 15.3555 2.16216 14.9888 1.79543C14.622 1.42869 14.1246 1.22266 13.606 1.22266H3.17431C2.65566 1.22266 2.15826 1.42869 1.79152 1.79543C1.42478 2.16216 1.21875 2.65957 1.21875 3.17821V13.6099C1.22097 14.1279 1.42738 14.6242 1.79319 14.991C1.97404 15.1732 2.18921 15.3178 2.42627 15.4164C2.66332 15.515 2.91756 15.5657 3.17431 15.5654H6.43153V18.8227C6.43153 19.3413 6.63756 19.8387 7.0043 20.2054C7.37103 20.5722 7.86844 20.7782 8.38708 20.7782H18.8187C19.3368 20.776 19.8331 20.5696 20.1999 20.2038C20.3821 20.0229 20.5267 19.8077 20.6253 19.5707C20.7239 19.3336 20.7745 19.0794 20.7743 18.8227V8.3971C20.7753 8.13933 20.7251 7.88393 20.6265 7.64577C20.5278 7.40761 20.3828 7.19145 20.1999 7.00988ZM3.17431 14.2638C3.08791 14.2615 3.00285 14.2419 2.92414 14.2062C2.84542 14.1705 2.77464 14.1194 2.71597 14.056C2.59564 13.9336 2.52769 13.7693 2.52653 13.5977V3.17821C2.52769 3.00662 2.59564 2.84222 2.71597 2.71988C2.77618 2.65974 2.84765 2.61206 2.92629 2.57956C3.00493 2.54705 3.08921 2.53036 3.17431 2.53043H13.606C13.7783 2.53043 13.9437 2.59848 14.0662 2.71979C14.1886 2.8411 14.2582 3.00585 14.2599 3.17821V6.43543H8.39319C7.87455 6.43543 7.37715 6.64147 7.01041 7.0082C6.64367 7.37494 6.43764 7.87234 6.43764 8.39099V14.2577L3.17431 14.2638ZM19.4726 18.8227C19.4727 18.9078 19.456 18.992 19.4235 19.0707C19.391 19.1493 19.3433 19.2208 19.2832 19.281C19.1612 19.4019 18.9966 19.4699 18.8249 19.4704H8.39319C8.30732 19.4704 8.22229 19.4535 8.14296 19.4207C8.06363 19.3878 7.99154 19.3396 7.93082 19.2789C7.87011 19.2182 7.82194 19.1461 7.78908 19.0668C7.75622 18.9874 7.73931 18.9024 7.73931 18.8165V8.3971C7.74529 8.2259 7.81761 8.06374 7.94097 7.94488C8.00118 7.88474 8.07265 7.83706 8.15129 7.80456C8.22993 7.77205 8.31421 7.75536 8.3993 7.75543H18.8187C18.9922 7.75543 19.1585 7.82433 19.2811 7.94695C19.4037 8.06958 19.4726 8.2359 19.4726 8.40932V18.8227Z" fill="#2A2A2B"/>
  <path d="M14.2572 11H12.9556V12.9556H11V14.2572H12.9556V16.2189H14.2572V14.2572H16.2189V12.9556H14.2572V11Z" fill="#2A2A2B"/>
</svg>