<svg width="22" height="20" viewBox="0 0 22 20" fill="none" xmlns="http://www.w3.org/2000/svg">
<path d="M19.6498 2.86719H7.71734C7.51843 2.86719 7.32767 2.94621 7.18701 3.08686C7.04636 3.22751 6.96734 3.41828 6.96734 3.61719C6.96734 3.8161 7.04636 4.00687 7.18701 4.14752C7.32767 4.28817 7.51843 4.36719 7.71734 4.36719H19.6498C20.0773 4.36719 20.3998 4.83969 20.3998 5.40219V14.7247L17.8648 11.7247C17.6823 11.5038 17.4531 11.3261 17.1938 11.2042C16.9345 11.0823 16.6514 11.0193 16.3648 11.0197C16.0789 11.0184 15.7962 11.0802 15.5369 11.2008C15.2776 11.3214 15.0481 11.4977 14.8648 11.7172L12.2023 14.9197L9.50234 11.7397C9.31839 11.521 9.08878 11.3452 8.82964 11.2247C8.57051 11.1042 8.28813 11.0419 8.00234 11.0422C7.71538 11.0437 7.43226 11.1084 7.17305 11.2315C6.91383 11.3546 6.68486 11.5332 6.50234 11.7547L3.83984 15.0022V8.61969C3.83984 8.42078 3.76083 8.23001 3.62017 8.08936C3.47952 7.94871 3.28876 7.86969 3.08984 7.86969C2.89093 7.86969 2.70017 7.94871 2.55951 8.08936C2.41886 8.23001 2.33984 8.42078 2.33984 8.61969V16.8697C2.33984 16.9747 2.33984 17.0797 2.33984 17.1997C2.36063 17.3446 2.39324 17.4876 2.43734 17.6272C2.43734 17.6647 2.43734 17.7097 2.43734 17.7472L2.47484 17.8372C2.52644 17.9722 2.58916 18.1026 2.66234 18.2272L2.75234 18.3697C2.82006 18.4702 2.89528 18.5655 2.97734 18.6547L3.08984 18.7672C3.20831 18.8792 3.33915 18.9773 3.47984 19.0597H3.50234C3.82865 19.2626 4.20562 19.3691 4.58984 19.3672H19.5898C19.9174 19.3638 20.24 19.2866 20.5334 19.1411C20.8269 18.9957 21.0838 18.7858 21.2848 18.5272C21.4868 18.2771 21.6418 17.9925 21.7423 17.6872C21.8027 17.4819 21.8404 17.2707 21.8548 17.0572C21.8548 16.9822 21.8548 16.9072 21.8548 16.8247V5.40219C21.8864 4.77653 21.6743 4.16298 21.2632 3.69032C20.8521 3.21766 20.2738 2.92264 19.6498 2.86719Z" fill="black"/>
<path d="M11.457 9.30225C12.2855 9.30225 12.957 8.63067 12.957 7.80225C12.957 6.97382 12.2855 6.30225 11.457 6.30225C10.6286 6.30225 9.95703 6.97382 9.95703 7.80225C9.95703 8.63067 10.6286 9.30225 11.457 9.30225Z" fill="black"/>
<path d="M3.05859 6.63232C3.25751 6.63232 3.44827 6.55331 3.58892 6.41265C3.72958 6.272 3.80859 6.08124 3.80859 5.88232V4.38232H5.30859C5.50751 4.38232 5.69827 4.30331 5.83892 4.16265C5.97958 4.022 6.05859 3.83124 6.05859 3.63232C6.05859 3.43341 5.97958 3.24265 5.83892 3.10199C5.69827 2.96134 5.50751 2.88232 5.30859 2.88232H3.80859V1.38232C3.80859 1.18341 3.72958 0.992646 3.58892 0.851994C3.44827 0.711342 3.25751 0.632324 3.05859 0.632324C2.85968 0.632324 2.66892 0.711342 2.52826 0.851994C2.38761 0.992646 2.30859 1.18341 2.30859 1.38232V2.88232H0.808594C0.609681 2.88232 0.418916 2.96134 0.278264 3.10199C0.137611 3.24265 0.0585938 3.43341 0.0585938 3.63232C0.0585938 3.83124 0.137611 4.022 0.278264 4.16265C0.418916 4.30331 0.609681 4.38232 0.808594 4.38232H2.30859V5.88232C2.30859 6.08124 2.38761 6.272 2.52826 6.41265C2.66892 6.55331 2.85968 6.63232 3.05859 6.63232Z" fill="black"/>
</svg>
