<svg width="40" height="40" viewBox="0 0 40 40" fill="none" xmlns="http://www.w3.org/2000/svg">
<circle cx="19.697" cy="20.0003" r="19.4045" fill="#090B21"/>
<path fill-rule="evenodd" clip-rule="evenodd" d="M19.7078 11.5322C18.7725 11.5322 18.0143 12.2904 18.0143 13.2257V18.3061H12.9337C11.9984 18.3061 11.2402 19.0643 11.2402 19.9996C11.2402 20.9349 11.9984 21.6931 12.9337 21.6931H18.0143V26.7736C18.0143 27.7089 18.7725 28.4671 19.7078 28.4671C20.6431 28.4671 21.4013 27.7089 21.4013 26.7736V21.6931H26.4816C27.4169 21.6931 28.1751 20.9349 28.1751 19.9996C28.1751 19.0643 27.4169 18.3061 26.4816 18.3061H21.4013V13.2257C21.4013 12.2904 20.6431 11.5322 19.7078 11.5322Z" fill="black"/>
<mask id="mask0_1902_11480" style="mask-type:alpha" maskUnits="userSpaceOnUse" x="11" y="11" width="18" height="18">
<path fill-rule="evenodd" clip-rule="evenodd" d="M19.6968 11.5322C18.7615 11.5322 18.0033 12.2904 18.0033 13.2257V18.3061H12.9232C11.9879 18.3061 11.2297 19.0643 11.2297 19.9996C11.2297 20.9349 11.9879 21.6931 12.9232 21.6931H18.0033V26.7736C18.0033 27.7089 18.7615 28.4671 19.6968 28.4671C20.6321 28.4671 21.3903 27.7089 21.3903 26.7736V21.6931H26.4711C27.4064 21.6931 28.1646 20.9349 28.1646 19.9996C28.1646 19.0643 27.4064 18.3061 26.4711 18.3061H21.3903V13.2257C21.3903 12.2904 20.6321 11.5322 19.6968 11.5322Z" fill="#C4C4C4"/>
</mask>
<g mask="url(#mask0_1902_11480)">
<rect x="8.0542" y="8.35742" width="23.2855" height="23.2855" fill="white"/>
</g>
</svg>
