<svg width="18" height="19" viewBox="0 0 18 19" fill="currentColor" xmlns="http://www.w3.org/2000/svg">
<path d="M2.84615 5.19231C3.86576 5.19231 4.69231 4.36576 4.69231 3.34615C4.69231 2.32655 3.86576 1.5 2.84615 1.5C1.82655 1.5 1 2.32655 1 3.34615C1 4.36576 1.82655 5.19231 2.84615 5.19231Z" fill="currentColor" stroke="#2A2A2B" stroke-width="1.23077" stroke-linecap="round" stroke-linejoin="round"/>
<path d="M4.69287 3.34619H17.0006" stroke="#2A2A2B" stroke-width="1.23077" stroke-linecap="round" stroke-linejoin="round"/>
<path d="M8.99996 11.3461C10.0196 11.3461 10.8461 10.5196 10.8461 9.49996C10.8461 8.48036 10.0196 7.65381 8.99996 7.65381C7.98036 7.65381 7.15381 8.48036 7.15381 9.49996C7.15381 10.5196 7.98036 11.3461 8.99996 11.3461Z" fill="currentColor" stroke="#2A2A2B" stroke-width="1.23077" stroke-linecap="round" stroke-linejoin="round"/>
<path d="M1 9.5H7.15385M10.8462 9.5H17" stroke="#2A2A2B" stroke-width="1.23077" stroke-linecap="round" stroke-linejoin="round"/>
<path d="M15.1533 17.5C16.1729 17.5 16.9994 16.6735 16.9994 15.6539C16.9994 14.6343 16.1729 13.8077 15.1533 13.8077C14.1337 13.8077 13.3071 14.6343 13.3071 15.6539C13.3071 16.6735 14.1337 17.5 15.1533 17.5Z" fill="currentColor" stroke="#2A2A2B" stroke-width="1.23077" stroke-linecap="round" stroke-linejoin="round"/>
<path d="M13.3077 15.6538H1" stroke="#2A2A2B" stroke-width="1.23077" stroke-linecap="round" stroke-linejoin="round"/>
</svg>
