
  <svg
    width="36"
    height="46"
    viewBox="0 0 36 46"
    fill="none"
    xmlns="http://www.w3.org/2000/svg"
  >
    <path
      d="M25.4137 12.0503C25.4137 12.4628 25.3856 12.8753 25.334 13.2831C25.3574 13.1191 25.3809 12.9503 25.3996 12.7862C25.2871 13.6019 25.0715 14.3941 24.7574 15.1534C24.8184 15.0034 24.884 14.8534 24.9449 14.7034C24.6309 15.4441 24.2278 16.1378 23.7356 16.7753L24.0309 16.3956C23.5434 17.0237 22.9762 17.5909 22.3481 18.0784L22.7278 17.7831C22.0903 18.2706 21.3965 18.6784 20.6559 18.9925C20.8059 18.9316 20.9559 18.8659 21.1059 18.805C20.3465 19.1191 19.5543 19.3347 18.7387 19.4472C18.9028 19.4237 19.0715 19.4003 19.2356 19.3816C18.4153 19.4894 17.5903 19.4894 16.7699 19.3816C16.934 19.405 17.1028 19.4284 17.2668 19.4472C16.4512 19.3347 15.659 19.1191 14.8996 18.805C15.0496 18.8659 15.1996 18.9316 15.3496 18.9925C14.609 18.6784 13.9153 18.2753 13.2778 17.7831L13.6574 18.0784C13.0293 17.5909 12.4621 17.0237 11.9746 16.3956L12.2699 16.7753C11.7824 16.1378 11.3746 15.4441 11.0606 14.7034C11.1215 14.8534 11.1871 15.0034 11.2481 15.1534C10.934 14.3941 10.7184 13.6019 10.6059 12.7862C10.6293 12.9503 10.6528 13.1191 10.6715 13.2831C10.5637 12.4628 10.5637 11.6378 10.6715 10.8175C10.6481 10.9816 10.6246 11.1503 10.6059 11.3144C10.7184 10.4987 10.934 9.70656 11.2481 8.94718C11.1871 9.09718 11.1215 9.24718 11.0606 9.39718C11.3746 8.65656 11.7778 7.96281 12.2699 7.32531L11.9746 7.705C12.4621 7.07687 13.0293 6.50968 13.6574 6.02218L13.2778 6.3175C13.9153 5.83 14.609 5.42218 15.3496 5.10812C15.1996 5.16906 15.0496 5.23468 14.8996 5.29562C15.659 4.98156 16.4512 4.76593 17.2668 4.65343C17.1028 4.67687 16.934 4.70031 16.7699 4.71906C17.5903 4.61125 18.4153 4.61125 19.2356 4.71906C19.0715 4.69562 18.9028 4.67218 18.7387 4.65343C19.5543 4.76593 20.3465 4.98156 21.1059 5.29562C20.9559 5.23468 20.8059 5.16906 20.6559 5.10812C21.3965 5.42218 22.0903 5.82531 22.7278 6.3175L22.3481 6.02218C22.9762 6.50968 23.5434 7.07687 24.0309 7.705L23.7356 7.32531C24.2231 7.96281 24.6309 8.65656 24.9449 9.39718C24.884 9.24718 24.8184 9.09718 24.7574 8.94718C25.0715 9.70656 25.2871 10.4987 25.3996 11.3144C25.3762 11.1503 25.3528 10.9816 25.334 10.8175C25.3856 11.2253 25.409 11.6378 25.4137 12.0503C25.4184 13.03 26.2715 13.9722 27.2887 13.9253C28.3012 13.8784 29.1684 13.1003 29.1637 12.0503C29.1543 9.80499 28.4793 7.50812 27.1574 5.68C26.8012 5.18781 26.4215 4.705 25.9996 4.26906C25.5731 3.82843 25.1043 3.44875 24.6168 3.07843C23.7309 2.40343 22.7418 1.90656 21.6918 1.52218C17.459 -0.0293797 12.3543 1.35343 9.49026 4.84093C9.09651 5.31906 8.72151 5.81593 8.40276 6.35031C8.08401 6.88 7.83557 7.4425 7.60588 8.01437C7.17463 9.07375 6.95432 10.1987 6.86526 11.3378C6.69182 13.5691 7.27307 15.8987 8.43557 17.8112C9.55588 19.6581 11.2481 21.2425 13.2262 22.1378C13.8074 22.4003 14.4028 22.6441 15.0215 22.8175C15.6356 22.9862 16.259 23.08 16.8918 23.155C18.0449 23.2909 19.2215 23.1972 20.3606 22.9675C24.6871 22.0862 28.3106 18.3597 28.9809 13.9862C29.0793 13.3487 29.1543 12.7112 29.1543 12.0644C29.159 11.0847 28.2871 10.1425 27.2793 10.1894C26.2668 10.2222 25.4137 11.0003 25.4137 12.0503ZM31.634 41.3612H7.58245C6.51838 41.3612 5.45432 41.3706 4.39026 41.3612C4.27307 41.3612 4.15588 41.3519 4.04338 41.3378C4.20745 41.3612 4.3762 41.3847 4.54026 41.4034C4.35276 41.3753 4.17463 41.3237 4.0012 41.2534C4.1512 41.3144 4.3012 41.38 4.4512 41.4409C4.2637 41.3612 4.09026 41.2581 3.9262 41.1316L4.30588 41.4269C4.16526 41.3097 4.03401 41.1831 3.92151 41.0425L4.21682 41.4222C4.09026 41.2581 3.99182 41.0847 3.90745 40.8972C3.96838 41.0472 4.03401 41.1972 4.09495 41.3472C4.02463 41.1737 3.97776 40.9909 3.94495 40.8081C3.96838 40.9722 3.99182 41.1409 4.01057 41.305C3.93557 40.7378 3.98713 40.1378 3.98713 39.5659V37.5597C3.98713 37.0581 4.01526 36.5612 4.08088 36.0644C4.05745 36.2284 4.03401 36.3972 4.01526 36.5612C4.14651 35.6003 4.39963 34.6581 4.77932 33.7628C4.71838 33.9128 4.65276 34.0628 4.59182 34.2128C4.95745 33.3597 5.4262 32.5581 5.99338 31.8222L5.69807 32.2019C6.26526 31.4753 6.91682 30.8191 7.64807 30.2519L7.26838 30.5472C8.00432 29.98 8.80588 29.5112 9.65901 29.1456C9.50901 29.2066 9.35901 29.2722 9.20901 29.3331C10.1043 28.9581 11.0418 28.7003 12.0074 28.5691C11.8434 28.5925 11.6746 28.6159 11.5106 28.6347C12.2043 28.5456 12.8934 28.5409 13.5918 28.5409H22.1699C22.9434 28.5409 23.7121 28.5362 24.4856 28.6347C24.3215 28.6112 24.1528 28.5878 23.9887 28.5691C24.9496 28.7003 25.8918 28.9534 26.7871 29.3331C26.6371 29.2722 26.4871 29.2066 26.3371 29.1456C27.1903 29.5112 27.9918 29.98 28.7278 30.5472L28.3481 30.2519C29.0746 30.8191 29.7309 31.4706 30.2981 32.2019L30.0028 31.8222C30.5699 32.5581 31.0387 33.3597 31.4043 34.2128C31.3434 34.0628 31.2778 33.9128 31.2168 33.7628C31.5918 34.6581 31.8496 35.5956 31.9809 36.5612C31.9574 36.3972 31.934 36.2284 31.9153 36.0644C32.0043 36.7722 32.009 37.4753 32.009 38.1878V40.5081C32.009 40.7753 32.0184 41.0425 31.9856 41.305C32.009 41.1409 32.0324 40.9722 32.0512 40.8081C32.0231 40.9956 31.9715 41.1737 31.9012 41.3472C31.9621 41.1972 32.0278 41.0472 32.0887 40.8972C32.009 41.0847 31.9059 41.2581 31.7793 41.4222L32.0746 41.0425C31.9574 41.1831 31.8309 41.3144 31.6903 41.4269L32.0699 41.1316C31.9059 41.2581 31.7324 41.3566 31.5449 41.4409C31.6949 41.38 31.8449 41.3144 31.9949 41.2534C31.8215 41.3237 31.6387 41.3706 31.4559 41.4034C31.6199 41.38 31.7887 41.3566 31.9528 41.3378C31.8496 41.3519 31.7418 41.3566 31.634 41.3612C31.1512 41.3659 30.6543 41.5675 30.3074 41.9097C29.984 42.2331 29.7356 42.7675 29.759 43.2362C29.8059 44.2394 30.584 45.1253 31.634 45.1112C33.4574 45.0831 35.0606 43.8925 35.5949 42.1441C35.8059 41.4503 35.759 40.705 35.759 39.9925C35.759 38.3612 35.8106 36.7441 35.5293 35.1269C35.1168 32.7597 33.9262 30.5331 32.2949 28.7847C30.6637 27.0362 28.4699 25.7519 26.1496 25.18C24.8184 24.8519 23.4778 24.8003 22.1184 24.8003H13.8028C12.4106 24.8003 11.0278 24.8659 9.67307 25.2269C7.37151 25.8362 5.20588 27.1347 3.60745 28.8972C1.99495 30.6737 0.827758 32.905 0.448071 35.2862C0.194946 36.8847 0.246508 38.4878 0.246508 40.1003C0.246508 40.8409 0.204321 41.6144 0.471508 42.3222C0.818383 43.2316 1.37151 43.9487 2.18245 44.4878C2.81526 44.905 3.61682 45.1066 4.36682 45.1159C4.73245 45.1206 5.09807 45.1159 5.4637 45.1159H31.6387C32.6184 45.1159 33.5606 44.2534 33.5137 43.2409C33.4668 42.2191 32.6887 41.3612 31.634 41.3612Z"
      fill="#5D5D5D"
    />
  </svg>

