<svg width="14" height="10" viewBox="0 0 14 10" fill="none" xmlns="http://www.w3.org/2000/svg">
<path d="M6 7.5C5.86739 7.5 5.74021 7.55268 5.64645 7.64645C5.55268 7.74021 5.5 7.86739 5.5 8V9C5.5 9.13261 5.55268 9.25979 5.64645 9.35355C5.74021 9.44732 5.86739 9.5 6 9.5C6.13261 9.5 6.25979 9.44732 6.35355 9.35355C6.44732 9.25979 6.5 9.13261 6.5 9V8C6.5 7.86739 6.44732 7.74021 6.35355 7.64645C6.25979 7.55268 6.13261 7.5 6 7.5ZM4 7.5C3.86739 7.5 3.74021 7.55268 3.64645 7.64645C3.55268 7.74021 3.5 7.86739 3.5 8V9C3.5 9.13261 3.55268 9.25979 3.64645 9.35355C3.74021 9.44732 3.86739 9.5 4 9.5C4.13261 9.5 4.25979 9.44732 4.35355 9.35355C4.44732 9.25979 4.5 9.13261 4.5 9V8C4.5 7.86739 4.44732 7.74021 4.35355 7.64645C4.25979 7.55268 4.13261 7.5 4 7.5ZM8 7.5C7.86739 7.5 7.74021 7.55268 7.64645 7.64645C7.55268 7.74021 7.5 7.86739 7.5 8V9C7.5 9.13261 7.55268 9.25979 7.64645 9.35355C7.74021 9.44732 7.86739 9.5 8 9.5C8.13261 9.5 8.25979 9.44732 8.35355 9.35355C8.44732 9.25979 8.5 9.13261 8.5 9V8C8.5 7.86739 8.44732 7.74021 8.35355 7.64645C8.25979 7.55268 8.13261 7.5 8 7.5ZM10 7.5C9.86739 7.5 9.74021 7.55268 9.64645 7.64645C9.55268 7.74021 9.5 7.86739 9.5 8V9C9.5 9.13261 9.55268 9.25979 9.64645 9.35355C9.74021 9.44732 9.86739 9.5 10 9.5C10.1326 9.5 10.2598 9.44732 10.3536 9.35355C10.4473 9.25979 10.5 9.13261 10.5 9V8C10.5 7.86739 10.4473 7.74021 10.3536 7.64645C10.2598 7.55268 10.1326 7.5 10 7.5ZM13 0.5H1C0.734784 0.5 0.48043 0.605357 0.292893 0.792893C0.105357 0.98043 0 1.23478 0 1.5V6C0 6.26522 0.105357 6.51957 0.292893 6.70711C0.48043 6.89464 0.734784 7 1 7H13C13.2652 7 13.5196 6.89464 13.7071 6.70711C13.8946 6.51957 14 6.26522 14 6V1.5C14 1.23478 13.8946 0.98043 13.7071 0.792893C13.5196 0.605357 13.2652 0.5 13 0.5ZM11.5 5.5H2.5C2.36739 5.5 2.24021 5.44732 2.14645 5.35355C2.05268 5.25979 2 5.13261 2 5C2 4.86739 2.05268 4.74021 2.14645 4.64645C2.24021 4.55268 2.36739 4.5 2.5 4.5H11.5C11.6326 4.5 11.7598 4.55268 11.8536 4.64645C11.9473 4.74021 12 4.86739 12 5C12 5.13261 11.9473 5.25979 11.8536 5.35355C11.7598 5.44732 11.6326 5.5 11.5 5.5Z" fill="black"/>
</svg>