<svg xmlns="http://www.w3.org/2000/svg" width="16" height="16" viewBox="0 0 16 16" fill="none">
  <path d="M14.0026 13.3333H13.3359V1.99992C13.3359 1.59992 13.0693 1.33325 12.6693 1.33325H3.33594C2.93594 1.33325 2.66927 1.59992 2.66927 1.99992V13.3333H2.0026C1.6026 13.3333 1.33594 13.5999 1.33594 13.9999C1.33594 14.3999 1.6026 14.6666 2.0026 14.6666H14.0026C14.4026 14.6666 14.6693 14.3999 14.6693 13.9999C14.6693 13.5999 14.4026 13.3333 14.0026 13.3333ZM6.0026 3.99992H6.66927C7.06927 3.99992 7.33594 4.26659 7.33594 4.66658C7.33594 5.06659 7.06927 5.33325 6.66927 5.33325H6.0026C5.6026 5.33325 5.33594 5.06659 5.33594 4.66658C5.33594 4.26659 5.6026 3.99992 6.0026 3.99992ZM5.33594 7.33325C5.33594 6.93325 5.6026 6.66658 6.0026 6.66658H6.66927C7.06927 6.66658 7.33594 6.93325 7.33594 7.33325C7.33594 7.73325 7.06927 7.99992 6.66927 7.99992H6.0026C5.6026 7.99992 5.33594 7.73325 5.33594 7.33325ZM10.0026 13.3333H6.0026V9.99992C6.0026 9.59992 6.26927 9.33325 6.66927 9.33325H9.33594C9.73594 9.33325 10.0026 9.59992 10.0026 9.99992V13.3333ZM10.0026 7.99992H9.33594C8.93594 7.99992 8.66927 7.73325 8.66927 7.33325C8.66927 6.93325 8.93594 6.66658 9.33594 6.66658H10.0026C10.4026 6.66658 10.6693 6.93325 10.6693 7.33325C10.6693 7.73325 10.4026 7.99992 10.0026 7.99992ZM10.0026 5.33325H9.33594C8.93594 5.33325 8.66927 5.06659 8.66927 4.66658C8.66927 4.26659 8.93594 3.99992 9.33594 3.99992H10.0026C10.4026 3.99992 10.6693 4.26659 10.6693 4.66658C10.6693 5.06659 10.4026 5.33325 10.0026 5.33325Z" fill="#181A20"/>
</svg>