<svg xmlns="http://www.w3.org/2000/svg" width="16" height="16" viewBox="0 0 16 16" fill="none">
  <g clip-path="url(#clip0_8442_23658)">
    <path d="M13.7031 2.34687C12.1938 0.8375 10.1875 0 8.05313 0C5.91875 0 3.9125 0.8375 2.40313 2.34687C0.89375 3.85625 0.0625 5.86875 0.0625 8.00313C0.0625 10.1375 0.89375 12.1469 2.40313 13.6562C3.9125 15.1656 5.91875 16 8.05313 16C10.1875 16 12.1938 15.1656 13.7031 13.6562C15.2125 12.1469 16.0438 10.1375 16.0438 8C16.0438 5.86562 15.2125 3.85625 13.7031 2.34687ZM12.8188 12.7719C11.5469 14.0438 9.85313 14.7469 8.05 14.7469C4.33438 14.7437 1.3125 11.7188 1.3125 8.00313C1.3125 6.20312 2.0125 4.50938 3.2875 3.2375C4.5625 1.96562 6.25312 1.2625 8.05625 1.2625C11.775 1.2625 14.7969 4.2875 14.7969 8.00313C14.7937 9.80313 14.0938 11.4969 12.8188 12.7719Z" fill="#FD9D34"/>
    <path d="M8.37631 7.375C7.33881 6.97188 7.00444 6.6625 7.00444 6.09688C7.00444 5.6625 7.32631 5.15312 8.23569 5.15312C8.57006 5.15312 8.89506 5.20938 9.20444 5.32188C9.35444 5.375 9.51694 5.36875 9.66069 5.3C9.80444 5.23125 9.91069 5.10938 9.96069 4.95937C10.0638 4.65625 9.90131 4.325 9.60131 4.21875C9.27319 4.10312 8.90444 4.0375 8.50131 4.01875V3.46875C8.50131 3.125 8.22006 2.84375 7.87631 2.84375C7.53256 2.84375 7.25131 3.125 7.25131 3.46875V4.16563C6.93256 4.26875 6.65131 4.425 6.41069 4.63125C5.94506 5.03125 5.68881 5.59062 5.68881 6.20937C5.68881 6.75625 5.88256 7.23125 6.26694 7.61875C6.60756 7.9625 7.09819 8.24375 7.77006 8.48125C8.72319 8.84687 9.06069 9.19375 9.06069 9.8C9.06069 10.4781 8.52944 10.9 7.67319 10.9C7.15444 10.9 6.71069 10.7594 6.43256 10.6406C6.27944 10.575 6.10444 10.5781 5.95131 10.65C5.80131 10.7187 5.68881 10.85 5.64194 11.0094L5.63881 11.0156C5.55131 11.3031 5.69506 11.6094 5.97319 11.725C6.35444 11.8844 6.82319 11.9906 7.28256 12.025V12.5625C7.28256 12.9062 7.56381 13.1875 7.90756 13.1875C8.25131 13.1875 8.53256 12.9062 8.53256 12.5625V11.9375C8.98881 11.8281 9.38256 11.6312 9.68569 11.3562C10.1388 10.9469 10.3888 10.3656 10.3888 9.725C10.3888 8.62188 9.78569 7.91875 8.37631 7.375Z" fill="#FD9D34"/>
  </g>
  <defs>
    <clipPath id="clip0_8442_23658">
      <rect width="16" height="16" fill="white"/>
    </clipPath>
  </defs>
</svg>