<svg xmlns="http://www.w3.org/2000/svg" width="24" height="25" viewBox="0 0 24 25" fill="none">
  <path d="M19 21.025V5.00625C19 3.90039 18.1046 3.00391 17 3.00391H7C5.89543 3.00391 5 3.90039 5 5.00625V21.025M19 21.025L21 21.025M19 21.025H14M5 21.025L3 21.025M5 21.025H10M9 7.00857H10M9 11.0133H10M14 7.00857H15M14 11.0133H15M10 21.025V16.0191C10 15.4662 10.4477 15.018 11 15.018H13C13.5523 15.018 14 15.4662 14 16.0191V21.025M10 21.025H14" stroke="#9D9D9D" stroke-width="2" stroke-linecap="round" stroke-linejoin="round"/>
</svg>