<svg width="15" height="15" viewBox="0 0 15 15" fill="none" xmlns="http://www.w3.org/2000/svg">
<path d="M10.8202 0.388672H4.79473C2.17747 0.388672 0.617188 1.89562 0.617188 4.42339V10.2359C0.617188 12.7706 2.17747 14.2776 4.79473 14.2776H10.813C13.4302 14.2776 14.9905 12.7706 14.9905 10.2428V4.42339C14.9977 1.89562 13.4374 0.388672 10.8202 0.388672ZM6.08179 10.2498C6.08179 10.9373 5.49938 11.4998 4.78754 11.4998C4.07571 11.4998 3.49329 10.9373 3.49329 10.2498C3.49329 9.56228 4.07571 8.99978 4.78754 8.99978H5.36276C5.75823 8.99978 6.08179 9.31228 6.08179 9.69423V10.2498ZM6.08179 4.97201C6.08179 5.35395 5.75823 5.66645 5.36276 5.66645H4.78754C4.07571 5.66645 3.49329 5.10395 3.49329 4.41645C3.49329 3.72895 4.07571 3.16645 4.78754 3.16645C5.49938 3.16645 6.08179 3.72895 6.08179 4.41645V4.97201ZM9.35336 8.20117C9.35336 8.54145 9.06575 8.82617 8.70624 8.82617H6.90148C6.54916 8.82617 6.25436 8.54839 6.25436 8.20117V6.45812C6.25436 6.11784 6.54197 5.83312 6.90148 5.83312H8.70624C9.05856 5.83312 9.35336 6.11089 9.35336 6.45812V8.20117ZM10.8274 11.4998C10.1155 11.4998 9.53312 10.9373 9.53312 10.2498V9.69423C9.53312 9.31228 9.85668 8.99978 10.2521 8.99978H10.8274C11.5392 8.99978 12.1216 9.56228 12.1216 10.2498C12.1216 10.9373 11.5392 11.4998 10.8274 11.4998ZM10.8274 5.66645H10.2521C9.85668 5.66645 9.53312 5.35395 9.53312 4.97201V4.41645C9.53312 3.72895 10.1155 3.16645 10.8274 3.16645C11.5392 3.16645 12.1216 3.72895 12.1216 4.41645C12.1216 5.10395 11.5392 5.66645 10.8274 5.66645Z" fill="#FE8501"/>
</svg>
