<svg width="22" height="22" viewBox="0 0 22 22" fill="none" xmlns="http://www.w3.org/2000/svg">
<path d="M5.96094 10.625H5.21094V7.625H4.46094V7.25H5.21094V6.5H4.08594C3.98648 6.5 3.8911 6.53951 3.82077 6.60983C3.75045 6.68016 3.71094 6.77554 3.71094 6.875V7.625H2.96094V10.625H2.21094V11.375H5.96094V10.625ZM20.9609 12.125H0.710938C0.504313 12.125 0.335938 12.293 0.335938 12.5V13.25C0.335938 13.457 0.504313 13.625 0.710938 13.625H20.9609C21.1676 13.625 21.3359 13.457 21.3359 13.25V12.5C21.3359 12.293 21.1676 12.125 20.9609 12.125ZM2.64181 19.5511C2.70821 19.7878 2.85006 19.9964 3.0458 20.1451C3.24155 20.2938 3.48049 20.3745 3.72631 20.375H4.09494L4.09119 21.5H4.68069L4.96194 20.375H16.7099L16.9912 21.5H17.5807L17.5769 20.375H17.9456C18.1914 20.3745 18.4303 20.2938 18.626 20.1451C18.8217 19.9964 18.9634 19.7878 19.0297 19.5511L20.4678 14.375H1.20406L2.64181 19.5511ZM20.9609 0.125C20.6846 0.125 20.4453 0.276875 20.3152 0.5H12.2317C12.1016 0.276875 11.8623 0.125 11.5859 0.125C11.1723 0.125 10.8359 0.461 10.8359 0.875C10.8359 1.289 11.1723 1.625 11.5859 1.625C11.8623 1.625 12.1016 1.47312 12.2317 1.25H13.4609V6.125H16.4609V1.25H17.2109V6.875H14.2109V7.625H19.0859V1.25H20.3152C20.4453 1.47312 20.6846 1.625 20.9609 1.625C21.3746 1.625 21.7109 1.289 21.7109 0.875C21.7109 0.461 21.3746 0.125 20.9609 0.125ZM7.83594 7.0625C7.83594 6.54537 8.25669 6.125 8.77344 6.125C9.29019 6.125 9.71094 6.54537 9.71094 7.0625V11.75H10.4609V7.0625C10.4609 6.13212 9.70381 5.375 8.77344 5.375C7.84306 5.375 7.08594 6.13212 7.08594 7.0625V8H7.83594V7.0625ZM12.3359 11.75V10.625H12.7109V9.875H11.2109V10.625H11.5859V11.75H12.3359Z" fill="black"/>
</svg>
