<svg width="16" height="15" viewBox="0 0 16 15" fill="none" xmlns="http://www.w3.org/2000/svg">
<path d="M14.6641 7.50009H3.33073V3.77342C3.32838 3.53332 3.39174 3.29714 3.51395 3.09045C3.63615 2.88376 3.81255 2.71442 4.02406 2.60076C4.2581 2.47425 4.52469 2.42084 4.7894 2.44742C4.65465 2.85538 4.63546 3.29267 4.73395 3.71086C4.83244 4.12904 5.04476 4.51181 5.3474 4.81676L6.05406 5.52342C6.11598 5.58541 6.1895 5.63458 6.27044 5.66813C6.35137 5.70168 6.43812 5.71895 6.52573 5.71895C6.61334 5.71895 6.70009 5.70168 6.78102 5.66813C6.86196 5.63458 6.93548 5.58541 6.9974 5.52342L9.35406 3.16676C9.47904 3.04174 9.54925 2.8722 9.54925 2.69542C9.54925 2.51865 9.47904 2.34911 9.35406 2.22409L8.6474 1.51742C8.2539 1.12558 7.73337 0.887202 7.17963 0.845275C6.6259 0.803348 6.0754 0.960627 5.6274 1.28876C5.22352 1.13093 4.7872 1.07418 4.35639 1.12344C3.92558 1.1727 3.51333 1.32648 3.15551 1.5714C2.79768 1.81632 2.50513 2.14497 2.30329 2.52875C2.10145 2.91252 1.99644 3.33981 1.9974 3.77342V7.50009H1.33073C1.15392 7.50009 0.984349 7.57033 0.859325 7.69535C0.7343 7.82038 0.664063 7.98995 0.664062 8.16676C0.664063 8.34357 0.7343 8.51314 0.859325 8.63816C0.984349 8.76319 1.15392 8.83342 1.33073 8.83342H1.9974V10.8334C1.99862 11.2457 2.12744 11.6475 2.36618 11.9837C2.60492 12.3198 2.94185 12.5738 3.33073 12.7108V13.5001C3.33073 13.6769 3.40097 13.8465 3.52599 13.9715C3.65102 14.0965 3.82059 14.1668 3.9974 14.1668C4.17421 14.1668 4.34378 14.0965 4.4688 13.9715C4.59382 13.8465 4.66406 13.6769 4.66406 13.5001V12.8334H11.3307V13.5001C11.3307 13.6769 11.401 13.8465 11.526 13.9715C11.651 14.0965 11.8206 14.1668 11.9974 14.1668C12.1742 14.1668 12.3438 14.0965 12.4688 13.9715C12.5938 13.8465 12.6641 13.6769 12.6641 13.5001V12.7108C13.0529 12.5738 13.3899 12.3198 13.6286 11.9837C13.8673 11.6475 13.9962 11.2457 13.9974 10.8334V8.83342H14.6641C14.8409 8.83342 15.0104 8.76319 15.1355 8.63816C15.2605 8.51314 15.3307 8.34357 15.3307 8.16676C15.3307 7.98995 15.2605 7.82038 15.1355 7.69535C15.0104 7.57033 14.8409 7.50009 14.6641 7.50009ZM6.29073 2.46009C6.4784 2.27315 6.7325 2.16819 6.9974 2.16819C7.26229 2.16819 7.51639 2.27315 7.70406 2.46009L7.94006 2.69542L6.52606 4.10942L6.29006 3.87409C6.10255 3.68645 5.99722 3.43203 5.99722 3.16676C5.99722 2.90148 6.10255 2.64706 6.29006 2.45942L6.29073 2.46009ZM12.6641 10.8334C12.6641 11.0102 12.5938 11.1798 12.4688 11.3048C12.3438 11.4299 12.1742 11.5001 11.9974 11.5001H3.9974C3.82059 11.5001 3.65102 11.4299 3.52599 11.3048C3.40097 11.1798 3.33073 11.0102 3.33073 10.8334V8.83342H12.6641V10.8334Z" fill="black"/>
</svg>
