<svg width="48" height="48" viewBox="0 0 48 48" fill="none" xmlns="http://www.w3.org/2000/svg">
<g id="Bedroom" clip-path="url(#clip0_4667_20658)">
<path id="Vector" d="M0 37.875L6.89062 34.125H41.0625L48 37.875V48H0V37.875ZM0.375 0H47.25L47.1094 0.89175L40.6875 3L6.21075 2.70225L0.375 0Z" fill="#E1EBF4"/>
<path id="Vector_2" d="M41.0625 2.8125V34.125L48 37.875V0.75L41.0625 2.8125ZM0 0.75V37.875L6.5625 34.125V2.8125L0 0.75Z" fill="#FFDB80"/>
<path id="Vector_3" d="M6.5625 2.8125H40.5V34.125H6.5625V2.8125Z" fill="#DEACBD"/>
<path id="Vector_4" d="M37.0384 26.25H33.4609L34.5859 24H35.9134L37.0384 26.25Z" fill="#FFDB80"/>
<path id="Vector_5" d="M33.375 30.375H37.125V31.875H33.375V30.375ZM33.375 33.375H37.125V36H33.375V33.375ZM12.75 41.4375V42.75C12.75 42.9489 12.671 43.1397 12.5303 43.2803C12.3897 43.421 12.1989 43.5 12 43.5C11.8011 43.5 11.6103 43.421 11.4697 43.2803C11.329 43.1397 11.25 42.9489 11.25 42.75V41.4375H12.75ZM27.75 41.4375V42.75C27.75 42.9489 27.671 43.1397 27.5303 43.2803C27.3897 43.421 27.1989 43.5 27 43.5C26.8011 43.5 26.6103 43.421 26.4697 43.2803C26.329 43.1397 26.25 42.9489 26.25 42.75V41.4375H27.75ZM9.375 38.0625H29.625V39.9375H9.375V38.0625ZM27 26.625V29.625H25.5V28.875C25.4994 28.6763 25.4202 28.4858 25.2797 28.3453C25.1392 28.2048 24.9487 28.1256 24.75 28.125H21C20.8013 28.1256 20.6108 28.2048 20.4703 28.3453C20.3298 28.4858 20.2506 28.6763 20.25 28.875V29.625H18.75V28.875C18.7494 28.6763 18.6702 28.4858 18.5297 28.3453C18.3892 28.2048 18.1987 28.1256 18 28.125H14.25C14.0513 28.1256 13.8608 28.2048 13.7203 28.3453C13.5798 28.4858 13.5006 28.6763 13.5 28.875V29.625H12V26.625H27Z" fill="#D68751"/>
<path id="Vector_6" d="M15 29.625H17.25V31.125H15V29.625ZM21.75 29.625H24V31.125H21.75V29.625Z" fill="#FFDB80"/>
<path id="Vector_7" d="M29.3042 36.375H9.69922L11.623 31.125H13.5017V31.875C13.5023 32.0737 13.5815 32.2642 13.722 32.4047C13.8626 32.5452 14.053 32.6244 14.2517 32.625H18.0017C18.2004 32.6244 18.3909 32.5452 18.5314 32.4047C18.6719 32.2642 18.7511 32.0737 18.7517 31.875V31.125H20.2517V31.875C20.2523 32.0737 20.3315 32.2642 20.472 32.4047C20.6126 32.5452 20.803 32.6244 21.0017 32.625H24.7517C24.9504 32.6244 25.1409 32.5452 25.2814 32.4047C25.4219 32.2642 25.5011 32.0737 25.5017 31.875V31.125H27.3805L29.3042 36.375Z" fill="#E1EBF4"/>
<path id="Vector_8" d="M29.398 10.5L28.9892 12H19.0142L18.6055 10.5H29.398Z" fill="#FFDB80"/>
<path id="Vector_9" d="M32.25 6.75V10.5H30.8925C30.8927 10.3033 30.8542 10.1084 30.7792 9.92655C30.7041 9.74469 30.594 9.5794 30.455 9.44012C30.3161 9.30083 30.1511 9.19027 29.9694 9.11475C29.7877 9.03924 29.593 9.00025 29.3962 9H18.6038C18.407 9.00025 18.2123 9.03924 18.0306 9.11475C17.8489 9.19027 17.6839 9.30083 17.545 9.44012C17.406 9.5794 17.2959 9.74469 17.2208 9.92655C17.1458 10.1084 17.1073 10.3033 17.1075 10.5H15.75V6.75H32.25Z" fill="#E1EBF4"/>
<path id="Vector_10" opacity="0.4" d="M6.00008 32.9587V33.7087L0.352576 37.2375C0.247206 37.3014 0.160543 37.3919 0.101326 37.5C0.00361071 37.3316 -0.024807 37.1319 0.022079 36.9429C0.068965 36.754 0.187481 36.5907 0.352576 36.4875L6.00008 32.9587ZM47.8988 37.5C47.8396 37.3919 47.7529 37.3014 47.6476 37.2375L42.0001 33.7087V32.9587L47.6476 36.4875C47.8127 36.5907 47.9312 36.754 47.9781 36.9429C48.025 37.1319 47.9965 37.3316 47.8988 37.5ZM37.0388 26.25H33.4613L33.8363 25.5H36.6638L37.0388 26.25Z" fill="#AD9359"/>
<path id="Vector_11" opacity="0.4" d="M33.375 31.125H37.125V31.875H33.375V31.125ZM33.375 35.25H37.125V36H33.375V35.25ZM18.75 28.875H20.25V29.625H18.75V28.875ZM25.5 28.875H27V29.625H25.5V28.875ZM12 28.875H13.5V29.625H12V28.875Z" fill="#72492D"/>
<path id="Vector_12" opacity="0.3" d="M12 26.625H27V27.375H12V26.625Z" fill="#E5D0C3"/>
<path id="Vector_13" opacity="0.5" d="M13.5002 31.125V31.875H11.3477L11.6214 31.125H13.5002ZM27.3789 31.125L27.6527 31.875H25.5002V31.125H27.3789Z" fill="white"/>
<path id="Vector_14" opacity="0.4" d="M15 30.375H17.25V31.125H15V30.375ZM21.75 30.375H24V31.125H21.75V30.375Z" fill="#AD9359"/>
<path id="Vector_15" opacity="0.4" d="M27.75 42V42.75C27.75 42.9489 27.671 43.1397 27.5303 43.2803C27.3897 43.421 27.1989 43.5 27 43.5C26.8011 43.5 26.6103 43.421 26.4697 43.2803C26.329 43.1397 26.25 42.9489 26.25 42.75V42C26.25 42.1989 26.329 42.3897 26.4697 42.5303C26.6103 42.671 26.8011 42.75 27 42.75C27.1989 42.75 27.3897 42.671 27.5303 42.5303C27.671 42.3897 27.75 42.1989 27.75 42ZM12.75 42V42.75C12.75 42.9489 12.671 43.1397 12.5303 43.2803C12.3897 43.421 12.1989 43.5 12 43.5C11.8011 43.5 11.6103 43.421 11.4697 43.2803C11.329 43.1397 11.25 42.9489 11.25 42.75V42C11.25 42.1989 11.329 42.3897 11.4697 42.5303C11.6103 42.671 11.8011 42.75 12 42.75C12.1989 42.75 12.3897 42.671 12.5303 42.5303C12.671 42.3897 12.75 42.1989 12.75 42ZM9.375 39.1875H29.625V39.9375H9.375V39.1875Z" fill="#72492D"/>
<path id="Vector_16" opacity="0.5" d="M9.375 35.625H29.625V36.375H9.375V35.625Z" fill="#9FA5AA"/>
<path id="Vector_17" opacity="0.5" d="M7.5 32.625H9.4725L9.19875 33.375H7.5V32.625ZM31.875 32.625V33.375H29.8013L29.5275 32.625H31.875ZM38.625 32.625H40.5V33.375H38.625V32.625Z" fill="#7F656F"/>
<path id="Vector_18" opacity="0.6" d="M47.5125 2.20134L42 4.27134V3.52134L47.5125 1.45134C47.6771 1.39204 47.8145 1.2747 47.8988 1.12134C47.9185 1.15903 47.936 1.19784 47.9513 1.23759C47.9861 1.32965 48.0023 1.42769 47.9991 1.52606C47.9959 1.62443 47.9732 1.72119 47.9324 1.81077C47.8917 1.90034 47.8336 1.98097 47.7615 2.048C47.6894 2.11503 47.6048 2.16715 47.5125 2.20134Z" fill="#F9EDD2"/>
<path id="Vector_19" opacity="0.3" d="M7.5 3.75H40.5V4.5H7.5V3.75Z" fill="#F4EAEE"/>
<path id="Vector_20" opacity="0.6" d="M5.9995 3.52134V4.27134L0.487 2.20134C0.394707 2.16715 0.310089 2.11503 0.238019 2.048C0.165949 1.98097 0.107851 1.90034 0.0670702 1.81077C0.0262895 1.72119 0.00363192 1.62443 0.000401964 1.52606C-0.00282799 1.42769 0.0134335 1.32965 0.0482502 1.23759C0.0634622 1.19784 0.0809923 1.15903 0.10075 1.12134C0.185018 1.2747 0.32236 1.39204 0.487 1.45134L5.9995 3.52134Z" fill="#F9EDD2"/>
<path id="Vector_21" opacity="0.5" d="M15.75 9.75H17.31C17.1766 9.97735 17.1066 10.2364 17.1075 10.5H15.75V9.75ZM32.25 9.75V10.5H30.8925C30.8934 10.2364 30.8234 9.97735 30.69 9.75H32.25Z" fill="#9FA5AA"/>
<path id="Vector_22" opacity="0.5" d="M15.75 6.75H32.25V7.5H15.75V6.75Z" fill="white"/>
<path id="Vector_23" opacity="0.6" d="M30 10.5L29.5455 12H18.4545L18 10.5H18.2295L18.4545 11.25H29.5455L29.775 10.5H30Z" fill="#AD9359"/>
<path id="Vector_24" d="M33 5.25H15C14.8013 5.25059 14.6108 5.3298 14.4703 5.47033C14.3298 5.61085 14.2506 5.80127 14.25 6V11.25C14.2506 11.4487 14.3298 11.6392 14.4703 11.7797C14.6108 11.9202 14.8013 11.9994 15 12H17.4562L17.565 12.3937C17.6516 12.7113 17.8402 12.9917 18.1017 13.1916C18.3633 13.3915 18.6833 13.4998 19.0125 13.5H28.9875C29.3167 13.4998 29.6367 13.3915 29.8983 13.1916C30.1598 12.9917 30.3484 12.7113 30.435 12.3937L30.5437 12H33C33.1987 11.9994 33.3892 11.9202 33.5297 11.7797C33.6702 11.6392 33.7494 11.4487 33.75 11.25V6C33.7494 5.80127 33.6702 5.61085 33.5297 5.47033C33.3892 5.3298 33.1987 5.25059 33 5.25ZM28.9875 12H19.0125L18.6038 10.5H29.3962L28.9875 12ZM32.25 10.5H30.8925C30.8927 10.3033 30.8542 10.1084 30.7792 9.92655C30.7041 9.74469 30.594 9.5794 30.455 9.44012C30.3161 9.30083 30.1511 9.19027 29.9694 9.11475C29.7877 9.03924 29.593 9.00025 29.3962 9H18.6038C18.407 9.00025 18.2123 9.03924 18.0306 9.11475C17.8489 9.19027 17.6839 9.30083 17.545 9.44012C17.406 9.5794 17.2959 9.74469 17.2208 9.92655C17.1458 10.1084 17.1073 10.3033 17.1075 10.5H15.75V6.75H32.25V10.5Z" fill="#2D4356"/>
<path id="Vector_25" d="M47.6464 37.2376L41.9989 33.7088V3.52133L47.5114 1.45133C47.6942 1.3794 47.8414 1.23852 47.9213 1.05905C48.0012 0.879582 48.0074 0.675904 47.9385 0.491921C47.8696 0.307937 47.7312 0.158384 47.5531 0.0754992C47.375 -0.00738565 47.1715 -0.0169639 46.9864 0.0488292L41.1139 2.25008H6.88385L1.01135 0.0488292C0.918859 0.0124365 0.820048 -0.00517969 0.720677 -0.00299248C0.621306 -0.000805266 0.523365 0.0211416 0.432564 0.0615687C0.341762 0.101996 0.259917 0.160094 0.191799 0.232477C0.123681 0.30486 0.070654 0.390078 0.0358088 0.483165C0.000963539 0.576251 -0.0150025 0.675343 -0.0111585 0.774663C-0.00731448 0.873984 0.0162626 0.971545 0.0581983 1.06166C0.100134 1.15177 0.159589 1.23264 0.233098 1.29954C0.306606 1.36644 0.392697 1.41804 0.486352 1.45133L5.99885 3.52133V33.7088L0.351352 37.2376C0.182636 37.3433 0.0626673 37.5116 0.0176901 37.7055C-0.0272871 37.8995 0.00638927 38.1034 0.111352 38.2726C0.221682 38.4359 0.389715 38.5514 0.581702 38.5959C0.773689 38.6404 0.975411 38.6107 1.14635 38.5126L6.9626 34.8751H8.6501L7.91885 36.8663C7.8778 37.0113 7.86256 37.1623 7.87385 37.3126V39.9376C7.8738 40.1346 7.91257 40.3297 7.98793 40.5117C8.0633 40.6937 8.17378 40.8591 8.31308 40.9983C8.45238 41.1376 8.61776 41.2481 8.79977 41.3235C8.98178 41.3989 9.17686 41.4376 9.37385 41.4376H9.74885V42.7501C9.74885 43.3468 9.9859 43.9191 10.4079 44.3411C10.8298 44.763 11.4021 45.0001 11.9989 45.0001C12.5956 45.0001 13.1679 44.763 13.5898 44.3411C14.0118 43.9191 14.2489 43.3468 14.2489 42.7501V41.4376H24.7489V42.7501C24.7489 43.3468 24.9859 43.9191 25.4079 44.3411C25.8298 44.763 26.4021 45.0001 26.9989 45.0001C27.5956 45.0001 28.1679 44.763 28.5898 44.3411C29.0118 43.9191 29.2489 43.3468 29.2489 42.7501V41.4376H29.6239C29.8208 41.4376 30.0159 41.3989 30.1979 41.3235C30.3799 41.2481 30.5453 41.1376 30.6846 40.9983C30.8239 40.8591 30.9344 40.6937 31.0098 40.5117C31.0851 40.3297 31.1239 40.1346 31.1239 39.9376V37.3126C31.1351 37.1623 31.1199 37.0113 31.0789 36.8663L30.3476 34.8751H31.8739V36.0001C31.8738 36.1971 31.9126 36.3922 31.9879 36.5742C32.0633 36.7562 32.1738 36.9216 32.3131 37.0608C32.4524 37.2001 32.6178 37.3106 32.7998 37.386C32.9818 37.4614 33.1769 37.5001 33.3739 37.5001H37.1239C37.3209 37.5001 37.5159 37.4614 37.6979 37.386C37.8799 37.3106 38.0453 37.2001 38.1846 37.0608C38.3239 36.9216 38.4344 36.7562 38.5098 36.5742C38.5851 36.3922 38.6239 36.1971 38.6239 36.0001V34.8751H41.0351C41.0351 34.8751 46.8439 38.5051 46.8514 38.5126C47.0212 38.615 47.2243 38.6472 47.4175 38.6024C47.6107 38.5576 47.7789 38.4393 47.8864 38.2726C47.9913 38.1034 48.025 37.8995 47.98 37.7055C47.935 37.5116 47.8151 37.3433 47.6464 37.2376ZM12.7489 42.7501C12.7489 42.949 12.6698 43.1398 12.5292 43.2804C12.3885 43.4211 12.1978 43.5001 11.9989 43.5001C11.7999 43.5001 11.6092 43.4211 11.4685 43.2804C11.3279 43.1398 11.2489 42.949 11.2489 42.7501V41.4376H12.7489V42.7501ZM27.7489 42.7501C27.7489 42.949 27.6698 43.1398 27.5292 43.2804C27.3885 43.4211 27.1978 43.5001 26.9989 43.5001C26.7999 43.5001 26.6092 43.4211 26.4685 43.2804C26.3279 43.1398 26.2489 42.949 26.2489 42.7501V41.4376H27.7489V42.7501ZM29.6239 39.9376H9.37385V38.0626H29.6239V39.9376ZM24.7489 28.1251H20.9989C20.8001 28.1257 20.6097 28.2049 20.4692 28.3454C20.3287 28.4859 20.2494 28.6763 20.2489 28.8751V29.6251H18.7489V28.8751C18.7483 28.6763 18.669 28.4859 18.5285 28.3454C18.388 28.2049 18.1976 28.1257 17.9989 28.1251H14.2489C14.0501 28.1257 13.8597 28.2049 13.7192 28.3454C13.5787 28.4859 13.4994 28.6763 13.4989 28.8751V29.6251H11.9989V26.6251H26.9989V29.6251H25.4989V28.8751C25.4983 28.6763 25.4191 28.4859 25.2785 28.3454C25.138 28.2049 24.9476 28.1257 24.7489 28.1251ZM23.9989 29.6251V31.1251H21.7489V29.6251H23.9989ZM17.2489 29.6251V31.1251H14.9989V29.6251H17.2489ZM13.4989 31.1251V31.8751C13.4994 32.0738 13.5787 32.2642 13.7192 32.4048C13.8597 32.5453 14.0501 32.6245 14.2489 32.6251H17.9989C18.1976 32.6245 18.388 32.5453 18.5285 32.4048C18.669 32.2642 18.7483 32.0738 18.7489 31.8751V31.1251H20.2489V31.8751C20.2494 32.0738 20.3287 32.2642 20.4692 32.4048C20.6097 32.5453 20.8001 32.6245 20.9989 32.6251H24.7489C24.9476 32.6245 25.138 32.5453 25.2785 32.4048C25.4191 32.2642 25.4983 32.0738 25.4989 31.8751V31.1251H27.3776L29.3014 36.3751H9.69635L11.6201 31.1251H13.4989ZM37.1239 36.0001H33.3739V33.3751H37.1239V36.0001ZM37.1239 31.8751H33.3739V30.3751H37.1239V31.8751ZM40.4989 33.3751H38.6239V30.3751C38.6239 30.1781 38.5851 29.983 38.5098 29.801C38.4344 29.619 38.3239 29.4536 38.1846 29.3143C38.0453 29.175 37.8799 29.0645 37.6979 28.9892C37.5159 28.9138 37.3209 28.875 37.1239 28.8751H35.9989V27.7501H38.2489C38.3767 27.75 38.5024 27.7173 38.614 27.6549C38.7256 27.5926 38.8193 27.5027 38.8864 27.3938C38.9542 27.2857 38.9929 27.162 38.9988 27.0345C39.0047 26.9071 38.9776 26.7802 38.9201 26.6663L37.0451 22.9163C36.9838 22.7915 36.8888 22.6864 36.7708 22.6128C36.6529 22.5393 36.5166 22.5002 36.3776 22.5001H34.1201C33.9811 22.5002 33.8449 22.5393 33.7269 22.6128C33.6089 22.6864 33.5139 22.7915 33.4526 22.9163L31.5776 26.6663C31.5201 26.7802 31.493 26.9071 31.4989 27.0345C31.5048 27.162 31.5435 27.2857 31.6114 27.3938C31.6784 27.5027 31.7721 27.5926 31.8837 27.6549C31.9953 27.7173 32.121 27.75 32.2489 27.7501H34.4989V28.8751H33.3739C33.1769 28.875 32.9818 28.9138 32.7998 28.9892C32.6178 29.0645 32.4524 29.175 32.3131 29.3143C32.1738 29.4536 32.0633 29.619 31.9879 29.801C31.9126 29.983 31.8738 30.1781 31.8739 30.3751V33.3751H29.8001L28.6076 30.1163C28.5811 30.0464 28.5444 29.9807 28.4989 29.9213V26.6251C28.4989 26.4281 28.4601 26.233 28.3848 26.051C28.3094 25.869 28.1989 25.7036 28.0596 25.5643C27.9203 25.425 27.7549 25.3145 27.5729 25.2392C27.3909 25.1638 27.1958 25.125 26.9989 25.1251H11.9989C11.8019 25.125 11.6068 25.1638 11.4248 25.2392C11.2428 25.3145 11.0774 25.425 10.9381 25.5643C10.7988 25.7036 10.6883 25.869 10.6129 26.051C10.5376 26.233 10.4988 26.4281 10.4989 26.6251V29.9213C10.4533 29.9807 10.4166 30.0464 10.3901 30.1163L9.1976 33.3751H7.49885V3.75008H40.4989V33.3751ZM33.4601 26.2501L34.5851 24.0001H35.9126L37.0376 26.2501H33.4601Z" fill="#2D4356"/>
</g>
<defs>
<clipPath id="clip0_4667_20658">
<rect width="48" height="48" fill="white"/>
</clipPath>
</defs>
</svg>
