<svg width="18" height="17" viewBox="0 0 18 17" fill="none" xmlns="http://www.w3.org/2000/svg">
<path d="M14.106 3.72819L9.89246 1.91569C9.27409 1.6518 8.33936 1.6518 7.721 1.91569L3.5075 3.72819C2.44334 4.18652 2.28516 4.81152 2.28516 5.14486C2.28516 5.47819 2.44334 6.10319 3.5075 6.56152L7.721 8.37402C8.03018 8.50597 8.41845 8.57541 8.80673 8.57541C9.195 8.57541 9.58328 8.50597 9.89246 8.37402L14.106 6.56152C15.1701 6.10319 15.3283 5.47819 15.3283 5.14486C15.3283 4.81152 15.1773 4.18652 14.106 3.72819Z" fill="#FE8501"/>
<path d="M8.80783 12.1665C8.5346 12.1665 8.26137 12.1109 8.00971 12.0067L3.16348 9.92339C2.42288 9.60395 1.84766 8.74978 1.84766 7.96506C1.84766 7.68034 2.08494 7.45117 2.37974 7.45117C2.67454 7.45117 2.91182 7.68034 2.91182 7.96506C2.91182 8.34006 3.23538 8.82617 3.59489 8.97895L8.44113 11.0623C8.67122 11.1595 8.93726 11.1595 9.16735 11.0623L14.0136 8.97895C14.3731 8.82617 14.6967 8.34701 14.6967 7.96506C14.6967 7.68034 14.9339 7.45117 15.2287 7.45117C15.5235 7.45117 15.7608 7.68034 15.7608 7.96506C15.7608 8.74284 15.1856 9.60395 14.445 9.92339L9.59876 12.0067C9.35429 12.1109 9.08106 12.1665 8.80783 12.1665Z" fill="#FE8501"/>
<path d="M8.80783 15.6108C8.5346 15.6108 8.26137 15.5552 8.00971 15.4511L3.16348 13.3677C2.36536 13.0275 1.84766 12.2566 1.84766 11.4094C1.84766 11.1247 2.08494 10.8955 2.37974 10.8955C2.67454 10.8955 2.91182 11.1247 2.91182 11.4094C2.91182 11.8469 3.17786 12.2427 3.59489 12.4233L8.44113 14.5066C8.67122 14.6038 8.93726 14.6038 9.16735 14.5066L14.0136 12.4233C14.4234 12.2497 14.6967 11.8469 14.6967 11.4094C14.6967 11.1247 14.9339 10.8955 15.2287 10.8955C15.5235 10.8955 15.7608 11.1247 15.7608 11.4094C15.7608 12.2566 15.2431 13.0205 14.445 13.3677L9.59876 15.4511C9.35429 15.5552 9.08106 15.6108 8.80783 15.6108Z" fill="#FE8501"/>
</svg>
