<svg width="16" height="17" viewBox="0 0 16 17" fill="none" xmlns="http://www.w3.org/2000/svg">
<path d="M2.20501 8.22409V13.7413C2.20501 13.8877 2.14688 14.028 2.04341 14.1315C1.93995 14.2349 1.79961 14.2931 1.65329 14.2931C1.50696 14.2931 1.36663 14.2349 1.26316 14.1315C1.15969 14.028 1.10156 13.8877 1.10156 13.7413V8.22409C1.10156 8.07776 1.15969 7.93743 1.26316 7.83396C1.36663 7.73049 1.50696 7.67236 1.65329 7.67236C1.79961 7.67236 1.93995 7.73049 2.04341 7.83396C2.14688 7.93743 2.20501 8.07776 2.20501 8.22409Z" fill="black"/>
<path d="M1.10156 8.22412H14.8947V13.1896H1.10156V8.22412Z" fill="black"/>
<path d="M2.20312 3.81024V7.12058H3.30657V6.56886C3.30657 6.42253 3.3647 6.2822 3.46817 6.17873C3.57164 6.07526 3.71197 6.01713 3.8583 6.01713H6.89278C7.03911 6.01713 7.17944 6.07526 7.28291 6.17873C7.38638 6.2822 7.4445 6.42253 7.4445 6.56886V7.12499H8.54795V6.56886C8.54795 6.42253 8.60608 6.2822 8.70955 6.17873C8.81302 6.07526 8.95335 6.01713 9.09968 6.01713H12.1342C12.2805 6.01713 12.4208 6.07526 12.5243 6.17873C12.6278 6.2822 12.6859 6.42253 12.6859 6.56886V7.12058H13.7893V3.81024C13.7893 3.51758 13.6731 3.23692 13.4661 3.02998C13.2592 2.82304 12.9785 2.70679 12.6859 2.70679H3.30657C3.01392 2.70679 2.73325 2.82304 2.52632 3.02998C2.31938 3.23692 2.20313 3.51758 2.20312 3.81024Z" fill="black"/>
<path d="M14.9003 8.22409V13.7413C14.9003 13.8877 14.8422 14.028 14.7387 14.1315C14.6353 14.2349 14.4949 14.2931 14.3486 14.2931C14.2023 14.2931 14.0619 14.2349 13.9585 14.1315C13.855 14.028 13.7969 13.8877 13.7969 13.7413V8.22409C13.7969 8.07776 13.855 7.93743 13.9585 7.83396C14.0619 7.73049 14.2023 7.67236 14.3486 7.67236C14.4949 7.67236 14.6353 7.73049 14.7387 7.83396C14.8422 7.93743 14.9003 8.07776 14.9003 8.22409Z" fill="black"/>
</svg>
