<svg width="22" height="23" viewBox="0 0 22 23" fill="none" xmlns="http://www.w3.org/2000/svg">
<path d="M19.2803 15.601L18.4737 14.7882C18.1704 14.4862 17.9301 14.1271 17.7664 13.7317C17.6028 13.3362 17.5192 12.9123 17.5203 12.4843V9.54488C17.5203 8.77446 17.3686 8.01158 17.0738 7.2998C16.7789 6.58803 16.3468 5.94129 15.802 5.39652C15.2573 4.85175 14.6105 4.41961 13.8988 4.12479C13.187 3.82996 12.4241 3.67821 11.6537 3.67821V1.72266H10.3459V3.67821C8.78996 3.67821 7.29775 4.29631 6.19754 5.39652C5.09732 6.49673 4.47923 7.98894 4.47923 9.54488V12.4904C4.48041 12.9184 4.39677 13.3423 4.23314 13.7378C4.06951 14.1332 3.82913 14.4923 3.5259 14.7943L2.71923 15.601C2.6591 15.6612 2.61141 15.7327 2.57891 15.8113C2.5464 15.8899 2.52971 15.9742 2.52979 16.0593V18.0149C2.52978 18.1872 2.59783 18.3526 2.71914 18.4751C2.84045 18.5976 3.0052 18.6672 3.17756 18.6688H8.09701C8.17078 19.3865 8.5081 20.0513 9.04373 20.5347C9.57936 21.0181 10.2752 21.2857 10.9967 21.2857C11.7182 21.2857 12.4141 21.0181 12.9497 20.5347C13.4854 20.0513 13.8227 19.3865 13.8965 18.6688H18.822C18.9954 18.6688 19.1617 18.5999 19.2844 18.4772C19.407 18.3546 19.4759 18.1883 19.4759 18.0149V16.0593C19.4738 15.8867 19.4035 15.722 19.2803 15.601ZM10.9998 19.9765C10.6248 19.9759 10.2616 19.8461 9.97108 19.609C9.6806 19.372 9.48062 19.0421 9.40479 18.6749H12.6009C12.5249 19.0431 12.324 19.3738 12.0322 19.6109C11.7405 19.8481 11.3758 19.9773 10.9998 19.9765ZM18.1681 17.3671H3.83145V16.3343L4.44256 15.7232C4.8679 15.3006 5.20519 14.7978 5.43492 14.2439C5.66464 13.6901 5.78224 13.0962 5.7809 12.4965V9.54488C5.7849 8.33509 6.26579 7.17568 7.11923 6.31821C7.54186 5.89288 8.04466 5.55558 8.59852 5.32586C9.15237 5.09614 9.74629 4.97854 10.3459 4.97988H11.6476C12.8583 4.97988 14.0194 5.46083 14.8755 6.31694C15.7316 7.17304 16.2126 8.33417 16.2126 9.54488V12.4904C16.2112 13.09 16.3288 13.684 16.5585 14.2378C16.7883 14.7917 17.1256 15.2945 17.5509 15.7171L18.162 16.3282L18.1681 17.3671Z" fill="#181A20"/>
</svg>
