<svg width="17" height="16" viewBox="0 0 17 16" fill="none" xmlns="http://www.w3.org/2000/svg">
<g clip-path="url(#clip0_3211_15430)">
<path d="M5.59479 14.8582V11.9611H5.76916V11.1369H1.94897C2.03516 8.9763 1.87487 6.81286 1.47121 4.68872C1.20218 4.74027 0.933086 4.79167 0.664062 4.84314C1.29325 8.15083 1.31118 11.5451 0.721812 14.8582H1.5566C1.61618 14.5096 1.6693 14.1599 1.71595 13.8093H4.77301V14.8582H5.59479ZM1.77273 13.3597C1.82778 12.8947 1.87137 12.4283 1.90347 11.9611H4.77301V13.3597H1.77273Z" fill="black"/>
<path d="M5.18678 10.9058C5.46754 10.9058 5.69726 10.6754 5.69726 10.3938C5.69726 10.1122 5.46754 9.88184 5.18678 9.88184H2.72142C2.44066 9.88184 2.21094 10.1122 2.21094 10.3938C2.21094 10.6754 2.44066 10.9058 2.72142 10.9058H5.18678Z" fill="black"/>
<path d="M4.26565 5.31764C4.26565 4.97478 4.54386 4.69575 4.88572 4.69575H5.56699C5.45657 4.45277 5.26464 4.26673 5.00032 4.21076C4.43307 4.09073 3.60343 4.38241 3.25358 5.27089C2.7803 6.49518 2.67003 7.28917 2.82094 8.6275C3.00286 9.54003 3.66507 9.67197 4.25227 9.67085C4.28985 9.6767 4.32803 9.68059 4.36717 9.68059H5.84639L6.93586 12.1441C7.04486 12.3905 7.27018 12.5484 7.51836 12.5825V15.0279H8.00396V13.8197H15.2266V15.0279H15.7122V8.71539H16.1169V8.05357H16.6647V7.67894H6.56576V8.05357H7.11359V8.71539H7.51828V9.76511L7.0152 8.62758C6.95656 8.495 6.86081 8.38234 6.73958 8.30328C6.61834 8.22421 6.47683 8.18213 6.33222 8.18214H5.17215C5.18216 7.4101 5.37909 6.59656 5.53658 5.93945H4.88565C4.54378 5.93953 4.26565 5.66058 4.26565 5.31764ZM8.00389 8.71554H15.2265V13.3329H8.00389V12.4819C8.32244 12.29 8.45624 11.8861 8.30175 11.5367L8.00389 10.8632V8.71554Z" fill="black"/>
<path d="M5.48402 4.10534C6.34677 4.10534 7.04617 3.4039 7.04617 2.53863C7.04617 1.67336 6.34677 0.971924 5.48402 0.971924C4.62127 0.971924 3.92188 1.67336 3.92188 2.53863C3.92188 3.4039 4.62127 4.10534 5.48402 4.10534Z" fill="black"/>
<path d="M9.75961 7.34075V7.10946C10.268 6.93285 10.6337 6.44966 10.6337 5.87969H8.03639C8.03639 6.44966 8.40201 6.93285 8.91048 7.10946V7.34075H9.75961ZM10.1827 3.54447V3.36967H9.7425C9.76546 3.42548 9.78011 3.48438 9.78598 3.54447H10.1827ZM7.46988 3.28223C7.1845 3.28223 6.95312 3.37026 6.95312 3.47891C6.95312 3.58755 7.1845 3.81608 7.46988 3.81608C7.70581 3.81608 7.90446 3.66 7.96632 3.54447H8.33918L8.52065 3.36967H7.89945C7.80674 3.31692 7.64903 3.28223 7.46988 3.28223ZM7.09163 3.4649C7.09163 3.41574 7.261 3.37588 7.46988 3.37588C7.67876 3.37588 7.84813 3.41574 7.84813 3.4649C7.84813 3.51405 7.67876 3.55391 7.46988 3.55391C7.261 3.55391 7.09163 3.51397 7.09163 3.4649Z" fill="black"/>
<path d="M7.21731 4.86804H4.88575C4.76687 4.86804 4.65285 4.9154 4.56879 4.99971C4.48473 5.08402 4.4375 5.19836 4.4375 5.31759C4.4375 5.43682 4.48473 5.55117 4.56879 5.63548C4.65285 5.71979 4.76687 5.76715 4.88575 5.76715H7.39773C7.51348 5.76714 7.62474 5.72222 7.70822 5.6418L9.4841 3.93101C9.52656 3.89012 9.56057 3.84124 9.58419 3.78717C9.60781 3.7331 9.62058 3.67489 9.62176 3.61586C9.62295 3.55684 9.61253 3.49816 9.5911 3.44318C9.56968 3.3882 9.53766 3.33798 9.49688 3.29541C9.45611 3.25282 9.40738 3.2187 9.35346 3.19501C9.29955 3.17132 9.2415 3.15851 9.18265 3.15732C9.1238 3.15613 9.06529 3.16658 9.01046 3.18808C8.95564 3.20957 8.90557 3.24169 8.86313 3.2826L7.21731 4.86804ZM11.5623 7.43186H12.5234C12.6425 7.43186 12.6779 7.32944 12.6779 7.24979V5.97604C12.6779 5.44085 12.4561 4.90647 12.349 4.6796V4.06543H12.383C12.4116 4.06543 12.4389 4.05405 12.4591 4.0338C12.4793 4.01356 12.4907 3.98609 12.4907 3.95746C12.4907 3.92882 12.4793 3.90136 12.4591 3.88111C12.4389 3.86087 12.4116 3.84949 12.383 3.84949H11.7026C11.6741 3.84949 11.6467 3.86087 11.6265 3.88111C11.6063 3.90136 11.595 3.92882 11.595 3.95746C11.595 3.98609 11.6063 4.01356 11.6265 4.0338C11.6467 4.05405 11.6741 4.06543 11.7026 4.06543H11.7368V4.6796C11.6296 4.90655 11.4079 5.44085 11.4079 5.97604V7.24979C11.4079 7.32936 11.4432 7.43186 11.5623 7.43186ZM11.5573 5.97619C11.5573 5.71702 11.6139 5.45538 11.6822 5.2339H12.4035C12.4717 5.45523 12.5283 5.71687 12.5283 5.97619V7.24994C12.5283 7.2641 12.5258 7.27541 12.5236 7.28178H11.5618C11.5587 7.27147 11.5571 7.26073 11.5571 7.24994V5.97619H11.5573Z" fill="black"/>
</g>
<defs>
<clipPath id="clip0_3211_15430">
<rect width="16" height="14.0561" fill="white" transform="translate(0.664062 0.971924)"/>
</clipPath>
</defs>
</svg>
