<svg width="24" height="22" viewBox="0 0 24 22" fill="none" xmlns="http://www.w3.org/2000/svg">
<g id="buffet" clip-path="url(#clip0_3348_15026)">
<path id="Vector" d="M24.001 12.1343H7.36719V20.6862H24.001V12.1343Z" fill="black"/>
<path id="Vector_2" d="M20.2012 5.74609C18.572 5.74609 17.2279 6.79507 17.0252 8.15227H23.377C23.1742 6.79498 21.8301 5.74609 20.2012 5.74609ZM16.4688 8.48289V8.97881H17.0449C17.1219 9.3655 17.2914 9.72477 17.5342 10.0387V11.7706H18.1072V10.5982C18.6689 11.0171 19.4004 11.2711 20.2012 11.2711C21.002 11.2711 21.7335 11.0171 22.2951 10.5981V11.7706H22.8682V10.0385C23.1108 9.72468 23.2803 9.36541 23.3573 8.97881H23.9334V8.48289H16.4688Z" fill="black"/>
<path id="Vector_3" d="M20.2018 5.45223C20.4858 5.45223 20.716 5.22199 20.716 4.93797C20.716 4.65395 20.4858 4.42371 20.2018 4.42371C19.9177 4.42371 19.6875 4.65395 19.6875 4.93797C19.6875 5.22199 19.9177 5.45223 20.2018 5.45223Z" fill="black"/>
<path id="Vector_4" d="M10.7635 7.44687C11.319 7.48663 11.7986 7.52093 11.7986 7.93539C11.7986 8.01517 11.7772 8.08712 11.738 8.15227H15.0017C14.7989 6.79498 13.4548 5.74609 11.8259 5.74609C10.5131 5.74609 9.38541 6.42734 8.89062 7.4019C8.98646 7.40102 9.08327 7.40041 9.18175 7.40041C9.78296 7.40041 10.3448 7.41689 10.7635 7.44687ZM11.2616 8.48289C10.9067 8.6139 10.4147 8.68011 9.90515 8.70911C9.96581 8.82399 10.0063 8.95174 10.0213 9.08822C10.0822 9.6433 9.69981 10.1455 9.15874 10.2437V11.7706H9.73182V10.5982C10.2934 11.0171 11.025 11.2711 11.8258 11.2711C12.6266 11.2711 13.3581 11.0171 13.9197 10.5981V11.7706H14.4928V10.0385C14.7354 9.72468 14.9049 9.36541 14.9819 8.97881H15.558V8.48289H11.2616Z" fill="black"/>
<path id="Vector_5" d="M11.8268 5.45223C12.1108 5.45223 12.341 5.22199 12.341 4.93797C12.341 4.65395 12.1108 4.42371 11.8268 4.42371C11.5427 4.42371 11.3125 4.65395 11.3125 4.93797C11.3125 5.22199 11.5427 5.45223 11.8268 5.45223Z" fill="black"/>
<path id="Vector_6" d="M8.04708 8.10882C8.18894 8.14347 8.38423 8.16322 8.57758 8.16322H8.57811H8.58675C8.7436 8.16322 8.85504 8.15202 8.8561 8.15202C8.89348 8.14788 8.93262 8.14576 8.97133 8.14576C9.2725 8.14576 9.546 8.27192 9.73943 8.47638H9.98357V8.3473C10.8388 8.28435 11.447 8.12381 11.447 7.93549C11.447 7.76084 9.11125 7.71164 7.79475 7.7879C7.83584 7.9265 7.88168 8.01395 7.91686 8.065C7.94146 8.07699 7.98519 8.09524 8.04708 8.10882ZM6.05955 4.26892C6.38541 3.91547 6.58467 3.44353 6.58467 2.92486C6.58467 1.82933 5.69648 0.941162 4.60093 0.941162C3.5052 0.941162 2.61719 1.82933 2.61719 2.92486C2.61719 3.4415 2.81477 3.91194 3.13843 4.26486H5.99545C6.01661 4.26486 6.03821 4.2676 6.05955 4.26892Z" fill="black"/>
<path id="Vector_7" d="M1.44496 7.67073L1.44487 7.67056C1.42142 7.60946 1.41093 7.55145 1.41057 7.48259C1.41022 7.42661 1.41992 7.36145 1.43826 7.29101C1.45986 7.20814 1.49398 7.11759 1.54476 7.02184C1.62976 6.85804 1.75927 6.68735 1.90386 6.5358V19.9687C1.90386 20.5709 2.39204 21.0587 2.99386 21.0587C3.59586 21.0587 4.08404 20.5709 4.08404 19.9687V12.0101H4.49269V19.9687C4.49269 20.5709 4.98087 21.0587 5.58269 21.0587C6.18469 21.0587 6.67286 20.5709 6.67286 19.9687V9.32196C6.97078 9.61907 7.32468 9.74612 7.63652 9.82458C7.99166 9.90948 8.32563 9.92571 8.58255 9.9265C8.84502 9.92632 9.02523 9.90675 9.04374 9.90481C9.43097 9.86232 9.71028 9.51389 9.66778 9.12676C9.62529 8.73955 9.27668 8.46007 8.88945 8.50265C8.87349 8.50441 8.7498 8.51587 8.58255 8.51587C8.39704 8.5164 8.15582 8.49965 7.96714 8.45319C7.77344 8.41034 7.66341 8.32967 7.66324 8.31909C7.53875 8.16754 7.44432 7.93099 7.39116 7.62356C7.30801 7.16282 7.32917 6.59451 7.30749 6.07963C7.29126 5.81752 7.27839 5.56819 7.16148 5.2739C7.10082 5.12878 7.00084 4.95995 6.82451 4.82409C6.65056 4.68629 6.41154 4.61681 6.21167 4.62052C6.17737 4.62052 6.14396 4.62378 6.11098 4.62845C6.07219 4.62158 6.03234 4.61743 5.9916 4.61743H2.58539C2.53205 4.61743 2.48038 4.62413 2.43039 4.63577C2.15902 4.67306 1.94063 4.77622 1.71492 4.90053C1.31368 5.13337 0.919047 5.47395 0.592039 5.90313C0.277726 6.32244 0.0164895 6.83652 0.00132491 7.44415C0.000972249 7.45711 9.05868e-05 7.46972 2.42058e-06 7.48259C-0.000350244 7.7008 0.0378257 7.92861 0.119291 8.1492C0.122994 8.16013 0.125992 8.17124 0.130224 8.18208C0.349846 8.74642 0.825856 9.19915 1.5512 9.53602V7.84371C1.49389 7.77459 1.46215 7.7149 1.44496 7.67073Z" fill="black"/>
</g>
<defs>
<clipPath id="clip0_3348_15026">
<rect width="24" height="20.1176" fill="white" transform="translate(0 0.941162)"/>
</clipPath>
</defs>
</svg>
