<svg width="24" height="24" viewBox="0 0 24 24" fill="none" xmlns="http://www.w3.org/2000/svg">
<g id="bus">
<path id="Vector" fill-rule="evenodd" clip-rule="evenodd" d="M6.10636 2.86877H17.3338C18.4475 2.86877 19.3588 3.7801 19.3588 4.89383V16.9914C19.3588 17.5502 18.9051 18.0039 18.3463 18.0039H5.094C4.53523 18.0039 4.08147 17.5502 4.08147 16.9914V4.89383C4.08147 3.7801 4.99263 2.86877 6.10636 2.86877ZM3.62027 7.91619H3.11392V9.93744C3.11392 10.2187 2.88522 10.4436 2.60774 10.4436C2.32646 10.4436 2.10156 10.2186 2.10156 9.93744V7.41001C2.10156 7.12873 2.32662 6.90383 2.60774 6.90383H3.62027V7.91619ZM19.8202 6.90383H20.8327C21.1102 6.90383 21.3391 7.12889 21.3391 7.41001V9.93744C21.3391 10.2187 21.1102 10.4436 20.8327 10.4436C20.5514 10.4436 20.3265 10.2186 20.3265 9.93744V7.91619H19.8204V6.90383H19.8202ZM15.2639 18.5438H18.3013V19.5564C18.3013 20.1151 17.8439 20.5689 17.2888 20.5689H16.2763C15.7175 20.5689 15.2637 20.1151 15.2637 19.5564V18.5438H15.2639ZM5.13898 18.5438H8.17655V19.5564C8.17655 20.1151 7.71899 20.5689 7.16403 20.5689H6.1515C5.59274 20.5689 5.13898 20.1151 5.13898 19.5564V18.5438ZM7.14518 13.935C7.70394 13.935 8.1577 14.3887 8.1577 14.9475C8.1577 15.5063 7.70394 15.96 7.14518 15.96C6.58641 15.96 6.13265 15.5063 6.13265 14.9475C6.13265 14.3887 6.58641 13.935 7.14518 13.935ZM16.2951 13.935C16.8539 13.935 17.3076 14.3887 17.3076 14.9475C17.3076 15.5063 16.8539 15.96 16.2951 15.96C15.7326 15.96 15.2826 15.5063 15.2826 14.9475C15.2826 14.3887 15.7327 13.935 16.2951 13.935ZM7.14518 4.87498H16.2951C16.8501 4.87498 17.3076 5.33237 17.3076 5.8875V11.4563C17.3076 11.7338 17.0789 11.9625 16.8015 11.9625H6.639C6.36152 11.9625 6.13282 11.7338 6.13282 11.4563V5.8875C6.13265 5.33254 6.59021 4.87498 7.14518 4.87498Z" fill="#2A2A2B"/>
</g>
</svg>
