<svg xmlns="http://www.w3.org/2000/svg" width="16" height="16" viewBox="0 0 16 16" fill="none">
  <path d="M14 12H4.66667C3.93333 12 3.33333 11.4 3.33333 10.6667V2.66667C3.33333 2.26667 3.06667 2 2.66667 2C2.26667 2 2 2.26667 2 2.66667V10.6667C2 12.1333 3.2 13.3333 4.66667 13.3333H14C14.4 13.3333 14.6667 13.0667 14.6667 12.6667C14.6667 12.2667 14.4 12 14 12Z" fill="#0CBB5E"/>
  <path d="M5.13333 9.80016L8.06667 6.86683L9.6 7.86683C9.86667 8.06683 10.2 8.00016 10.4667 7.80016L13.8 4.46683C14.0667 4.20016 14.0667 3.80016 13.8 3.5335C13.5333 3.26683 13.1333 3.26683 12.8667 3.5335L9.93333 6.46683L8.4 5.46683C8.13333 5.26683 7.8 5.3335 7.53333 5.5335L4.2 8.86683C3.93333 9.1335 3.93333 9.5335 4.2 9.80016C4.33333 9.9335 4.46667 10.0002 4.66667 10.0002C4.86667 10.0002 5 9.9335 5.13333 9.80016Z" fill="#0CBB5E"/>
</svg>