<svg width="64" height="57" viewBox="0 0 64 57" fill="none" xmlns="http://www.w3.org/2000/svg">
<path d="M39 37.0283H30C29.4696 37.0283 28.9609 36.8176 28.5858 36.4425C28.2107 36.0675 28 35.5588 28 35.0283V31.0283H30V35.0283H39V21.0283H30V25.0283H28V21.0283C28 20.4979 28.2107 19.9892 28.5858 19.6141C28.9609 19.239 29.4696 19.0283 30 19.0283H39C39.5304 19.0283 40.0391 19.239 40.4142 19.6141C40.7893 19.9892 41 20.4979 41 21.0283V35.0283C41 35.5588 40.7893 36.0675 40.4142 36.4425C40.0391 36.8176 39.5304 37.0283 39 37.0283ZM32 32.0283V29.0283H23V27.0283H32V24.0283L37 28.0283L32 32.0283Z" fill="#9D9D9D"/>
</svg>
