<svg width="64" height="57" viewBox="0 0 64 57" fill="none" xmlns="http://www.w3.org/2000/svg">
<path d="M33.8194 38.0283H30.1794C29.9513 38.0284 29.7301 37.9504 29.5524 37.8075C29.3747 37.6645 29.2512 37.4651 29.2024 37.2423L28.7954 35.3583C28.2525 35.1204 27.7376 34.8229 27.2604 34.4713L25.4234 35.0563C25.206 35.1257 24.9713 35.1185 24.7585 35.0361C24.5457 34.9537 24.3674 34.801 24.2534 34.6033L22.4294 31.4523C22.3165 31.2545 22.2742 31.0241 22.3092 30.7991C22.3443 30.574 22.4547 30.3675 22.6224 30.2133L24.0474 28.9133C23.9826 28.3244 23.9826 27.7302 24.0474 27.1413L22.6224 25.8443C22.4545 25.6901 22.3439 25.4834 22.3088 25.2581C22.2738 25.0328 22.3163 24.8023 22.4294 24.6043L24.2494 21.4513C24.3634 21.2536 24.5417 21.1009 24.7545 21.0185C24.9673 20.9361 25.202 20.929 25.4194 20.9983L27.2564 21.5833C27.5004 21.4033 27.7544 21.2353 28.0174 21.0833C28.2694 20.9413 28.5294 20.8123 28.7954 20.6973L29.2034 18.8153C29.252 18.5925 29.3752 18.393 29.5527 18.2499C29.7303 18.1067 29.9514 18.0286 30.1794 18.0283H33.8194C34.0474 18.0286 34.2685 18.1067 34.446 18.2499C34.6236 18.393 34.7468 18.5925 34.7954 18.8153L35.2074 20.6983C35.75 20.9362 36.2645 21.2337 36.7414 21.5853L38.5794 21.0003C38.7967 20.9312 39.0311 20.9385 39.2437 21.0209C39.4563 21.1033 39.6344 21.2558 39.7484 21.4533L41.5684 24.6063C41.8014 25.0133 41.7204 25.5283 41.3754 25.8453L39.9504 27.1453C40.0152 27.7342 40.0152 28.3284 39.9504 28.9173L41.3754 30.2173C41.7204 30.5353 41.8004 31.0493 41.5684 31.4563L39.7484 34.6093C39.6344 34.8068 39.4563 34.9594 39.2437 35.0418C39.0311 35.1241 38.7967 35.1314 38.5794 35.0623L36.7414 34.4773C36.2646 34.8288 35.7501 35.1259 35.2074 35.3633L34.7954 37.2423C34.7466 37.4649 34.6233 37.6642 34.4458 37.8072C34.2683 37.9501 34.0473 38.0281 33.8194 38.0283ZM27.6194 32.2573L28.4394 32.8573C28.6244 32.9933 28.8174 33.1183 29.0164 33.2323C29.2044 33.3413 29.3974 33.4393 29.5954 33.5283L30.5284 33.9373L30.9854 36.0283H33.0154L33.4724 33.9363L34.4054 33.5273C34.8124 33.3473 35.1994 33.1243 35.5584 32.8613L36.3794 32.2613L38.4204 32.9113L39.4354 31.1533L37.8524 29.7103L37.9644 28.6983C38.0144 28.2553 38.0144 27.8083 37.9644 27.3663L37.8524 26.3543L39.4364 24.9083L38.4204 23.1493L36.3794 23.7993L35.5584 23.1993C35.1992 22.935 34.8126 22.7101 34.4054 22.5283L33.4724 22.1193L33.0154 20.0283H30.9854L30.5264 22.1203L29.5954 22.5283C29.1876 22.7069 28.8009 22.9303 28.4424 23.1943L27.6214 23.7943L25.5814 23.1443L24.5644 24.9083L26.1474 26.3493L26.0354 27.3623C25.9854 27.8053 25.9854 28.2523 26.0354 28.6943L26.1474 29.7063L24.5644 31.1493L25.5794 32.9073L27.6194 32.2573ZM31.9954 32.0283C30.9345 32.0283 29.9171 31.6069 29.167 30.8567C28.4168 30.1066 27.9954 29.0892 27.9954 28.0283C27.9954 26.9675 28.4168 25.95 29.167 25.1999C29.9171 24.4497 30.9345 24.0283 31.9954 24.0283C33.0563 24.0283 34.0737 24.4497 34.8238 25.1999C35.574 25.95 35.9954 26.9675 35.9954 28.0283C35.9954 29.0892 35.574 30.1066 34.8238 30.8567C34.0737 31.6069 33.0563 32.0283 31.9954 32.0283ZM31.9954 26.0283C31.6038 26.0287 31.2208 26.1441 30.8942 26.3601C30.5675 26.5762 30.3115 26.8834 30.1578 27.2436C30.0041 27.6038 29.9596 28.0013 30.0298 28.3866C30.0999 28.7719 30.2817 29.1281 30.5524 29.4111C30.8232 29.694 31.1711 29.8913 31.553 29.9783C31.9348 30.0653 32.3338 30.0384 32.7005 29.9007C33.0671 29.763 33.3853 29.5207 33.6155 29.2039C33.8457 28.887 33.9778 28.5096 33.9954 28.1183V28.5183V28.0283C33.9954 27.4979 33.7847 26.9892 33.4096 26.6141C33.0345 26.239 32.5258 26.0283 31.9954 26.0283Z" fill="#9D9D9D"/>
</svg>
