<svg width="64" height="56" viewBox="0 0 64 56" fill="none" xmlns="http://www.w3.org/2000/svg">
<path d="M24 36V29H31L27.783 32.22C28.3325 32.7819 28.9884 33.2287 29.7124 33.5343C30.4364 33.8399 31.2141 33.9983 32 34C33.2393 33.9982 34.4475 33.6127 35.4589 32.8965C36.4702 32.1802 37.2349 31.1684 37.648 30H37.666C37.78 29.675 37.867 29.34 37.925 29H39.937C39.6934 30.9333 38.7527 32.7111 37.2913 34C35.83 35.2888 33.9485 36 32 36H31.99C30.9398 36.0032 29.8994 35.798 28.9291 35.3963C27.9588 34.9946 27.0777 34.4045 26.337 33.66L24 36ZM26.074 27H24.062C24.3055 25.0675 25.2456 23.2902 26.7062 22.0014C28.1667 20.7127 30.0472 20.0011 31.995 20H32C33.0504 19.9967 34.0909 20.2018 35.0615 20.6035C36.032 21.0052 36.9132 21.5954 37.654 22.34L40 20V27H33L36.222 23.78C35.672 23.2175 35.0153 22.7703 34.2903 22.4647C33.5654 22.1591 32.7867 22.0011 32 22C30.7607 22.0019 29.5525 22.3874 28.5411 23.1036C27.5298 23.8198 26.7651 24.8317 26.352 26H26.334C26.219 26.325 26.132 26.66 26.075 27H26.074Z" fill="#9D9D9D"/>
</svg>
