<svg width="22" height="22" viewBox="0 0 22 22" fill="none" xmlns="http://www.w3.org/2000/svg">
<path d="M11 20.7782C9.06609 20.7782 7.17566 20.2048 5.56771 19.1304C3.95976 18.056 2.70652 16.5289 1.96646 14.7422C1.2264 12.9556 1.03277 10.9896 1.41005 9.09289C1.78733 7.19619 2.71857 5.45395 4.08602 4.08651C5.45346 2.71906 7.1957 1.78782 9.0924 1.41054C10.9891 1.03326 12.9551 1.22689 14.7417 1.96695C16.5284 2.70701 18.0555 3.96025 19.1299 5.5682C20.2043 7.17614 20.7777 9.06658 20.7777 11.0004C20.7777 13.5937 19.7476 16.0807 17.9139 17.9144C16.0802 19.7481 13.5932 20.7782 11 20.7782ZM11 2.52433C9.32353 2.52433 7.68477 3.02144 6.29088 3.95281C4.89699 4.88418 3.81058 6.20796 3.16904 7.75677C2.52751 9.30558 2.35965 11.0098 2.68671 12.654C3.01376 14.2983 3.82103 15.8086 5.00643 16.994C6.19184 18.1794 7.70214 18.9866 9.34634 19.3137C10.9905 19.6407 12.6948 19.4729 14.2436 18.8313C15.7924 18.1898 17.1162 17.1034 18.0476 15.7095C18.9789 14.3156 19.4761 12.6769 19.4761 11.0004C19.4744 8.75293 18.5809 6.59794 16.9917 5.00871C15.4025 3.41948 13.2475 2.52595 11 2.52433Z" fill="#2A2A2B"/>
<path d="M8.45187 14.8564C8.23959 14.8578 8.0302 14.8073 7.84193 14.7092C7.65366 14.6111 7.49224 14.4685 7.37172 14.2938C7.2512 14.119 7.17525 13.9174 7.15049 13.7066C7.12573 13.4958 7.1529 13.2821 7.22964 13.0842L8.55575 9.66807C8.65437 9.41597 8.8041 9.18701 8.99551 8.9956C9.18692 8.80418 9.41588 8.65446 9.66798 8.55584L13.0841 7.24195C13.3198 7.14966 13.5773 7.12809 13.8251 7.17989C14.0728 7.23169 14.3001 7.3546 14.4791 7.53359C14.6581 7.71258 14.781 7.93988 14.8328 8.18765C14.8846 8.43542 14.863 8.69292 14.7708 8.92862L13.4446 12.3325C13.346 12.5846 13.1963 12.8136 13.0049 13.005C12.8135 13.1964 12.5845 13.3461 12.3324 13.4447L8.91631 14.7586C8.76884 14.8195 8.61138 14.8527 8.45187 14.8564ZM13.5546 8.44584L10.1385 9.77807C10.0537 9.8106 9.97673 9.8606 9.91251 9.92482C9.84828 9.98904 9.79829 10.066 9.76575 10.1508L8.45187 13.567L11.8619 12.2225C11.9467 12.19 12.0237 12.14 12.0879 12.0758C12.1521 12.0115 12.2021 11.9345 12.2346 11.8497L13.5546 8.44584Z" fill="#2A2A2B"/>
</svg>
