<svg width="10" height="10" viewBox="0 0 10 10" fill="none" xmlns="http://www.w3.org/2000/svg">
<g clip-path="url(#clip0_1205_7444)">
<path d="M8.63363 2.89033C8.8348 2.89033 8.97428 2.68697 8.89885 2.50049C8.63101 1.83837 7.98139 1.37002 7.22435 1.37002H6.87439C6.74388 0.680691 6.13947 0.134766 5.39988 0.134766H4.79172C4.0526 0.134766 3.44779 0.68033 3.3172 1.37002H2.96725C2.21021 1.37002 1.56058 1.83837 1.29275 2.50049C1.21732 2.68697 1.35679 2.89033 1.55796 2.89033H8.63363ZM4.79172 0.704883H5.39988C5.81608 0.704883 6.16938 0.984886 6.28832 1.37002H3.90328C4.02221 0.984886 4.37551 0.704883 4.79172 0.704883Z" fill="#181A20"/>
<path d="M2.34117 9.06984C2.37289 9.51533 2.74761 9.86428 3.19422 9.86428H6.99749C7.44411 9.86428 7.81883 9.51533 7.85055 9.06984L8.25008 3.45996H1.94165L2.34117 9.06984ZM5.87543 4.98504C5.8833 4.82781 6.01737 4.70654 6.17437 4.71458C6.33162 4.72245 6.45272 4.85629 6.44485 5.01351L6.29281 8.05414C6.28519 8.20653 6.15923 8.32496 6.00833 8.32496C5.84418 8.32496 5.71527 8.1877 5.72337 8.02567L5.87543 4.98504ZM4.01736 4.71458C4.1744 4.70669 4.30846 4.82782 4.31631 4.98504L4.46835 8.02567C4.47644 8.18777 4.34744 8.32496 4.18339 8.32496C4.03249 8.32496 3.90652 8.20653 3.8989 8.05414L3.74687 5.01351C3.73902 4.85629 3.86012 4.72245 4.01736 4.71458Z" fill="#181A20"/>
</g>
<defs>
<clipPath id="clip0_1205_7444">
<rect width="9.7305" height="9.73" fill="white" transform="translate(0.230469 0.134766)"/>
</clipPath>
</defs>
</svg>
