<svg width="14" height="15" viewBox="0 0 14 15" fill="none" xmlns="http://www.w3.org/2000/svg">
<path d="M6.58341 4.13683V6.8402L5.64004 6.08545C5.60126 6.05438 5.55305 6.03745 5.50335 6.03745C5.45366 6.03745 5.40545 6.05438 5.36666 6.08545L4.42316 6.8402V4.13683H6.58341ZM10.35 13.8308H0.65629V4.13683H3.98566V7.2952C3.98568 7.3364 3.99733 7.37675 4.01927 7.41162C4.04121 7.44648 4.07255 7.47445 4.10968 7.49229C4.14681 7.51013 4.18822 7.51712 4.22915 7.51246C4.27008 7.5078 4.30887 7.49168 4.34104 7.46595L5.50354 6.53633L6.66604 7.46608C6.69821 7.49181 6.73699 7.50793 6.77793 7.51259C6.81886 7.51725 6.86027 7.51025 6.8974 7.49241C6.93453 7.47457 6.96587 7.44661 6.98781 7.41174C7.00975 7.37687 7.0214 7.33652 7.02141 7.29533V4.13683H10.35V13.8308ZM10.6958 1.79533L9.25667 0.772077C9.20939 0.738477 9.1507 0.725033 9.09352 0.734703C9.03633 0.744373 8.98533 0.776364 8.95173 0.823639C8.91813 0.870914 8.90468 0.9296 8.91435 0.986787C8.92402 1.04397 8.95602 1.09498 9.00329 1.12858L9.88416 1.75495H1.12266L2.00354 1.12858C2.02747 1.11215 2.04789 1.09111 2.06361 1.06671C2.07934 1.04231 2.09004 1.01502 2.09511 0.986435C2.10018 0.957852 2.09951 0.928545 2.09314 0.900224C2.08676 0.871903 2.07482 0.845133 2.058 0.821475C2.04117 0.797817 2.01981 0.777744 1.99515 0.762426C1.97049 0.747108 1.94303 0.736851 1.91437 0.732253C1.8857 0.727656 1.85641 0.728809 1.8282 0.735646C1.79999 0.742483 1.77342 0.754867 1.75004 0.772077L0.31079 1.79533C0.282334 1.81553 0.25913 1.84226 0.243118 1.87327C0.227105 1.90428 0.21875 1.93868 0.21875 1.97358C0.21875 2.00848 0.227105 2.04287 0.243118 2.07388C0.25913 2.10489 0.282334 2.13162 0.31079 2.15183L1.75004 3.17495C1.77342 3.19216 1.79999 3.20455 1.8282 3.21138C1.85641 3.21822 1.8857 3.21937 1.91437 3.21477C1.94303 3.21018 1.97049 3.19992 1.99515 3.1846C2.01981 3.16928 2.04117 3.14921 2.058 3.12555C2.07482 3.1019 2.08676 3.07513 2.09314 3.0468C2.09951 3.01848 2.10018 2.98918 2.09511 2.96059C2.09004 2.93201 2.07934 2.90472 2.06361 2.88032C2.04789 2.85591 2.02747 2.83488 2.00354 2.81845L1.12254 2.19233H9.88404L9.00304 2.81883C8.97864 2.83507 8.95776 2.85605 8.94163 2.88052C8.9255 2.90499 8.91445 2.93246 8.90914 2.96128C8.90383 2.99011 8.90437 3.01971 8.91072 3.04832C8.91707 3.07693 8.92911 3.10398 8.94612 3.12785C8.96313 3.15172 8.98476 3.17193 9.00973 3.18728C9.0347 3.20262 9.0625 3.2128 9.09148 3.21719C9.12046 3.22158 9.15003 3.22011 9.17842 3.21285C9.20682 3.2056 9.23347 3.19271 9.25679 3.17495L10.696 2.15158C10.7245 2.13137 10.7477 2.10464 10.7637 2.07363C10.7797 2.04262 10.7881 2.00823 10.7881 1.97333C10.7881 1.93843 10.7797 1.90403 10.7637 1.87302C10.7477 1.84201 10.7245 1.81528 10.696 1.79508L10.6958 1.79533ZM13.6894 12.4323C13.6422 12.3987 13.5835 12.3852 13.5263 12.3949C13.4691 12.4045 13.4181 12.4365 13.3844 12.4837L12.7579 13.3646V4.60308L13.3844 5.48408C13.418 5.53135 13.4691 5.56333 13.5263 5.57298C13.5835 5.58262 13.6422 5.56915 13.6895 5.53551C13.7368 5.50188 13.7687 5.45085 13.7784 5.39364C13.788 5.33643 13.7745 5.27773 13.7409 5.23045L12.7173 3.7912C12.6961 3.76424 12.669 3.74244 12.6381 3.72745C12.6072 3.71247 12.5734 3.70468 12.539 3.70468C12.5047 3.70468 12.4708 3.71247 12.44 3.72745C12.4091 3.74244 12.382 3.76424 12.3608 3.7912L11.3375 5.23058C11.3209 5.25398 11.309 5.28044 11.3026 5.30843C11.2962 5.33643 11.2954 5.36541 11.3002 5.39372C11.305 5.42204 11.3153 5.44914 11.3305 5.47346C11.3458 5.49779 11.3657 5.51888 11.3891 5.53551C11.4125 5.55215 11.439 5.56401 11.467 5.57043C11.495 5.57684 11.5239 5.57768 11.5522 5.57289C11.5806 5.5681 11.6077 5.55778 11.632 5.54252C11.6563 5.52726 11.6774 5.50736 11.694 5.48395L12.3204 4.60308V13.3646L11.694 12.4838C11.6774 12.4604 11.6563 12.4405 11.6319 12.4253C11.6076 12.41 11.5805 12.3997 11.5522 12.3949C11.5238 12.3902 11.4948 12.391 11.4668 12.3974C11.4388 12.4039 11.4124 12.4157 11.389 12.4324C11.3656 12.449 11.3457 12.4701 11.3304 12.4945C11.3152 12.5188 11.3049 12.5459 11.3001 12.5743C11.2953 12.6026 11.2962 12.6316 11.3026 12.6596C11.309 12.6876 11.3209 12.714 11.3375 12.7375L12.3609 14.1766C12.3811 14.205 12.4078 14.2282 12.4389 14.2442C12.4699 14.2603 12.5043 14.2686 12.5392 14.2686C12.5741 14.2686 12.6085 14.2603 12.6395 14.2442C12.6705 14.2282 12.6972 14.205 12.7174 14.1766L13.7409 12.7375C13.7576 12.714 13.7695 12.6876 13.7759 12.6596C13.7823 12.6316 13.7832 12.6026 13.7784 12.5742C13.7736 12.5459 13.7633 12.5188 13.748 12.4944C13.7327 12.4701 13.7128 12.449 13.6894 12.4323Z" fill="black"/>
</svg>