<svg xmlns="http://www.w3.org/2000/svg" width="25" height="24" viewBox="0 0 25 24" fill="none">
  <g clip-path="url(#clip0_7240_29541)">
    <path d="M21.0547 3.52031C18.7906 1.25625 15.7813 0 12.5797 0C9.37813 0 6.36875 1.25625 4.10469 3.52031C1.84063 5.78437 0.59375 8.80313 0.59375 12.0047C0.59375 15.2063 1.84063 18.2203 4.10469 20.4844C6.36875 22.7484 9.37813 24 12.5797 24C15.7813 24 18.7906 22.7484 21.0547 20.4844C23.3188 18.2203 24.5656 15.2063 24.5656 12C24.5656 8.79844 23.3188 5.78437 21.0547 3.52031ZM19.7281 19.1578C17.8203 21.0656 15.2797 22.1203 12.575 22.1203C7.00156 22.1156 2.46875 17.5781 2.46875 12.0047C2.46875 9.30469 3.51875 6.76406 5.43125 4.85625C7.34375 2.94844 9.87969 1.89375 12.5844 1.89375C18.1625 1.89375 22.6953 6.43125 22.6953 12.0047C22.6906 14.7047 21.6406 17.2453 19.7281 19.1578Z" fill="#FD9D34"/>
    <path d="M13.0625 11.0625C11.5063 10.4578 11.0047 9.99375 11.0047 9.14531C11.0047 8.49375 11.4875 7.72969 12.8516 7.72969C13.3531 7.72969 13.8406 7.81406 14.3047 7.98281C14.5297 8.0625 14.7735 8.05313 14.9891 7.95C15.2047 7.84688 15.3641 7.66406 15.4391 7.43906C15.5938 6.98437 15.35 6.4875 14.9 6.32812C14.4078 6.15469 13.8547 6.05625 13.25 6.02813V5.20312C13.25 4.6875 12.8281 4.26562 12.3125 4.26562C11.7969 4.26562 11.375 4.6875 11.375 5.20312V6.24844C10.8969 6.40313 10.475 6.6375 10.1141 6.94687C9.41564 7.54687 9.03126 8.38594 9.03126 9.31406C9.03126 10.1344 9.32189 10.8469 9.89845 11.4281C10.4094 11.9438 11.1453 12.3656 12.1531 12.7219C13.5828 13.2703 14.0891 13.7906 14.0891 14.7C14.0891 15.7172 13.2922 16.35 12.0078 16.35C11.2297 16.35 10.5641 16.1391 10.1469 15.9609C9.9172 15.8625 9.6547 15.8672 9.42501 15.975C9.20001 16.0781 9.03126 16.275 8.96095 16.5141L8.95626 16.5234C8.82501 16.9547 9.04064 17.4141 9.45783 17.5875C10.0297 17.8266 10.7328 17.9859 11.4219 18.0375V18.8438C11.4219 19.3594 11.8438 19.7812 12.3594 19.7812C12.875 19.7812 13.2969 19.3594 13.2969 18.8438V17.9062C13.9813 17.7422 14.5719 17.4469 15.0266 17.0344C15.7063 16.4203 16.0813 15.5484 16.0813 14.5875C16.0813 12.9328 15.1766 11.8781 13.0625 11.0625Z" fill="#FD9D34"/>
  </g>
  <defs>
    <clipPath id="clip0_7240_29541">
      <rect width="24" height="24" fill="white" transform="translate(0.5)"/>
    </clipPath>
  </defs>
</svg>