<svg width="23" height="26" viewBox="0 0 23 26" fill="none" xmlns="http://www.w3.org/2000/svg">
<path d="M11.5011 10.7998C10.3966 10.7998 9.50023 11.7731 9.50023 12.9737C9.50023 14.1743 10.3966 15.1476 11.5011 15.1476C12.6057 15.1476 13.5002 14.1743 13.5002 12.9737C13.5002 11.7731 12.6057 10.7998 11.5011 10.7998ZM5.13751 10.7998C4.03296 10.7998 3.1366 11.7731 3.1366 12.9737C3.1366 14.1743 4.03296 15.1476 5.13751 15.1476C6.24205 15.1476 7.1366 14.1733 7.1366 12.9737C7.1366 11.7741 6.24205 10.7998 5.13751 10.7998ZM17.8648 10.7998C16.7602 10.7998 15.8639 11.7731 15.8639 12.9737C15.8639 14.1743 16.7602 15.1476 17.8648 15.1476C18.9693 15.1476 19.8639 14.1743 19.8639 12.9737C19.8639 11.7731 18.9693 10.7998 17.8648 10.7998Z" fill="black"/>
<mask id="mask0_1202_10801" style="mask-type:alpha" maskUnits="userSpaceOnUse" x="3" y="10" width="17" height="6">
<path d="M11.5011 10.7998C10.3966 10.7998 9.50023 11.7731 9.50023 12.9737C9.50023 14.1743 10.3966 15.1476 11.5011 15.1476C12.6057 15.1476 13.5002 14.1743 13.5002 12.9737C13.5002 11.7731 12.6057 10.7998 11.5011 10.7998ZM5.13751 10.7998C4.03296 10.7998 3.1366 11.7731 3.1366 12.9737C3.1366 14.1743 4.03296 15.1476 5.13751 15.1476C6.24205 15.1476 7.1366 14.1733 7.1366 12.9737C7.1366 11.7741 6.24205 10.7998 5.13751 10.7998ZM17.8648 10.7998C16.7602 10.7998 15.8639 11.7731 15.8639 12.9737C15.8639 14.1743 16.7602 15.1476 17.8648 15.1476C18.9693 15.1476 19.8639 14.1743 19.8639 12.9737C19.8639 11.7731 18.9693 10.7998 17.8648 10.7998Z" fill="#737781"/>
</mask>
<g mask="url(#mask0_1202_10801)">
<rect y="0.572266" width="23" height="25" fill="black"/>
</g>
</svg>
