<svg width="11" height="10" viewBox="0 0 11 10" fill="none" xmlns="http://www.w3.org/2000/svg">
<g clip-path="url(#clip0_1205_7436)">
<path d="M6.41394 1.61719L1.11253 6.91833L0.511651 9.36524C0.477993 9.50224 0.518397 9.64684 0.618154 9.74659C0.718234 9.84666 0.862937 9.88661 0.999525 9.85309L3.44657 9.25224L8.74799 3.9511L6.41394 1.61719ZM1.27686 9.08791L1.48347 8.24659L2.11823 8.88132L1.27686 9.08791Z" fill="#181A20"/>
<path d="M10.0519 1.78465L8.58065 0.31344C8.3424 0.0752074 7.95615 0.0752074 7.7179 0.31344L7.13208 0.899236L9.4661 3.23314L10.0519 2.64735C10.2902 2.40913 10.2902 2.02288 10.0519 1.78465Z" fill="#181A20"/>
</g>
<defs>
<clipPath id="clip0_1205_7436">
<rect width="9.7305" height="9.73" fill="white" transform="translate(0.5 0.134766)"/>
</clipPath>
</defs>
</svg>
