<svg width="22" height="23" viewBox="0 0 22 23" fill="none" xmlns="http://www.w3.org/2000/svg">
<g clip-path="url(#clip0_474_4856)">
<path d="M16.8644 20.3002H5.13563C4.46096 20.3011 3.79273 20.1689 3.16924 19.9111C2.54575 19.6533 1.97924 19.2751 1.50218 18.798C1.02511 18.321 0.646856 17.7545 0.389088 17.131C0.131319 16.5075 -0.000900382 15.8392 4.61452e-06 15.1646V7.83582C-0.000900382 7.16115 0.131319 6.49293 0.389088 5.86944C0.646856 5.24594 1.02511 4.67944 1.50218 4.20237C1.97924 3.7253 2.54575 3.34705 3.16924 3.08928C3.79273 2.83151 4.46096 2.69929 5.13563 2.7002H16.8644C17.5391 2.69929 18.2073 2.83151 18.8308 3.08928C19.4543 3.34705 20.0208 3.7253 20.4978 4.20237C20.9749 4.67944 21.3532 5.24594 21.6109 5.86944C21.8687 6.49293 22.0009 7.16115 22 7.83582V15.1646C22.0009 15.8392 21.8687 16.5075 21.6109 17.131C21.3532 17.7545 20.9749 18.321 20.4978 18.798C20.0208 19.2751 19.4543 19.6533 18.8308 19.9111C18.2073 20.1689 17.5391 20.3011 16.8644 20.3002ZM5.13563 4.16457C4.16378 4.16457 3.23173 4.55064 2.54453 5.23785C1.85732 5.92505 1.47125 6.8571 1.47125 7.82895V15.1646C1.47125 16.1364 1.85732 17.0685 2.54453 17.7557C3.23173 18.4429 4.16378 18.829 5.13563 18.8289H16.8644C17.8362 18.8289 18.7683 18.4429 19.4555 17.7557C20.1427 17.0685 20.5288 16.1364 20.5288 15.1646V7.83582C20.5288 6.86397 20.1427 5.93192 19.4555 5.24472C18.7683 4.55752 17.8362 4.17145 16.8644 4.17145L5.13563 4.16457Z" fill="#181A20"/>
<path d="M11.0002 11.1841C9.62795 11.1822 8.27901 10.8296 7.08141 10.1597L4.04266 8.47533C3.94176 8.44069 3.8496 8.38452 3.77258 8.31072C3.69555 8.23691 3.6355 8.14724 3.59659 8.04791C3.55767 7.94858 3.54083 7.84198 3.54722 7.73549C3.55361 7.62901 3.58309 7.52519 3.6336 7.43123C3.68412 7.33727 3.75447 7.25542 3.83977 7.19136C3.92507 7.12729 4.02328 7.08255 4.1276 7.06023C4.23191 7.03791 4.33984 7.03854 4.44388 7.06209C4.54793 7.08563 4.64561 7.13152 4.73015 7.19658L7.76891 8.88783C8.74778 9.4358 9.85084 9.72354 10.9727 9.72354C12.0945 9.72354 13.1975 9.4358 14.1764 8.88783L17.2152 7.19658C17.2997 7.13152 17.3974 7.08563 17.5014 7.06209C17.6055 7.03854 17.7134 7.03791 17.8177 7.06023C17.922 7.08255 18.0202 7.12729 18.1055 7.19136C18.1908 7.25542 18.2612 7.33727 18.3117 7.43123C18.3622 7.52519 18.3917 7.62901 18.3981 7.73549C18.4045 7.84198 18.3876 7.94858 18.3487 8.04791C18.3098 8.14724 18.2498 8.23691 18.1727 8.31072C18.0957 8.38452 18.0036 8.44069 17.9027 8.47533L14.9189 10.1597C13.7213 10.8296 12.3724 11.1822 11.0002 11.1841Z" fill="#181A20"/>
</g>
<defs>
<clipPath id="clip0_474_4856">
<rect width="22" height="22" fill="white" transform="translate(0 0.5)"/>
</clipPath>
</defs>
</svg>
