<svg width="24" height="25" viewBox="0 0 24 25" fill="none" xmlns="http://www.w3.org/2000/svg">
<g id="Email" clip-path="url(#clip0_5202_20262)">
<path id="Vector" d="M21.1184 5.94092H2.87844C2.61444 5.94092 2.39844 6.15692 2.39844 6.42092V18.4209C2.39844 18.6849 2.61444 18.9009 2.87844 18.9009H21.1184C21.3824 18.9009 21.5984 18.6849 21.5984 18.4209V6.42092C21.5984 6.15692 21.3824 5.94092 21.1184 5.94092ZM19.9664 6.90092L11.9984 14.8689L4.03044 6.90092H19.9664ZM3.35844 7.57292L8.20644 12.4209L3.35844 17.2689V7.57292ZM4.05444 17.9409L8.87844 13.1169L11.6624 15.9009C11.8544 16.0929 12.1424 16.0929 12.3344 15.9009L15.1184 13.1169L19.9424 17.9409H4.05444ZM20.6384 17.2689L15.7904 12.4209L20.6384 7.57292V17.2689Z" fill="#5D5D5D"/>
<path id="Vector_2" d="M192.963 -121.979V282.181H-235.197V-121.979H192.963ZM194.883 -123.899H-237.117V284.101H194.883V-123.899Z" fill="#0000FF"/>
</g>
<defs>
<clipPath id="clip0_5202_20262">
<rect width="24" height="24" fill="white" transform="translate(0 0.420898)"/>
</clipPath>
</defs>
</svg>
