<svg width="20" height="20" viewBox="0 0 20 20" fill="none" xmlns="http://www.w3.org/2000/svg">
<g id="expand 1">
<path id="Vector" d="M8.21875 1.11108H11.7743V2.29442H8.21875V1.11108Z" fill="#2A2A2B"/>
<path id="Vector_2" d="M17.7089 17.1111C17.7089 17.2688 17.6462 17.42 17.5347 17.5314C17.4233 17.6429 17.2721 17.7056 17.1144 17.7056H14.7422V18.8889H17.1144C17.5859 18.8889 18.0381 18.7016 18.3715 18.3682C18.7049 18.0348 18.8922 17.5826 18.8922 17.1111V14.7389H17.7089V17.1111Z" fill="#2A2A2B"/>
<path id="Vector_3" d="M17.1144 1.11108H14.7422V2.29442H17.1144C17.1925 2.29442 17.2698 2.30979 17.3419 2.33967C17.414 2.36954 17.4795 2.41333 17.5347 2.46853C17.5899 2.52373 17.6337 2.58926 17.6636 2.66138C17.6935 2.7335 17.7089 2.8108 17.7089 2.88886V5.26108H18.8922V2.88886C18.8922 2.41737 18.7049 1.96518 18.3715 1.63178C18.0381 1.29838 17.5859 1.11108 17.1144 1.11108Z" fill="#2A2A2B"/>
<path id="Vector_4" d="M2.29271 2.88886C2.29271 2.8108 2.30808 2.7335 2.33796 2.66138C2.36783 2.58926 2.41162 2.52373 2.46682 2.46853C2.52202 2.41333 2.58755 2.36954 2.65967 2.33967C2.73179 2.30979 2.80909 2.29442 2.88715 2.29442H5.25938V1.11108H2.88715C2.41566 1.11108 1.96347 1.29838 1.63007 1.63178C1.29668 1.96518 1.10938 2.41737 1.10938 2.88886V5.26108H2.29271V2.88886Z" fill="#2A2A2B"/>
<path id="Vector_5" d="M17.7031 8.22217H18.8865V11.7777H17.7031V8.22217Z" fill="#2A2A2B"/>
<path id="Vector_6" d="M14.7372 9.40562V5.85006C14.7372 5.6924 14.6745 5.5412 14.563 5.42972C14.4516 5.31824 14.3004 5.25562 14.1427 5.25562H10.5872V6.4445H12.7094L9.57049 9.58339C9.33336 9.46769 9.07321 9.40693 8.80937 9.40562H2.88715C2.68407 9.40799 2.48294 9.44558 2.29271 9.51673V8.22228H1.10938V17.1112C1.10938 17.5827 1.29668 18.0349 1.63007 18.3682C1.96347 18.7016 2.41566 18.8889 2.88715 18.8889H11.776V17.7056H10.4816C10.5527 17.5154 10.5903 17.3143 10.5927 17.1112V11.1834C10.5914 10.9196 10.5306 10.6594 10.4149 10.4223L13.5538 7.28339V9.40562H14.7372ZM2.88715 17.7056C2.7295 17.7056 2.5783 17.643 2.46682 17.5315C2.35534 17.42 2.29271 17.2688 2.29271 17.1112V11.1834C2.29417 11.0267 2.35745 10.8769 2.46877 10.7666C2.58009 10.6564 2.73045 10.5945 2.88715 10.5945H8.81493C8.97259 10.5945 9.12379 10.6571 9.23527 10.7686C9.34675 10.8801 9.40938 11.0313 9.40938 11.1889V17.1112C9.40938 17.2688 9.34675 17.42 9.23527 17.5315C9.12379 17.643 8.97259 17.7056 8.81493 17.7056H2.88715Z" fill="#2A2A2B"/>
</g>
</svg>
