<svg xmlns="http://www.w3.org/2000/svg" width="17" height="16" viewBox="0 0 17 16" fill="none">
  <path fill-rule="evenodd" clip-rule="evenodd" d="M7.48028 8.83073C7.75868 8.64545 7.92578 8.33313 7.92578 7.99873C7.92578 7.66433 7.75868 7.35201 7.48028 7.16673C6.37718 6.43137 4.08578 4.90369 2.88188 4.10081C2.57498 3.89633 2.18048 3.87745 1.85528 4.05121C1.53008 4.22529 1.32698 4.56417 1.32698 4.93313C1.32698 6.47265 1.32698 9.52481 1.32698 11.0643C1.32698 11.4333 1.53008 11.7722 1.85528 11.9463C2.18048 12.12 2.57498 12.1011 2.88188 11.8967L7.48028 8.83073ZM2.32718 11.0643L6.92558 7.99873L2.32718 4.93313L2.32718 11.0643ZM15.2303 8.83073C15.5087 8.64545 15.6758 8.33313 15.6758 7.99873C15.6758 7.66433 15.5087 7.35201 15.2303 7.16673C14.1272 6.43137 11.8358 4.90369 10.6319 4.10081C10.325 3.89633 9.93048 3.87745 9.60528 4.05121C9.28008 4.22529 9.07698 4.56417 9.07698 4.93313C9.07698 6.47265 9.07698 9.52481 9.07698 11.0643C9.07698 11.4333 9.28008 11.7722 9.60528 11.9463C9.93048 12.12 10.325 12.1011 10.6319 11.8967L15.2303 8.83073ZM10.0772 11.0643L14.6756 7.99873L10.0772 4.93313L10.0772 11.0643Z" fill="#E9EBF8"/>
</svg>