<svg width="15" height="12" viewBox="0 0 15 12" fill="none" xmlns="http://www.w3.org/2000/svg">
<path d="M4.79168 0.496953C3.70258 0.497585 2.69454 0.84459 1.96366 1.52868C1.23254 2.21233 0.792022 3.22933 0.791962 4.49722C0.792055 5.82738 1.72717 7.06405 2.9947 8.27848C4.26224 9.49292 5.8928 10.6912 7.38566 11.9349C7.47366 12.0053 7.6103 12.0049 7.69793 11.9347C9.19025 10.6915 10.817 9.48904 12.0886 8.27855C13.3602 7.06807 14.3074 5.84167 14.3074 4.49762C14.3075 3.21583 13.8514 2.20892 13.1198 1.52862C12.3885 0.848066 11.395 0.49732 10.3072 0.497202C9.18806 0.496728 8.24259 1.20311 7.54163 1.919C6.84392 1.20754 5.90812 0.496695 4.79168 0.496953Z" fill="#FD4034"/>
</svg>
