<svg width="18" height="21" viewBox="0 0 18 21" fill="none" xmlns="http://www.w3.org/2000/svg">
<path d="M10.855 5.16824V1.46777C10.9106 1.51415 10.9663 1.56979 11.0126 1.61616L16.2619 6.86545C16.3083 6.91182 16.364 6.96747 16.4103 7.02312H12.7099C12.2184 7.02165 11.7474 6.82575 11.3999 6.47821C11.0523 6.13068 10.8564 5.65973 10.855 5.16824Z" fill="#FE8501"/>
<path d="M17.2915 8.87817H12.71C11.7261 8.87817 10.7825 8.48733 10.0868 7.79162C9.39109 7.0959 9.00024 6.15232 9.00024 5.16843V0.586896C8.7983 0.549991 8.59343 0.531367 8.38814 0.53125H3.43563C2.69771 0.53125 1.99002 0.824385 1.46824 1.34617C0.946456 1.86795 0.65332 2.57564 0.65332 3.31356V18.1525C0.65332 18.8904 0.946456 19.5981 1.46824 20.1199C1.99002 20.6417 2.69771 20.9348 3.43563 20.9348H14.5649C15.3028 20.9348 16.0105 20.6417 16.5322 20.1199C17.054 19.5981 17.3472 18.8904 17.3472 18.1525V9.49028C17.3471 9.28499 17.3284 9.08012 17.2915 8.87817ZM4.36306 12.5879H8.07281C8.31878 12.5879 8.55468 12.6856 8.7286 12.8596C8.90253 13.0335 9.00024 13.2694 9.00024 13.5154C9.00024 13.7613 8.90253 13.9972 8.7286 14.1711C8.55468 14.3451 8.31878 14.4428 8.07281 14.4428H4.36306C4.11709 14.4428 3.8812 14.3451 3.70727 14.1711C3.53334 13.9972 3.43563 13.7613 3.43563 13.5154C3.43563 13.2694 3.53334 13.0335 3.70727 12.8596C3.8812 12.6856 4.11709 12.5879 4.36306 12.5879ZM13.6374 18.1525H4.36306C4.11709 18.1525 3.8812 18.0548 3.70727 17.8809C3.53334 17.707 3.43563 17.4711 3.43563 17.2251C3.43563 16.9791 3.53334 16.7432 3.70727 16.5693C3.8812 16.3954 4.11709 16.2977 4.36306 16.2977H13.6374C13.8834 16.2977 14.1193 16.3954 14.2932 16.5693C14.4671 16.7432 14.5649 16.9791 14.5649 17.2251C14.5649 17.4711 14.4671 17.707 14.2932 17.8809C14.1193 18.0548 13.8834 18.1525 13.6374 18.1525Z" fill="#FE8501"/>
</svg>
