<svg width="23" height="23" viewBox="0 0 23 23" fill="none" xmlns="http://www.w3.org/2000/svg">
<path d="M21.4 10.6189H20.322C19.7137 10.6189 19.222 11.0138 19.222 11.5C19.222 11.9851 19.7137 12.3789 20.322 12.3789H21.4C22.0072 12.3789 22.5 11.9862 22.5 11.5C22.5 11.0149 22.0061 10.6189 21.4 10.6189ZM11.5 5.45C10.7048 5.44753 9.91698 5.60233 9.18185 5.9055C8.44671 6.20867 7.77878 6.65421 7.2165 7.2165C6.65421 7.77878 6.20867 8.44671 5.9055 9.18185C5.60233 9.91698 5.44753 10.7048 5.45 11.5C5.45 14.8561 8.1439 17.55 11.5 17.55C14.855 17.55 17.55 14.8561 17.55 11.5C17.55 8.1439 14.8539 5.45 11.5 5.45ZM11.5 15.9C9.0679 15.9 7.1 13.9299 7.1 11.5C7.1 9.0679 9.0679 7.1 11.5 7.1V15.9ZM3.8 11.5C3.8 11.0149 3.3061 10.6189 2.7 10.6189H1.6C0.9917 10.6189 0.5 11.0138 0.5 11.5C0.5 11.9851 0.9917 12.3789 1.6 12.3789H2.7C3.3061 12.3789 3.8 11.9851 3.8 11.5ZM11.5 3.8C11.9851 3.8 12.3789 3.3083 12.3789 2.7V1.6C12.3789 0.9917 11.9851 0.5 11.5 0.5C11.0138 0.5 10.6189 0.9917 10.6189 1.6V2.7C10.6189 3.3083 11.0138 3.8 11.5 3.8ZM11.5 19.2C11.0138 19.2 10.6189 19.6917 10.6189 20.3V21.4C10.6189 22.0083 11.0138 22.5 11.5 22.5C11.9851 22.5 12.3789 22.0083 12.3789 21.4V20.3C12.3789 19.6917 11.9851 19.2 11.5 19.2ZM19.6015 4.6426C20.0316 4.2125 20.1009 3.5855 19.7577 3.2423C19.4145 2.8991 18.7864 2.9695 18.3585 3.3996L17.5885 4.1685C17.1584 4.5986 17.0891 5.2256 17.4323 5.5688C17.7755 5.912 18.4036 5.8416 18.8326 5.4115L19.6015 4.6426ZM4.1674 17.5863L3.3974 18.3574C2.9673 18.7875 2.898 19.4123 3.2412 19.7555C3.5844 20.0987 4.2125 20.0305 4.6404 19.6004L5.4104 18.8315C5.8405 18.4014 5.9098 17.7744 5.5666 17.4301C5.2234 17.0858 4.5953 17.1584 4.1674 17.5863ZM4.6415 3.3985C4.2125 2.9684 3.5844 2.898 3.2412 3.2412C2.898 3.5844 2.9684 4.2125 3.3963 4.6426L4.1663 5.4115C4.5964 5.8416 5.2223 5.912 5.5655 5.5688C5.9087 5.2256 5.8394 4.5975 5.4104 4.1685L4.6415 3.3985ZM17.5874 18.8326L18.3574 19.6015C18.7875 20.0316 19.4134 20.0998 19.7566 19.7588C20.0998 19.4156 20.0305 18.7875 19.6004 18.3585L18.8315 17.5896C18.4014 17.1595 17.7744 17.0891 17.4301 17.4323C17.0858 17.7755 17.1573 18.4025 17.5874 18.8326Z" fill="currentColor"/>
</svg>
