<svg width="16" height="15" viewBox="0 0 16 15" fill="none" xmlns="http://www.w3.org/2000/svg">
<path d="M15.3283 0.748047H0.672312C0.480312 0.748047 0.320312 0.908047 0.320312 1.10005V10.796C0.320312 10.988 0.480312 11.148 0.672312 11.148H15.3283C15.5203 11.148 15.6803 10.988 15.6803 10.796V1.10005C15.6803 0.908047 15.5203 0.748047 15.3283 0.748047ZM1.28031 1.70805H6.56031C5.40831 3.78805 2.49631 8.87605 1.95231 9.80405H1.28031V1.70805ZM6.97631 1.70805H7.93631C7.00831 3.37205 4.67231 7.46805 3.32831 9.80405H2.36831C3.16831 8.46005 5.95231 3.56405 6.97631 1.70805ZM8.83231 1.70805H9.56831C8.41631 3.78805 5.50431 8.87605 4.96031 9.80405H4.25631L8.83231 1.70805ZM7.93631 10.796C7.77631 10.796 7.61631 10.668 7.61631 10.508C7.61631 10.348 7.74431 10.22 7.93631 10.22C8.09631 10.22 8.22431 10.348 8.22431 10.508C8.22431 10.668 8.09631 10.796 7.93631 10.796ZM14.7203 9.80405H5.40831C6.17631 8.46005 8.96031 3.56405 9.98431 1.70805H14.7203V9.80405ZM9.63231 13.484H8.80031L9.40831 11.788H6.43231L7.04031 13.484H6.20831C5.98431 13.484 5.82431 13.644 5.82431 13.868C5.82431 14.092 5.98431 14.252 6.20831 14.252H9.63231C9.85631 14.252 10.0163 14.092 10.0163 13.868C10.0163 13.644 9.85631 13.484 9.63231 13.484Z" fill="black"/>
</svg>
