<svg width="16" height="15" viewBox="0 0 16 15" fill="none" xmlns="http://www.w3.org/2000/svg">
<path d="M14.9979 13.7571H14.2789V5.93066C14.2789 5.50011 14.0776 5.09733 13.7252 4.83344L12.8408 4.16677L12.8265 2.46539C12.8265 2.08344 12.5029 1.77789 12.1074 1.77789H9.65556L8.69206 1.05566C8.17436 0.659831 7.44096 0.659831 6.92326 1.05566L1.89007 4.83344C1.53775 5.09733 1.33642 5.50011 1.33642 5.92372L1.30047 13.7571H0.617395C0.322594 13.7571 0.078125 13.9932 0.078125 14.2779C0.078125 14.5626 0.322594 14.7987 0.617395 14.7987H14.9979C15.2927 14.7987 15.5372 14.5626 15.5372 14.2779C15.5372 13.9932 15.2927 13.7571 14.9979 13.7571ZM3.85301 7.85427V6.81261C3.85301 6.43066 4.17658 6.11816 4.57204 6.11816H6.01009C6.40556 6.11816 6.72912 6.43066 6.72912 6.81261V7.85427C6.72912 8.23622 6.40556 8.54872 6.01009 8.54872H4.57204C4.17658 8.54872 3.85301 8.23622 3.85301 7.85427ZM9.60523 13.7571H6.01009V11.8473C6.01009 11.2709 6.49184 10.8057 7.08863 10.8057H8.52669C9.12348 10.8057 9.60523 11.2709 9.60523 11.8473V13.7571ZM11.7623 7.85427C11.7623 8.23622 11.4387 8.54872 11.0433 8.54872H9.60523C9.20976 8.54872 8.8862 8.23622 8.8862 7.85427V6.81261C8.8862 6.43066 9.20976 6.11816 9.60523 6.11816H11.0433C11.4387 6.11816 11.7623 6.43066 11.7623 6.81261V7.85427Z" fill="#FE8501"/>
</svg>
