<svg width="26" height="24" viewBox="0 0 26 24" fill="none" xmlns="http://www.w3.org/2000/svg">
<g id="gym trainer" clip-path="url(#clip0_3348_14999)">
<path id="Vector" d="M7.19185 2.81299C7.47827 1.58002 6.7133 0.347722 5.48323 0.0605717C4.25316 -0.226579 3.02379 0.540159 2.73737 1.77313C2.45094 3.0061 3.21592 4.2384 4.44599 4.52555C5.67606 4.8127 6.90543 4.04596 7.19185 2.81299Z" fill="black"/>
<path id="Vector_2" d="M1.96808 7.1541C1.83399 6.90657 1.80421 6.6254 1.88279 6.35922C1.96117 6.09303 2.13857 5.87332 2.38184 5.74094C2.53331 5.65799 2.70461 5.61437 2.87652 5.61437C3.25367 5.61437 3.60155 5.81982 3.78434 6.15061C3.79135 6.16264 3.80091 6.17813 3.81483 6.19983C3.84513 6.24661 3.89647 6.32151 3.97098 6.41649C4.06126 6.53144 4.19331 6.68441 4.36807 6.85123C4.49341 5.92539 4.1067 4.94921 3.33734 4.75702C2.46947 4.54005 1.21143 5.0126 0.699575 6.50474C0.00778031 8.56064 -0.140948 9.8988 0.121944 12.1626C0.336649 13.2704 0.917939 13.7066 1.55962 13.8698C1.81854 14.7246 2.14141 16.1314 2.13908 17.8194C2.13887 19.1664 1.93809 20.6903 1.34969 22.283C1.10621 22.9428 1.442 23.6757 2.10014 23.92C2.24572 23.9741 2.39465 23.9996 2.54134 23.9996C3.05777 23.9996 3.5434 23.6817 3.7332 23.1678C4.44025 21.2538 4.68087 19.4201 4.68067 17.8195C4.67752 15.2668 4.07956 13.3034 3.75648 12.4246C3.61538 11.3672 3.73981 10.2035 3.92158 9.13306C3.73371 9.01128 3.56363 8.88868 3.41369 8.76996C2.51156 8.05823 2.0791 7.35323 1.96808 7.1541Z" fill="black"/>
<path id="Vector_3" d="M9.79066 8.2582C9.78151 8.25973 9.77237 8.26034 9.76311 8.26218C9.14004 8.38447 8.57776 8.43603 8.07007 8.43603C6.36575 8.43267 5.2663 7.86555 4.5557 7.31117C4.20223 7.03347 3.95194 6.75628 3.79427 6.55542C3.71538 6.45514 3.65977 6.37392 3.62633 6.32205C3.60955 6.29616 3.59827 6.27752 3.59237 6.26743C3.59156 6.2661 3.59085 6.26498 3.59024 6.26396C3.5881 6.25999 3.58749 6.25887 3.58749 6.25887C3.37116 5.86723 2.88014 5.72324 2.48753 5.93765C2.09289 6.15268 1.94681 6.64765 2.16151 7.04325H2.16131C2.19811 7.10929 2.60719 7.84945 3.5514 8.59389C4.48901 9.3367 5.98168 10.0668 8.05462 10.0668C8.05991 10.0668 8.06509 10.0668 8.07018 10.0668C8.68817 10.0668 9.35607 10.0036 10.0757 9.86224C10.3867 9.8013 10.6205 9.56997 10.7014 9.28411C10.3367 9.00376 10.0268 8.65554 9.79066 8.2582ZM24.3926 14.6582H19.9867C19.8058 14.1344 19.3858 13.6694 18.4883 13.4184C16.6771 13.0578 15.4514 13.0173 13.9298 13.2971V15.2531C13.9298 15.8264 13.4646 16.2928 12.8928 16.2928C12.3212 16.2928 11.8558 15.8264 11.8558 15.2531V13.9682C11.0531 14.5178 10.7566 15.3725 10.8668 16.0381C11.0091 16.8981 12.1257 17.3742 13.1362 17.2063H23.1522L23.288 22.7574C23.3047 23.4501 23.8704 24.0002 24.5576 24.0002C24.5683 24.0002 24.5788 24.0001 24.5895 23.9998C25.291 23.9825 25.8458 23.3985 25.8288 22.6951L25.6627 15.9011C25.6457 15.2093 25.0826 14.6582 24.3926 14.6582Z" fill="black"/>
<path id="Vector_4" d="M8.28305 17.3893C9.54252 17.2912 10.4843 16.1883 10.3865 14.9258C10.2887 13.6633 9.18839 12.7193 7.92892 12.8174C6.66944 12.9154 5.72771 14.0183 5.8255 15.2808C5.9233 16.5433 7.02358 17.4873 8.28305 17.3893Z" fill="black"/>
<path id="Vector_5" d="M22.2932 18.0383H5.77344V19.3631H22.2932V18.0383Z" fill="black"/>
<path id="Vector_6" d="M12.0841 15.253C12.0841 15.7033 12.448 16.0684 12.8973 16.0684C13.3465 16.0684 13.7108 15.7033 13.7108 15.253V9.93641C13.4491 9.99715 13.1771 10.0303 12.8973 10.0303C12.6176 10.0303 12.3456 9.99715 12.0841 9.93651V15.253ZM12.8975 9.64617C14.6789 9.64617 16.1232 8.19846 16.1232 6.41263C16.1232 4.62679 14.6789 3.17908 12.8975 3.17908C11.1162 3.17908 9.67188 4.62679 9.67188 6.41263C9.67188 8.19846 11.1162 9.64617 12.8975 9.64617ZM11.6201 6.41263C11.6201 5.70538 12.1919 5.13205 12.8975 5.13205C13.6032 5.13205 14.175 5.70538 14.175 6.41263C14.175 7.11987 13.6032 7.6932 12.8975 7.6932C12.1919 7.6932 11.6201 7.11987 11.6201 6.41263Z" fill="black"/>
<path id="Vector_7" d="M12.8956 7.37312C13.4248 7.37312 13.8538 6.94309 13.8538 6.41263C13.8538 5.88217 13.4248 5.45215 12.8956 5.45215C12.3665 5.45215 11.9375 5.88217 11.9375 6.41263C11.9375 6.94309 12.3665 7.37312 12.8956 7.37312Z" fill="black"/>
</g>
<defs>
<clipPath id="clip0_3348_14999">
<rect width="25.8305" height="24" fill="white"/>
</clipPath>
</defs>
</svg>
