<svg width="17" height="16" viewBox="0 0 17 16" fill="none" xmlns="http://www.w3.org/2000/svg">
<g clip-path="url(#clip0_3211_15419)">
<path d="M5.11951 2.30936C5.29693 1.54563 4.82309 0.782314 4.06115 0.604447C3.29922 0.426579 2.53772 0.901514 2.36031 1.66524C2.18289 2.42897 2.65673 3.19229 3.41867 3.37015C4.1806 3.54802 4.94209 3.07309 5.11951 2.30936Z" fill="black"/>
<path d="M1.88314 4.99819C1.80008 4.84486 1.78163 4.6707 1.83031 4.50582C1.87886 4.34094 1.98874 4.20485 2.13943 4.12285C2.23325 4.07146 2.33936 4.04445 2.44584 4.04445C2.67946 4.04445 2.89495 4.17171 3.00817 4.37661C3.01251 4.38406 3.01843 4.39365 3.02706 4.4071C3.04582 4.43607 3.07762 4.48247 3.12378 4.5413C3.1797 4.6125 3.2615 4.70725 3.36974 4.81059C3.44738 4.2371 3.20784 3.63244 2.73129 3.51338C2.19371 3.37899 1.41445 3.6717 1.09739 4.59596C0.668882 5.86943 0.576756 6.69832 0.739597 8.10056C0.872591 8.78678 1.23265 9.05696 1.63012 9.15802C1.79051 9.6875 1.9905 10.5589 1.98905 11.6045C1.98893 12.4389 1.86456 13.3828 1.50009 14.3694C1.34928 14.7781 1.55727 15.232 1.96494 15.3834C2.05511 15.4169 2.14736 15.4327 2.23823 15.4327C2.55812 15.4327 2.85893 15.2357 2.97649 14.9174C3.41445 13.7319 3.5635 12.596 3.56338 11.6046C3.56142 10.0234 3.19103 8.80724 2.99091 8.26285C2.90351 7.60788 2.98059 6.88706 3.09318 6.224C2.97681 6.14857 2.87146 6.07263 2.77858 5.99909C2.21978 5.55823 1.9519 5.12154 1.88314 4.99819Z" fill="black"/>
<path d="M6.73231 5.68232C6.72664 5.68327 6.72098 5.68365 6.71525 5.68478C6.3293 5.76053 5.98101 5.79247 5.66654 5.79247C4.61084 5.79039 3.92982 5.4391 3.48966 5.09571C3.27071 4.92369 3.11568 4.75199 3.01801 4.62758C2.96914 4.56546 2.9347 4.51515 2.91398 4.48302C2.90359 4.46699 2.8966 4.45544 2.89295 4.44919C2.89245 4.44837 2.892 4.44767 2.89163 4.44704C2.8903 4.44458 2.88993 4.44388 2.88993 4.44388C2.75593 4.2013 2.45178 4.1121 2.20859 4.24492C1.96414 4.37811 1.87365 4.6847 2.00664 4.92975H2.00652C2.02931 4.97066 2.2827 5.42913 2.86757 5.89025C3.44835 6.35036 4.37294 6.80259 5.65697 6.80259C5.66024 6.80259 5.66345 6.80259 5.6666 6.80259C6.0494 6.80259 6.46311 6.76345 6.90888 6.6759C7.10151 6.63815 7.24634 6.49485 7.29646 6.31779C7.07053 6.14414 6.87859 5.92844 6.73231 5.68232ZM15.7771 9.64665H13.048C12.9359 9.32219 12.6758 9.03415 12.1198 8.87868C10.9979 8.65528 10.2387 8.63022 9.29621 8.8035V10.0151C9.29621 10.3702 9.00806 10.6591 8.65385 10.6591C8.29977 10.6591 8.01149 10.3702 8.01149 10.0151V9.21923C7.51428 9.55966 7.33066 10.0891 7.39892 10.5014C7.48701 11.0341 8.17868 11.329 8.8046 11.2249H15.0088L15.0929 14.6635C15.1032 15.0925 15.4536 15.4333 15.8793 15.4333C15.8859 15.4333 15.8924 15.4332 15.899 15.433C16.3336 15.4223 16.6772 15.0606 16.6667 14.6249L16.5638 10.4165C16.5533 9.98796 16.2045 9.64665 15.7771 9.64665Z" fill="black"/>
<path d="M5.796 11.3382C6.57615 11.2775 7.15948 10.5943 7.0989 9.81228C7.03833 9.03026 6.35679 8.44553 5.57664 8.50626C4.7965 8.56698 4.21317 9.25016 4.27374 10.0322C4.33432 10.8142 5.01586 11.3989 5.796 11.3382Z" fill="black"/>
<path d="M14.4749 11.7402H4.24219V12.5608H14.4749V11.7402Z" fill="black"/>
<path d="M8.15041 10.015C8.15041 10.2939 8.37584 10.5201 8.65417 10.5201C8.93237 10.5201 9.15806 10.2939 9.15806 10.015V6.72178C8.99598 6.7594 8.82747 6.77991 8.65417 6.77991C8.48088 6.77991 8.31243 6.7594 8.15041 6.72184V10.015ZM8.6543 6.542C9.75773 6.542 10.6523 5.64526 10.6523 4.53907C10.6523 3.43288 9.75773 2.53613 8.6543 2.53613C7.55087 2.53613 6.65625 3.43288 6.65625 4.53907C6.65625 5.64526 7.55087 6.542 8.6543 6.542ZM7.86301 4.53907C7.86301 4.10098 8.21722 3.74585 8.6543 3.74585C9.09137 3.74585 9.44558 4.10098 9.44558 4.53907C9.44558 4.97715 9.09137 5.33228 8.6543 5.33228C8.21722 5.33228 7.86301 4.97715 7.86301 4.53907Z" fill="black"/>
<path d="M8.64818 5.13398C8.97596 5.13398 9.24168 4.86762 9.24168 4.53904C9.24168 4.21046 8.97596 3.94409 8.64818 3.94409C8.3204 3.94409 8.05469 4.21046 8.05469 4.53904C8.05469 4.86762 8.3204 5.13398 8.64818 5.13398Z" fill="black"/>
</g>
<defs>
<clipPath id="clip0_3211_15419">
<rect width="16" height="14.8661" fill="white" transform="translate(0.664062 0.566895)"/>
</clipPath>
</defs>
</svg>
