<svg xmlns="http://www.w3.org/2000/svg" width="25" height="24" viewBox="0 0 25 24" fill="none">
  <g clip-path="url(#clip0_7240_29534)">
    <path d="M8.76955 3.74494C7.1359 3.74589 5.62383 4.2664 4.52752 5.29253C3.43084 6.31801 2.77006 7.8435 2.76997 9.74535C2.77011 11.7406 4.17278 13.5956 6.07408 15.4172C7.97539 17.2389 10.4212 19.0363 12.6605 20.9018C12.7925 21.0075 12.9975 21.0069 13.1289 20.9016C15.3674 19.0368 17.8075 17.2331 19.7149 15.4173C21.6223 13.6016 23.0432 11.762 23.0431 9.74594C23.0433 7.82326 22.3592 6.3129 21.2617 5.29244C20.1648 4.27161 18.6746 3.74549 17.0429 3.74532C15.3641 3.7446 13.9459 4.80417 12.8945 5.87802C11.8479 4.81082 10.4442 3.74455 8.76955 3.74494Z" fill="#FD4034"/>
  </g>
  <defs>
    <clipPath id="clip0_7240_29534">
      <rect width="24" height="24" fill="white" transform="translate(0.5)"/>
    </clipPath>
  </defs>
</svg>