<svg xmlns="http://www.w3.org/2000/svg" width="22" height="22" viewBox="0 0 22 22" fill="none">
  <path d="M16.214 20.7778H5.78847C4.9251 20.7762 4.09755 20.4325 3.48705 19.822C2.87655 19.2115 2.53287 18.384 2.53125 17.5206V7.9445C2.53297 7.41093 2.666 6.88598 2.91858 6.41598C3.17117 5.94598 3.53555 5.54537 3.97958 5.2495L9.16792 1.77228C9.70815 1.40339 10.3471 1.20605 11.0013 1.20605C11.6554 1.20605 12.2944 1.40339 12.8346 1.77228L18.0474 5.2495C18.488 5.54746 18.8488 5.94898 19.0981 6.41885C19.3474 6.88872 19.4777 7.41258 19.4774 7.9445V17.5206C19.4757 18.385 19.1312 19.2135 18.5194 19.8242C17.9076 20.4349 17.0785 20.7778 16.214 20.7778ZM11.0013 2.52395C10.6161 2.52502 10.2398 2.63982 9.91958 2.85395L4.70069 6.33117C4.43494 6.50841 4.21681 6.74823 4.0655 7.02955C3.91418 7.31088 3.83431 7.62507 3.83292 7.9445V17.5206C3.83292 18.0393 4.03895 18.5367 4.40569 18.9034C4.77242 19.2701 5.26983 19.4762 5.78847 19.4762H16.214C16.7327 19.4762 17.2301 19.2701 17.5968 18.9034C17.9636 18.5367 18.1696 18.0393 18.1696 17.5206V7.9445C18.1702 7.623 18.0913 7.30634 17.9399 7.02272C17.7885 6.7391 17.5693 6.49733 17.3018 6.31895L12.0829 2.85395C11.7629 2.63949 11.3865 2.52465 11.0013 2.52395Z" fill="#2A2A2B"/>
  <path d="M8.39062 16.2129H13.6034V17.5146H8.39062V16.2129Z" fill="#2A2A2B"/>
</svg>