<svg xmlns="http://www.w3.org/2000/svg" width="16" height="16" viewBox="0 0 16 16" fill="none">
  <g clip-path="url(#clip0_6556_17971)">
    <path d="M4.66406 8.66659C5.77073 8.66659 6.66406 7.77325 6.66406 6.66659C6.66406 5.55992 5.77073 4.66659 4.66406 4.66659C3.5574 4.66659 2.66406 5.55992 2.66406 6.66659C2.66406 7.77325 3.5574 8.66659 4.66406 8.66659ZM12.6641 4.66659H8.66406C7.93073 4.66659 7.33073 5.26659 7.33073 5.99992V9.33325H1.9974V3.99992C1.9974 3.63325 1.6974 3.33325 1.33073 3.33325C0.964063 3.33325 0.664062 3.63325 0.664062 3.99992V12.6666C0.664062 13.0333 0.964063 13.3333 1.33073 13.3333C1.6974 13.3333 1.9974 13.0333 1.9974 12.6666V11.3333H13.9974V12.6666C13.9974 13.0333 14.2974 13.3333 14.6641 13.3333C15.0307 13.3333 15.3307 13.0333 15.3307 12.6666V7.33325C15.3307 5.85992 14.1374 4.66659 12.6641 4.66659Z" fill="#181A20"/>
  </g>
  <defs>
    <clipPath id="clip0_6556_17971">
      <rect width="16" height="16" fill="white"/>
    </clipPath>
  </defs>
</svg>