<svg width="48" height="48" viewBox="0 0 48 48" fill="none" xmlns="http://www.w3.org/2000/svg">
<g id="Hotel" clip-path="url(#clip0_4667_20629)">
<g id="Clip path group">
<mask id="mask0_4667_20629" style="mask-type:luminance" maskUnits="userSpaceOnUse" x="0" y="0" width="48" height="48">
<g id="a">
<path id="Vector" d="M0 0H48V48H0V0Z" fill="white"/>
</g>
</mask>
<g mask="url(#mask0_4667_20629)">
<g id="Group">
<path id="Vector_2" d="M27.788 20.2106C27.788 21.5506 27.2557 22.8357 26.3082 23.7833C25.3606 24.7309 24.0754 25.2632 22.7354 25.2632H6.31435C4.97431 25.2632 3.68915 24.7309 2.7416 23.7833C1.79405 22.8357 1.26172 21.5506 1.26172 20.2106V16.4211C1.26172 15.081 1.79405 13.7959 2.7416 12.8483C3.68915 11.9008 4.97431 11.3684 6.31435 11.3684H22.7354C24.0754 11.3684 25.3606 11.9008 26.3082 12.8483C27.2557 13.7959 27.788 15.081 27.788 16.4211V20.2106Z" fill="#C1694F"/>
<path id="Vector_3" d="M46.7358 8.8419C46.7358 10.1819 46.2035 11.4671 45.2559 12.4146C44.3084 13.3622 43.0232 13.8945 41.6832 13.8945H26.5253C25.1852 13.8945 23.9001 13.3622 22.9525 12.4146C22.005 11.4671 21.4727 10.1819 21.4727 8.8419V7.57874C21.4727 6.2387 22.005 4.95354 22.9525 4.00599C23.9001 3.05844 25.1852 2.52611 26.5253 2.52611H41.6832C43.0232 2.52611 44.3084 3.05844 45.2559 4.00599C46.2035 4.95354 46.7358 6.2387 46.7358 7.57874V8.8419Z" fill="#C1694F"/>
<path id="Vector_4" d="M1.26172 16.421V44.2105C1.26172 44.8805 1.52788 45.5231 2.00166 45.9969C2.47544 46.4707 3.11801 46.7368 3.78803 46.7368H42.9459V16.421H1.26172Z" fill="#FFCC4D"/>
<path id="Vector_5" d="M18.947 46.7368H3.78906V41.6842H18.947V46.7368ZM23.9996 39.1579H3.78906V34.1052H23.9996V39.1579Z" fill="#55ACEE"/>
<path id="Vector_6" d="M21.4727 7.57892V46.7368H44.2095C44.8795 46.7368 45.5221 46.4707 45.9959 45.9969C46.4697 45.5231 46.7358 44.8805 46.7358 44.2105V7.57892H21.4727Z" fill="#FFE8B6"/>
<path id="Vector_7" d="M44.2105 31.579H24V26.5264H44.2105V31.579ZM44.2105 24.0001H24V18.9474H44.2105V24.0001ZM44.2105 16.4211H24V11.3685H44.2105V16.4211ZM44.2105 39.158H24V34.1053H44.2105V39.158Z" fill="#55ACEE"/>
<path id="Vector_8" d="M31.5771 40.4211H29.0508V10.1054H31.5771V40.4211ZM39.156 40.4211H36.6297V10.1054H39.156V40.4211Z" fill="#FFE8B6"/>
<path id="Vector_9" d="M39.1546 46.7368H29.0493V41.6842H39.1546V46.7368ZM13.8914 18.9473V24H8.83882V18.9473H6.3125V31.5789H8.83882V26.5263H13.8914V31.5789H16.4178V18.9473H13.8914Z" fill="#3B88C3"/>
<path id="Vector_10" d="M12.6318 40.4211H10.1055V32.8422H12.6318V40.4211ZM21.4739 40.4211H18.9476V32.8422H21.4739V40.4211Z" fill="#FFCC4D"/>
</g>
</g>
</g>
</g>
<defs>
<clipPath id="clip0_4667_20629">
<rect width="48" height="48" fill="white"/>
</clipPath>
</defs>
</svg>
