<svg width="48" height="48" viewBox="0 0 48 48" fill="none" xmlns="http://www.w3.org/2000/svg">
<g id="House" clip-path="url(#clip0_4667_20585)">
<path id="Vector" d="M41.7766 22.4926V47.9476H6.22656V22.4926L24.0016 6.95264L41.7766 22.4926Z" fill="#E5E5E5"/>
<path id="Vector_2" d="M11.7241 7.5H6.22656V16.17H11.7241V7.5Z" fill="#41ACD8"/>
<path id="Vector_3" d="M13.2456 3.90771H4.70312V7.50021H13.2456V3.90771Z" fill="#41ACD8"/>
<path id="Vector_4" d="M11.7241 7.5H6.22656V9.4275H11.7241V7.5Z" fill="#3582A8"/>
<path id="Vector_5" d="M41.7766 22.4926V25.3951L23.9941 9.85514L6.22656 25.3951V22.4926L23.9941 6.95264H24.0016L41.7766 22.4926Z" fill="#C6C1C1"/>
<g id="Group">
<path id="Vector_6" d="M48 21.8177L24 0.0527344L0 21.8177L3.45 25.2677L24 6.95273L44.55 25.2677L48 21.8177Z" fill="#41ACD8"/>
<path id="Vector_7" d="M48 21.8177L46.545 23.2652L24 2.82023L1.455 23.2652L0 21.8177L24 0.0527344L48 21.8177Z" fill="#59CBEF"/>
</g>
<g id="Group_2">
<path id="Vector_8" d="M21.9978 26.4751H10.3203V47.9476H21.9978V26.4751Z" fill="#445B69"/>
<path id="Vector_9" d="M21.9978 26.4751H10.3203V29.0701H21.9978V26.4751Z" fill="#364D59"/>
<g id="Group_3">
<path id="Vector_10" d="M37.6745 26.4751H25.832V38.3176H37.6745V26.4751Z" fill="#445B69"/>
<path id="Vector_11" d="M37.6745 26.4751H25.832V28.6126H37.6745V26.4751Z" fill="#364D59"/>
</g>
</g>
</g>
<defs>
<clipPath id="clip0_4667_20585">
<rect width="48" height="48" fill="white"/>
</clipPath>
</defs>
</svg>
