<svg width="4" height="14" viewBox="0 0 4 14" fill="none" xmlns="http://www.w3.org/2000/svg">
<path d="M1.9974 2.33737L1.9974 2.34404M1.9974 7.00951L1.9974 7.01618M1.9974 11.6816L1.9974 11.6883M1.9974 3.00482C1.62921 3.00482 1.33073 2.70599 1.33073 2.33737C1.33073 1.96875 1.62921 1.66992 1.9974 1.66992C2.36559 1.66992 2.66406 1.96875 2.66406 2.33737C2.66406 2.70599 2.36559 3.00482 1.9974 3.00482ZM1.9974 7.67696C1.62921 7.67696 1.33073 7.37813 1.33073 7.00951C1.33073 6.64089 1.62921 6.34206 1.9974 6.34206C2.36559 6.34206 2.66406 6.64089 2.66406 7.00951C2.66406 7.37813 2.36559 7.67696 1.9974 7.67696ZM1.9974 12.3491C1.62921 12.3491 1.33073 12.0503 1.33073 11.6816C1.33073 11.313 1.62921 11.0142 1.9974 11.0142C2.36559 11.0142 2.66406 11.313 2.66406 11.6816C2.66406 12.0503 2.36559 12.3491 1.9974 12.3491Z" stroke="#111827" stroke-width="2" stroke-linecap="round" stroke-linejoin="round"/>
</svg>
