<svg width="24" height="24" viewBox="0 0 24 24" fill="none" xmlns="http://www.w3.org/2000/svg">
<g id="Laundry" clip-path="url(#clip0_3348_15019)">
<path id="Vector" d="M9.17 16.83C10.73 18.39 13.265 18.39 14.825 16.83C16.385 15.27 16.385 12.735 14.825 11.175L9.17 16.83ZM18 2.01L6 2C4.895 2 4 2.895 4 4V20C4 21.105 4.895 22 6 22H18C19.105 22 20 21.105 20 20V4C20 2.895 19.105 2.01 18 2.01ZM10 4C10.55 4 11 4.45 11 5C11 5.55 10.55 6 10 6C9.45 6 9 5.55 9 5C9 4.45 9.45 4 10 4ZM7 4C7.55 4 8 4.45 8 5C8 5.55 7.55 6 7 6C6.45 6 6 5.55 6 5C6 4.45 6.45 4 7 4ZM12 20C8.685 20 6 17.315 6 14C6 10.685 8.685 8 12 8C15.315 8 18 10.685 18 14C18 17.315 15.315 20 12 20Z" fill="black"/>
</g>
<defs>
<clipPath id="clip0_3348_15019">
<rect width="24" height="24" fill="white"/>
</clipPath>
</defs>
</svg>
