<svg xmlns="http://www.w3.org/2000/svg" width="26" height="26" viewBox="0 0 26 26" fill="none">
  <path fill-rule="evenodd" clip-rule="evenodd" d="M24.5225 20.2223L23.7498 14.0618C23.6321 13.1311 23.1792 12.2752 22.476 11.6544C21.7727 11.0336 20.8673 10.6903 19.9292 10.689H17.0403C17.7804 9.54275 18.252 8.24412 18.4198 6.89009C18.4198 5.44488 17.8457 4.05886 16.8237 3.03694C15.8018 2.01503 14.4158 1.44092 12.9706 1.44092C11.5254 1.44092 10.1394 2.01503 9.11746 3.03694C8.09554 4.05886 7.52144 5.44488 7.52144 6.89009C7.68923 8.24412 8.16078 9.54275 8.90088 10.689H6.07699C5.13892 10.6903 4.2335 11.0336 3.53025 11.6544C2.827 12.2752 2.37414 13.1311 2.25644 14.0618L1.48366 20.2223C1.41496 20.7645 1.4625 21.3151 1.6231 21.8375C1.78371 22.3598 2.0537 22.842 2.41513 23.252C2.77655 23.6619 3.22112 23.9902 3.71927 24.215C4.21741 24.4397 4.7577 24.5559 5.30422 24.5556H20.702C21.2485 24.5559 21.7888 24.4397 22.2869 24.215C22.7851 23.9902 23.2297 23.6619 23.5911 23.252C23.9525 22.842 24.2225 22.3598 24.3831 21.8375C24.5437 21.3151 24.5912 20.7645 24.5225 20.2223ZM12.967 2.98286C14.0027 2.98477 14.9954 3.39704 15.7277 4.12937C16.46 4.8617 16.8723 5.85441 16.8742 6.89009C16.8742 8.33453 14.7075 11.7651 12.967 14.0473C11.2553 11.7651 9.05977 8.3562 9.05977 6.89009C9.06165 5.85815 9.47093 4.86869 10.1986 4.13698C10.9263 3.40526 11.9134 2.99048 12.9453 2.98286H12.967ZM22.4353 22.2301C22.2182 22.4756 21.9514 22.672 21.6526 22.8065C21.3537 22.941 21.0297 23.0104 20.702 23.0101H5.30422C4.97602 23.0106 4.65147 22.9412 4.35217 22.8065C4.05288 22.6719 3.7857 22.475 3.56842 22.229C3.35114 21.983 3.18874 21.6936 3.09203 21.38C2.99532 21.0663 2.96652 20.7357 3.00755 20.4101L3.78033 14.2495C3.85225 13.691 4.12499 13.1778 4.54762 12.8057C4.97025 12.4335 5.51388 12.228 6.07699 12.2273H9.80366C10.367 13.1012 10.9303 13.9101 11.3925 14.5384H6.83533V16.0768H19.1637V14.5384H14.4981C14.9603 13.9101 15.5309 13.094 16.087 12.2273H19.9292C20.4928 12.2264 21.0372 12.4315 21.4602 12.8039C21.8831 13.1763 22.1554 13.6904 22.2259 14.2495L22.9987 20.4101C23.0395 20.7361 23.0104 21.067 22.9133 21.3808C22.8161 21.6947 22.6532 21.9842 22.4353 22.2301Z" fill="white"/>
  <path d="M6.83594 18.395H19.2148V19.9334H6.83594V18.395Z" fill="white"/>
  <path d="M12.9993 7.61221C13.4261 7.61221 13.7721 7.26622 13.7721 6.83943C13.7721 6.41264 13.4261 6.06665 12.9993 6.06665C12.5725 6.06665 12.2266 6.41264 12.2266 6.83943C12.2266 7.26622 12.5725 7.61221 12.9993 7.61221Z" fill="white"/>
</svg>