<svg width="20" height="20" viewBox="0 0 20 20" fill="none" xmlns="http://www.w3.org/2000/svg">
<path d="M14.7166 13.8807C13.9891 14.6083 12.5215 16.0758 11.416 17.1813C10.635 17.9624 9.37019 17.9623 8.58914 17.1813C7.50353 16.0957 6.06306 14.6552 5.28856 13.8807C2.68506 11.2772 2.68506 7.05612 5.28856 4.45262C7.89205 1.84913 12.1132 1.84913 14.7166 4.45262C17.3201 7.05612 17.3201 11.2772 14.7166 13.8807Z" stroke="#7A7A7A" stroke-width="2" stroke-linecap="round" stroke-linejoin="round"/>
<path d="M12.5026 9.16667C12.5026 10.5474 11.3833 11.6667 10.0026 11.6667C8.62189 11.6667 7.5026 10.5474 7.5026 9.16667C7.5026 7.78596 8.62189 6.66667 10.0026 6.66667C11.3833 6.66667 12.5026 7.78596 12.5026 9.16667Z" stroke="#7A7A7A" stroke-width="2" stroke-linecap="round" stroke-linejoin="round"/>
</svg>
