<svg width="11" height="13" viewBox="0 0 11 13" fill="none" xmlns="http://www.w3.org/2000/svg">
<path d="M5.5 6.5C5.84375 6.5 6.13812 6.3775 6.38312 6.1325C6.62771 5.88792 6.75 5.59375 6.75 5.25C6.75 4.90625 6.62771 4.61187 6.38312 4.36687C6.13812 4.12229 5.84375 4 5.5 4C5.15625 4 4.86208 4.12229 4.6175 4.36687C4.3725 4.61187 4.25 4.90625 4.25 5.25C4.25 5.59375 4.3725 5.88792 4.6175 6.1325C4.86208 6.3775 5.15625 6.5 5.5 6.5ZM5.5 11.0937C6.77083 9.92708 7.71354 8.86708 8.32812 7.91375C8.94271 6.96083 9.25 6.11458 9.25 5.375C9.25 4.23958 8.88791 3.30979 8.16375 2.58562C7.44 1.86187 6.55208 1.5 5.5 1.5C4.44792 1.5 3.55979 1.86187 2.83562 2.58562C2.11187 3.30979 1.75 4.23958 1.75 5.375C1.75 6.11458 2.05729 6.96083 2.67187 7.91375C3.28646 8.86708 4.22917 9.92708 5.5 11.0937ZM5.5 12.75C3.82292 11.3229 2.57042 9.99729 1.7425 8.77312C0.914166 7.54937 0.5 6.41667 0.5 5.375C0.5 3.8125 1.00271 2.56771 2.00812 1.64062C3.01312 0.713542 4.17708 0.25 5.5 0.25C6.82291 0.25 7.98687 0.713542 8.99187 1.64062C9.99729 2.56771 10.5 3.8125 10.5 5.375C10.5 6.41667 10.086 7.54937 9.25812 8.77312C8.42979 9.99729 7.17708 11.3229 5.5 12.75Z" fill="#FE8501"/>
</svg>