<svg width="22" height="22" viewBox="0 0 22 22" fill="none" xmlns="http://www.w3.org/2000/svg">
<g clip-path="url(#clip0_2422_11786)">
<path d="M19.8 14.6644C19.6049 14.6644 19.4178 14.7419 19.2798 14.8798C19.1419 15.0178 19.0644 15.2049 19.0644 15.4C19.0625 16.7615 18.5209 18.0667 17.5582 19.0294C16.5954 19.9921 15.2902 20.5338 13.9287 20.5356H8.06436C6.70405 20.532 5.40061 19.9895 4.43937 19.027C3.47813 18.0645 2.93742 16.7603 2.93561 15.4V6.6C2.93742 5.23851 3.47908 3.9333 4.4418 2.97057C5.40453 2.00785 6.70974 1.46619 8.07123 1.46438H13.9356C15.2959 1.46801 16.5994 2.01047 17.5606 2.973C18.5218 3.93552 19.0625 5.2397 19.0644 6.6C19.0544 6.70211 19.066 6.80517 19.0983 6.90255C19.1306 6.99993 19.1829 7.08948 19.2518 7.16545C19.3208 7.24141 19.4049 7.30212 19.4987 7.34366C19.5925 7.3852 19.694 7.40666 19.7965 7.40666C19.8991 7.40666 20.0006 7.3852 20.0944 7.34366C20.1882 7.30212 20.2723 7.24141 20.3412 7.16545C20.4102 7.08948 20.4625 6.99993 20.4948 6.90255C20.5271 6.80517 20.5386 6.70211 20.5287 6.6C20.5269 4.85132 19.8319 3.17468 18.5961 1.93753C17.3602 0.700381 15.6843 0.00363835 13.9356 0L8.06436 0C6.31449 0.00181994 4.63681 0.69776 3.39946 1.93511C2.16212 3.17245 1.46618 4.85013 1.46436 6.6V15.4C1.46618 17.1499 2.16212 18.8275 3.39946 20.0649C4.63681 21.3022 6.31449 21.9982 8.06436 22H13.9287C15.6786 21.9982 17.3563 21.3022 18.5936 20.0649C19.831 18.8275 20.5269 17.1499 20.5287 15.4C20.5287 15.2061 20.4522 15.02 20.3157 14.8823C20.1792 14.7445 19.9939 14.6662 19.8 14.6644Z" fill="#D50D0D"/>
<path d="M19.8001 10.2647H11.3026L12.9869 8.58028C13.0889 8.43755 13.1365 8.26307 13.1212 8.08832C13.1059 7.91357 13.0286 7.75005 12.9033 7.62726C12.778 7.50447 12.613 7.43049 12.438 7.41867C12.263 7.40684 12.0895 7.45795 11.9488 7.56278L9.01319 10.4984C8.8759 10.6363 8.79883 10.8229 8.79883 11.0175C8.79883 11.212 8.8759 11.3987 9.01319 11.5365L11.9488 14.4378C12.0892 14.561 12.2713 14.6262 12.458 14.6201C12.6447 14.614 12.8221 14.5371 12.9542 14.405C13.0863 14.2729 13.1632 14.0955 13.1693 13.9088C13.1753 13.7221 13.1102 13.5401 12.9869 13.3997L11.3026 11.7153H19.8001C19.982 11.6976 20.1509 11.6129 20.2737 11.4775C20.3966 11.3421 20.4647 11.1659 20.4647 10.9831C20.4647 10.8003 20.3966 10.624 20.2737 10.4887C20.1509 10.3533 19.982 10.2686 19.8001 10.2509V10.2647Z" fill="#D50D0D"/>
</g>
<defs>
<clipPath id="clip0_2422_11786">
<rect width="22" height="22" fill="white"/>
</clipPath>
</defs>
</svg>
