<svg width="15" height="15" viewBox="0 0 15 15" fill="none" xmlns="http://www.w3.org/2000/svg">
<path d="M10.3227 0.388672H4.29723C1.67998 0.388672 0.11969 1.89562 0.11969 4.42339V10.2359C0.11969 12.7706 1.67998 14.2776 4.29723 14.2776H10.3155C12.9327 14.2776 14.493 12.7706 14.493 10.2428V4.42339C14.5002 1.89562 12.9399 0.388672 10.3227 0.388672ZM12.1634 5.94423C12.1634 6.22895 11.9189 6.46506 11.6241 6.46506C11.3293 6.46506 11.0848 6.22895 11.0848 5.94423V4.42339L4.29723 10.979H5.8719C6.1667 10.979 6.41117 11.2151 6.41117 11.4998C6.41117 11.7845 6.1667 12.0206 5.8719 12.0206H2.9958C2.92389 12.0206 2.85199 12.0067 2.78728 11.979C2.65785 11.9234 2.55 11.8262 2.49248 11.6942C2.47091 11.6317 2.45653 11.5692 2.45653 11.4998V8.72201C2.45653 8.43728 2.701 8.20117 2.9958 8.20117C3.2906 8.20117 3.53507 8.43728 3.53507 8.72201V10.2428L10.3227 3.68728H8.74801C8.45321 3.68728 8.20874 3.45117 8.20874 3.16645C8.20874 2.88173 8.45321 2.64562 8.74801 2.64562H11.6241C11.696 2.64562 11.7607 2.65951 11.8326 2.68728C11.9621 2.74284 12.0699 2.84006 12.1274 2.97201C12.149 3.03451 12.1634 3.09701 12.1634 3.16645V5.94423Z" fill="#FE8501"/>
</svg>
