<svg width="22" height="22" viewBox="0 0 22 22" fill="none" xmlns="http://www.w3.org/2000/svg">
<path d="M20.2033 7.00988C20.0224 6.82764 19.8073 6.68305 19.5702 6.58445C19.3331 6.48585 19.0789 6.4352 18.8222 6.43543H15.5649V3.17821C15.5649 2.65957 15.3589 2.16216 14.9922 1.79543C14.6254 1.42869 14.128 1.22266 13.6094 1.22266H3.17772C2.65908 1.22266 2.16167 1.42869 1.79494 1.79543C1.4282 2.16216 1.22217 2.65957 1.22217 3.17821V13.6099C1.22439 14.1279 1.4308 14.6242 1.79661 14.991C1.97746 15.1732 2.19263 15.3178 2.42968 15.4164C2.66674 15.515 2.92098 15.5657 3.17772 15.5654H6.43495V18.8227C6.43495 19.3413 6.64098 19.8387 7.00771 20.2054C7.37445 20.5722 7.87185 20.7782 8.3905 20.7782H18.8222C19.3402 20.776 19.8365 20.5696 20.2033 20.2038C20.3855 20.0229 20.5301 19.8077 20.6287 19.5707C20.7273 19.3336 20.778 19.0794 20.7777 18.8227V8.3971C20.7788 8.13933 20.7285 7.88393 20.6299 7.64577C20.5313 7.40761 20.3862 7.19145 20.2033 7.00988ZM3.17772 14.2638C3.09133 14.2615 3.00627 14.2419 2.92756 14.2062C2.84884 14.1705 2.77806 14.1194 2.71939 14.056C2.59906 13.9336 2.53111 13.7693 2.52995 13.5977V3.17821C2.53111 3.00662 2.59906 2.84222 2.71939 2.71988C2.7796 2.65974 2.85107 2.61206 2.92971 2.57956C3.00835 2.54705 3.09263 2.53036 3.17772 2.53043H13.6094C13.7818 2.53043 13.9472 2.59848 14.0696 2.71979C14.1921 2.8411 14.2617 3.00585 14.2633 3.17821V6.43543H8.39661C7.87797 6.43543 7.38056 6.64147 7.01383 7.0082C6.64709 7.37494 6.44106 7.87234 6.44106 8.39099V14.2577L3.17772 14.2638ZM19.4761 18.8227C19.4761 18.9078 19.4594 18.992 19.4269 19.0707C19.3944 19.1493 19.3467 19.2208 19.2866 19.281C19.1646 19.4019 19 19.4699 18.8283 19.4704H8.39661C8.31074 19.4704 8.22571 19.4535 8.14638 19.4207C8.06705 19.3878 7.99496 19.3396 7.93424 19.2789C7.87352 19.2182 7.82536 19.1461 7.7925 19.0668C7.75964 18.9874 7.74272 18.9024 7.74272 18.8165V8.3971C7.74871 8.2259 7.82103 8.06374 7.94439 7.94488C8.0046 7.88474 8.07607 7.83706 8.15471 7.80456C8.23335 7.77205 8.31763 7.75536 8.40272 7.75543H18.8222C18.9956 7.75543 19.1619 7.82433 19.2845 7.94695C19.4072 8.06958 19.4761 8.2359 19.4761 8.40932V18.8227Z" fill="white"/>
<path d="M14.2572 11H12.9556V12.9556H11V14.2572H12.9556V16.2189H14.2572V14.2572H16.2189V12.9556H14.2572V11Z" fill="white"/>
</svg>
