<svg xmlns="http://www.w3.org/2000/svg" width="40" height="40" viewBox="0 0 40 40" fill="none">
  <g clip-path="url(#clip0_4670_22400)">
    <path fill-rule="evenodd" clip-rule="evenodd" d="M0 0H40V40H0V0Z" fill="#F7630C"/>
    <path fill-rule="evenodd" clip-rule="evenodd" d="M6.71882 10.1182H33.2812C33.6065 10.1182 33.8718 10.3834 33.8718 10.7087V29.2915C33.8718 29.4869 33.7861 29.6549 33.6279 29.7696L19.5196 40.0001H0V16.9593L6.28958 10.3031C6.4053 10.1806 6.55034 10.1182 6.71882 10.1182Z" fill="#D13D00"/>
    <path d="M26.5757 28.7054C26.8993 28.7054 27.1616 28.9677 27.1616 29.2913C27.1616 29.6149 26.8993 29.8773 26.5757 29.8773H6.71876C6.39516 29.8773 6.13281 29.6149 6.13281 29.2913V20.8428C6.13281 20.5192 6.39516 20.2569 6.71876 20.2569C7.04235 20.2569 7.3047 20.5192 7.3047 20.8428V28.7054H26.5757ZM7.3047 16.5354C7.3047 16.859 7.04235 17.1214 6.71876 17.1214C6.39516 17.1214 6.13281 16.859 6.13281 16.5354V10.7085C6.13281 10.3849 6.39516 10.1226 6.71876 10.1226H33.2812C33.6048 10.1226 33.8671 10.3849 33.8671 10.7085V29.2913C33.8671 29.6149 33.6048 29.8772 33.2812 29.8772H30.4667C30.1431 29.8772 29.8807 29.6149 29.8807 29.2913C29.8807 28.9677 30.1431 28.7054 30.4667 28.7054H32.6953V11.2944H7.3047V16.5354Z" fill="#FFB259"/>
    <path d="M30.7095 28.9047C30.9231 29.1474 30.8996 29.5173 30.6569 29.7309C30.4142 29.9445 30.0442 29.921 29.8306 29.6783L20.0742 18.6004L16.7321 22.7154C16.5286 22.9656 16.1607 23.0036 15.9104 22.8C15.8677 22.7654 15.8312 22.7258 15.8011 22.683L15.8006 22.6833L11.035 15.9279L7.18894 21.1886C6.99807 21.449 6.6322 21.5053 6.37182 21.3145C6.11145 21.1236 6.05508 20.7577 6.24595 20.4973L10.5595 14.5972C10.5981 14.5402 10.6475 14.4892 10.7071 14.4472C10.9713 14.2614 11.3361 14.3249 11.522 14.5891L16.3122 21.3794L19.5777 17.3586C19.6038 17.3216 19.6346 17.2869 19.6702 17.2556C19.9128 17.042 20.2828 17.0656 20.4964 17.3083L30.7095 28.9047ZM29.62 15.6218C29.62 15.2472 29.4682 14.908 29.2228 14.6626C28.9774 14.4172 28.6382 14.2654 28.2636 14.2654C27.889 14.2654 27.5499 14.4172 27.3045 14.6626C27.059 14.908 26.9072 15.2472 26.9072 15.6218C26.9072 15.9965 27.059 16.3356 27.3045 16.581C27.5499 16.8264 27.889 16.9783 28.2636 16.9783C28.6382 16.9783 28.9774 16.8264 29.2228 16.581C29.4682 16.3356 29.62 15.9965 29.62 15.6218ZM30.0513 13.8341C30.5089 14.2916 30.7919 14.9237 30.7919 15.6218C30.7919 16.3199 30.5089 16.9521 30.0513 17.4096C29.5938 17.8671 28.9617 18.1502 28.2636 18.1502C27.5655 18.1502 26.9334 17.8671 26.4759 17.4096C26.0184 16.9521 25.7353 16.3199 25.7353 15.6218C25.7353 14.9237 26.0184 14.2916 26.4759 13.8341C26.9334 13.3766 27.5655 13.0935 28.2636 13.0935C28.9617 13.0935 29.5938 13.3766 30.0513 13.8341Z" fill="#FFB259"/>
  </g>
  <defs>
    <clipPath id="clip0_4670_22400">
      <rect width="40" height="40" fill="white"/>
    </clipPath>
  </defs>
</svg>