<svg width="16" height="18" viewBox="0 0 16 18" fill="none" xmlns="http://www.w3.org/2000/svg">
<path id="password" fill-rule="evenodd" clip-rule="evenodd" d="M7.99881 1.72227C6.63347 1.72227 5.52664 2.82909 5.52664 4.19443V6.69448H10.471V4.19443C10.471 2.82909 9.36415 1.72227 7.99881 1.72227ZM11.871 6.69448V4.19443C11.871 2.05589 10.1374 0.322266 7.99881 0.322266C5.86027 0.322266 4.12664 2.0559 4.12664 4.19443V6.69448H3.12578C1.63461 6.69448 0.425781 7.90331 0.425781 9.39448V14.9528C0.425781 16.444 1.63461 17.6528 3.12578 17.6528H12.8718C14.363 17.6528 15.5718 16.444 15.5718 14.9528V9.39448C15.5718 7.90331 14.363 6.69448 12.8718 6.69448H11.871ZM3.12578 8.09448C2.40781 8.09448 1.82578 8.67651 1.82578 9.39448V14.9528C1.82578 15.6708 2.40781 16.2528 3.12578 16.2528H12.8718C13.5898 16.2528 14.1718 15.6708 14.1718 14.9528V9.39448C14.1718 8.67651 13.5898 8.09448 12.8718 8.09448H11.171H4.82664H3.12578ZM12.0221 13.01C12.4895 13.01 12.8683 12.6296 12.8683 12.1604C12.8683 11.6911 12.4895 11.3107 12.0221 11.3107C11.5547 11.3107 11.1758 11.6911 11.1758 12.1604C11.1758 12.6296 11.5547 13.01 12.0221 13.01ZM7.50702 12.1604C7.50702 12.6296 7.12814 13.01 6.66077 13.01C6.1934 13.01 5.81452 12.6296 5.81452 12.1604C5.81452 11.6911 6.1934 11.3107 6.66077 11.3107C7.12814 11.3107 7.50702 11.6911 7.50702 12.1604ZM3.98176 13.01C4.44913 13.01 4.82801 12.6296 4.82801 12.1604C4.82801 11.6911 4.44913 11.3107 3.98176 11.3107C3.51439 11.3107 3.13551 11.6911 3.13551 12.1604C3.13551 12.6296 3.51439 13.01 3.98176 13.01ZM10.1874 12.1604C10.1874 12.6296 9.80854 13.01 9.34117 13.01C8.8738 13.01 8.49492 12.6296 8.49492 12.1604C8.49492 11.6911 8.8738 11.3107 9.34117 11.3107C9.80854 11.3107 10.1874 11.6911 10.1874 12.1604Z" fill="#44566C"/>
</svg>
