<svg width="23" height="18" viewBox="0 0 23 18" fill="none" xmlns="http://www.w3.org/2000/svg">
<path d="M8.16531 8.5C10.3653 8.5 12.1653 6.7 12.1653 4.5C12.1653 2.3 10.3653 0.5 8.16531 0.5C5.96531 0.5 4.16531 2.3 4.16531 4.5C4.16531 6.7 5.96531 8.5 8.16531 8.5ZM12.6653 7.6C14.3653 9 16.8653 8.7 18.2653 7C19.6653 5.3 19.3653 2.8 17.6653 1.4C16.9653 0.8 16.0653 0.5 15.1653 0.5C14.2653 0.5 13.3653 0.8 12.6653 1.4C14.3653 2.8 14.6653 5.2 13.2653 7C13.1653 7.2 12.8653 7.4 12.6653 7.6ZM22.5653 16.4C21.9653 12.7 18.8653 10 15.1653 10C14.2653 10 13.4653 10.1 12.6653 10.4C15.2653 11.3 17.1653 13.6 17.5653 16.3C17.6653 16.8 17.2653 17.4 16.6653 17.4H16.5653H21.5653C22.1653 17.4 22.5653 17 22.5653 16.4ZM8.16531 10C4.46531 10 1.26531 12.7 0.765314 16.4C0.665314 16.9 1.06531 17.5 1.66531 17.5H1.76531H14.5653C15.1653 17.5 15.5653 17.1 15.5653 16.5V16.4C15.0653 12.7 11.8653 10 8.16531 10Z" fill="black"/>
</svg>
