<svg width="24" height="25" viewBox="0 0 24 25" fill="none" xmlns="http://www.w3.org/2000/svg">
<g id="Phone">
<path id="Vector" d="M20.4809 15.9077L18.8309 14.2577C18.3391 13.7698 17.6752 13.4947 16.9824 13.4918C16.2896 13.4888 15.6234 13.7583 15.1274 14.242C14.8628 14.5081 14.5136 14.6737 14.1401 14.7103C13.7665 14.7468 13.3919 14.652 13.0807 14.4422C11.8523 13.6224 10.7971 12.5692 9.97491 11.3425C9.76878 11.0278 9.67742 10.6517 9.71622 10.2775C9.75502 9.90329 9.9216 9.55392 10.1879 9.28822C10.6672 8.79177 10.9332 8.12742 10.9288 7.43735C10.9245 6.74729 10.6502 6.08634 10.1647 5.59597L8.51466 3.94597C8.02067 3.45367 7.3517 3.17725 6.65429 3.17725C5.95688 3.17725 5.2879 3.45367 4.79391 3.94597L4.31916 4.42147C1.84416 6.89647 2.02941 12.1 7.17891 17.2465C10.2839 20.3522 13.4092 21.6527 15.9434 21.6527C16.6894 21.6776 17.4329 21.5537 18.1305 21.2883C18.8282 21.0229 19.466 20.6213 20.0069 20.107L20.4824 19.6315C20.9756 19.1373 21.2525 18.4675 21.2522 17.7693C21.2519 17.0711 20.9745 16.4015 20.4809 15.9077ZM19.4204 18.571L18.9449 19.0465C16.9949 20.9965 12.6907 20.6402 8.23791 16.1867C3.78516 11.7332 3.42816 7.42597 5.37816 5.47597L5.84991 5.00122C6.06232 4.78958 6.34994 4.67075 6.64979 4.67075C6.94963 4.67075 7.23726 4.78958 7.44966 5.00122L9.09966 6.65122C9.30821 6.86081 9.42658 7.14361 9.42953 7.43926C9.43247 7.73492 9.31975 8.02002 9.11541 8.23372C8.60862 8.74374 8.29249 9.41243 8.21999 10.1278C8.14748 10.8431 8.32301 11.5616 8.71716 12.163C9.65132 13.5609 10.8526 14.7604 12.2519 15.6925C12.8514 16.0867 13.5681 16.2632 14.2821 16.1927C14.9962 16.1221 15.6644 15.8087 16.1752 15.3047C16.3885 15.098 16.6744 14.9832 16.9714 14.985C17.2685 14.9868 17.5529 15.1051 17.7637 15.3145L19.4137 16.9645C19.52 17.0693 19.6046 17.1941 19.6625 17.3317C19.7204 17.4693 19.7506 17.617 19.7512 17.7663C19.7518 17.9156 19.7229 18.0636 19.6662 18.2017C19.6094 18.3398 19.5259 18.4653 19.4204 18.571Z" fill="#5D5D5D"/>
</g>
</svg>
