 <svg xmlns="http://www.w3.org/2000/svg" width="52" height="52" viewBox="0 0 52 52" fill="none">
<g clip-path="url(#clip0_4667_22384)">
<path d="M26 4.75C21.7972 4.75 17.6887 5.99629 14.1941 8.33127C10.6996 10.6663 7.97593 13.985 6.36757 17.868C4.75921 21.7509 4.33839 26.0236 5.15832 30.1457C5.97826 34.2678 8.00212 38.0541 10.974 41.026C13.9459 43.9979 17.7322 46.0217 21.8543 46.8417C25.9764 47.6616 30.2491 47.2408 34.132 45.6324C38.015 44.0241 41.3338 41.3004 43.6687 37.8059C46.0037 34.3113 47.25 30.2029 47.25 26C47.25 23.2094 46.7004 20.4461 45.6325 17.868C44.5645 15.2898 42.9993 12.9472 41.026 10.974C39.0528 9.00074 36.7102 7.43547 34.132 6.36756C31.5539 5.29965 28.7906 4.75 26 4.75ZM32.375 28.125H28.125V32.375C28.125 32.9386 27.9011 33.4791 27.5026 33.8776C27.1041 34.2761 26.5636 34.5 26 34.5C25.4364 34.5 24.8959 34.2761 24.4974 33.8776C24.0989 33.4791 23.875 32.9386 23.875 32.375V28.125H19.625C19.0614 28.125 18.5209 27.9011 18.1224 27.5026C17.7239 27.1041 17.5 26.5636 17.5 26C17.5 25.4364 17.7239 24.8959 18.1224 24.4974C18.5209 24.0989 19.0614 23.875 19.625 23.875H23.875V19.625C23.875 19.0614 24.0989 18.5209 24.4974 18.1224C24.8959 17.7239 25.4364 17.5 26 17.5C26.5636 17.5 27.1041 17.7239 27.5026 18.1224C27.9011 18.5209 28.125 19.0614 28.125 19.625V23.875H32.375C32.9386 23.875 33.4791 24.0989 33.8776 24.4974C34.2761 24.8959 34.5 25.4364 34.5 26C34.5 26.5636 34.2761 27.1041 33.8776 27.5026C33.4791 27.9011 32.9386 28.125 32.375 28.125Z" fill="#5D5D5D"/>
</g>
<defs>
<clipPath id="clip0_4667_22384">
<rect width="51" height="51" fill="white" transform="translate(0.5 0.5)"/>
</clipPath>
</defs>
</svg>