<svg width="57" height="56" viewBox="0 0 57 56" fill="none" xmlns="http://www.w3.org/2000/svg">
<g id="Printer">
<path id="Vector" d="M16.5729 23.3332C16.1114 23.3332 15.6603 23.47 15.2766 23.7264C14.8929 23.9828 14.5938 24.3472 14.4172 24.7736C14.2406 25.1999 14.1944 25.6691 14.2844 26.1217C14.3744 26.5743 14.5967 26.9901 14.923 27.3164C15.2493 27.6427 15.6651 27.865 16.1177 27.955C16.5703 28.045 17.0395 27.9988 17.4658 27.8222C17.8922 27.6456 18.2566 27.3465 18.513 26.9628C18.7694 26.5791 18.9062 26.128 18.9062 25.6665C18.9062 25.0477 18.6604 24.4542 18.2228 24.0166C17.7852 23.579 17.1918 23.3332 16.5729 23.3332ZM44.5729 13.9998H42.2396V6.99984C42.2396 6.381 41.9938 5.78751 41.5562 5.34992C41.1186 4.91234 40.5251 4.6665 39.9062 4.6665H16.5729C15.9541 4.6665 15.3606 4.91234 14.923 5.34992C14.4854 5.78751 14.2396 6.381 14.2396 6.99984V13.9998H11.9062C10.0497 13.9998 8.26926 14.7373 6.9565 16.0501C5.64375 17.3628 4.90625 19.1433 4.90625 20.9998V34.9998C4.90625 36.8563 5.64375 38.6368 6.9565 39.9496C8.26926 41.2623 10.0497 41.9998 11.9062 41.9998H14.2396V48.9998C14.2396 49.6187 14.4854 50.2122 14.923 50.6498C15.3606 51.0873 15.9541 51.3332 16.5729 51.3332H39.9062C40.5251 51.3332 41.1186 51.0873 41.5562 50.6498C41.9938 50.2122 42.2396 49.6187 42.2396 48.9998V41.9998H44.5729C46.4294 41.9998 48.2099 41.2623 49.5227 39.9496C50.8354 38.6368 51.5729 36.8563 51.5729 34.9998V20.9998C51.5729 19.1433 50.8354 17.3628 49.5227 16.0501C48.2099 14.7373 46.4294 13.9998 44.5729 13.9998ZM18.9062 9.33317H37.5729V13.9998H18.9062V9.33317ZM37.5729 46.6665H18.9062V37.3332H37.5729V46.6665ZM46.9062 34.9998C46.9062 35.6187 46.6604 36.2122 46.2228 36.6498C45.7852 37.0873 45.1918 37.3332 44.5729 37.3332H42.2396V34.9998C42.2396 34.381 41.9938 33.7875 41.5562 33.3499C41.1186 32.9123 40.5251 32.6665 39.9062 32.6665H16.5729C15.9541 32.6665 15.3606 32.9123 14.923 33.3499C14.4854 33.7875 14.2396 34.381 14.2396 34.9998V37.3332H11.9062C11.2874 37.3332 10.6939 37.0873 10.2563 36.6498C9.81875 36.2122 9.57292 35.6187 9.57292 34.9998V20.9998C9.57292 20.381 9.81875 19.7875 10.2563 19.3499C10.6939 18.9123 11.2874 18.6665 11.9062 18.6665H44.5729C45.1918 18.6665 45.7852 18.9123 46.2228 19.3499C46.6604 19.7875 46.9062 20.381 46.9062 20.9998V34.9998Z" fill="#FE8501"/>
</g>
</svg>
