  <svg
            xmlns="http://www.w3.org/2000/svg"
            width="24"
            height="25"
            viewBox="0 0 24 25"
            fill="none"
          >
            <g clipPath="url(#clip0_3352_15216)">
              <path
                d="M21.9975 8.20312H13.9537V5.78812C13.9537 4.68562 13.0575 3.78562 11.9513 3.78562L2.0025 3.78187C0.9 3.77812 0 4.67812 0 5.78062V12.1519C0 13.2544 0.89625 14.1544 2.0025 14.1544H2.37375V15.2794C2.37375 15.4781 2.4825 15.6581 2.65875 15.7519C2.74498 15.7981 2.84214 15.8201 2.93988 15.8155C3.03762 15.8109 3.13227 15.7798 3.21375 15.7256L5.565 14.1544H10.05V16.5731C10.05 17.6756 10.9462 18.5719 12.0487 18.5719H18.4387L20.79 20.1469C20.8715 20.2011 20.9661 20.2321 21.0639 20.2367C21.1616 20.2414 21.2588 20.2194 21.345 20.1731C21.5212 20.0794 21.63 19.8994 21.63 19.7006V18.5756H22.0012C23.1075 18.5756 24.0037 17.6794 24.0075 16.5769V10.2094C24 9.10312 23.1 8.20312 21.9975 8.20312ZM10.6012 13.0781H5.39625C5.29125 13.0781 5.18625 13.1081 5.09625 13.1681L3.44625 14.2706V13.6144C3.44625 13.3181 3.20625 13.0781 2.91 13.0781H2.0025C1.4925 13.0781 1.07625 12.6619 1.07625 12.1519V5.78062C1.07625 5.27062 1.4925 4.85437 2.0025 4.85437L11.9513 4.85812C12.4613 4.85812 12.8775 5.27437 12.8775 5.78437V12.1519C12.8775 12.6619 12.4613 13.0781 11.9513 13.0781H10.6012ZM22.9237 16.5769C22.9237 17.0869 22.5075 17.5031 21.9938 17.5031H21.0863C20.79 17.5031 20.55 17.7431 20.55 18.0394V18.6956L18.9 17.5894C18.81 17.5294 18.7087 17.4994 18.6 17.4994H12.045C11.535 17.4994 11.1187 17.0831 11.1187 16.5731V14.1544H11.9475C13.05 14.1544 13.95 13.2581 13.95 12.1519V9.27187H21.9938C22.2404 9.27187 22.477 9.36985 22.6514 9.54426C22.8258 9.71867 22.9237 9.95522 22.9237 10.2019V16.5769Z"
                fill="#5D5D5D"
              />
              <path
                d="M8.75875 10.4944C8.7349 10.4735 8.70673 10.4581 8.67625 10.4494C8.6425 10.4381 8.59375 10.4194 8.53375 10.3931C8.47375 10.3669 8.4025 10.3294 8.3125 10.2769C8.22625 10.2244 8.125 10.1494 8.0125 10.0519C8.0875 9.97687 8.155 9.89062 8.21125 9.79312C8.27125 9.69562 8.32 9.58687 8.3575 9.46687C8.39875 9.34687 8.42875 9.21937 8.4475 9.08062C8.47 8.94187 8.4775 8.79187 8.4775 8.63437C8.4775 8.32687 8.44 8.06437 8.36875 7.83937C8.2975 7.61437 8.1925 7.43062 8.05 7.28437C7.91125 7.13812 7.73875 7.02937 7.53625 6.95812C7.33375 6.88687 7.0975 6.85312 6.835 6.85312C6.55375 6.85312 6.30625 6.89437 6.09625 6.98062C5.8825 7.06687 5.70625 7.19062 5.56 7.34812C5.4175 7.50937 5.30875 7.70062 5.23375 7.92937C5.1625 8.15812 5.125 8.41687 5.125 8.70187C5.125 9.01687 5.15875 9.29062 5.22625 9.51937C5.29375 9.74812 5.39875 9.93562 5.53375 10.0856C5.66875 10.2319 5.84125 10.3406 6.0475 10.4119C6.25375 10.4831 6.49375 10.5169 6.7675 10.5169C6.91375 10.5169 7.045 10.5019 7.165 10.4756C7.285 10.4456 7.38625 10.4156 7.46875 10.3744C7.57 10.4906 7.67875 10.5919 7.795 10.6781C7.91125 10.7681 8.0275 10.8431 8.14 10.9031C8.2525 10.9631 8.3575 11.0119 8.455 11.0456C8.5525 11.0794 8.63125 11.0944 8.69125 11.0944C8.70625 11.0944 8.72125 11.0906 8.7325 11.0831C8.74375 11.0756 8.75875 11.0644 8.76625 11.0419C8.7792 11.012 8.78804 10.9804 8.7925 10.9481C8.8 10.9069 8.80375 10.8544 8.80375 10.7906C8.80375 10.7081 8.8 10.6444 8.78875 10.5994C8.7775 10.5544 8.78125 10.5131 8.75875 10.4944ZM7.6825 9.15562C7.6525 9.30562 7.6 9.44062 7.52875 9.55312C7.4575 9.66562 7.36 9.75562 7.24 9.81937C7.12 9.88687 6.97375 9.91687 6.7975 9.91687C6.62125 9.91687 6.475 9.88687 6.35875 9.83062C6.2425 9.77437 6.14875 9.68812 6.08125 9.57937C6.00683 9.45778 5.95713 9.3227 5.935 9.18187C5.90334 9.0087 5.88827 8.8329 5.89 8.65687C5.89 8.49187 5.905 8.33812 5.935 8.18812C5.965 8.03812 6.0175 7.91062 6.08875 7.79812C6.16 7.68562 6.2575 7.59937 6.3775 7.53187C6.4975 7.46437 6.64375 7.43437 6.82 7.43437C6.99625 7.43437 7.1425 7.46437 7.25875 7.52437C7.375 7.58437 7.46875 7.66687 7.54 7.77562C7.61125 7.88437 7.66 8.01562 7.69 8.16562C7.72 8.31562 7.735 8.48437 7.735 8.66812C7.73125 8.84062 7.7125 9.00187 7.6825 9.15562ZM17.5413 11.6269C17.5329 11.5958 17.5189 11.5666 17.5 11.5406C17.485 11.5181 17.455 11.5031 17.4175 11.4919C17.3661 11.4782 17.3131 11.4719 17.26 11.4731C17.1925 11.4694 17.1025 11.4694 16.9862 11.4694C16.8888 11.4694 16.81 11.4694 16.75 11.4731C16.69 11.4769 16.645 11.4844 16.6112 11.4919C16.5775 11.5031 16.5512 11.5181 16.5362 11.5369C16.5212 11.5556 16.5063 11.5819 16.495 11.6156L15.34 14.9381C15.3175 15.0056 15.3025 15.0581 15.295 15.0994C15.2875 15.1406 15.295 15.1706 15.3138 15.1931C15.3325 15.2156 15.3663 15.2306 15.4187 15.2344C15.4675 15.2419 15.5387 15.2419 15.6287 15.2419C15.7113 15.2419 15.7788 15.2381 15.8313 15.2344C15.8837 15.2306 15.9213 15.2231 15.9513 15.2119C15.9775 15.2006 16 15.1856 16.0113 15.1669C16.0242 15.1458 16.0343 15.1231 16.0412 15.0994L16.2775 14.3681H17.6837L17.935 15.1219C17.9425 15.1481 17.9537 15.1669 17.965 15.1819C17.9762 15.1969 17.995 15.2081 18.025 15.2194C18.055 15.2269 18.0962 15.2344 18.1525 15.2381C18.2087 15.2419 18.2837 15.2419 18.3812 15.2419C18.475 15.2419 18.55 15.2381 18.6025 15.2344C18.655 15.2306 18.6925 15.2156 18.715 15.1969C18.7375 15.1781 18.745 15.1481 18.7375 15.1069C18.7276 15.0506 18.7125 14.9954 18.6925 14.9419L17.5413 11.6269ZM16.45 13.7906L16.9787 12.2006H16.9825L17.5112 13.7906H16.45Z"
                fill="#5D5D5D"
              />
            </g>
          </svg>