<svg width="24" height="24" viewBox="0 0 24 24" fill="none" xmlns="http://www.w3.org/2000/svg">
<g id="restaurant sign">
<path id="Vector" d="M22.2813 5.96096C22.1403 5.82108 21.9497 5.7426 21.7511 5.7426C21.5524 5.7426 21.3618 5.82108 21.2208 5.96096L18.5688 8.61296C18.428 8.75319 18.2373 8.83193 18.0386 8.83193C17.8398 8.83193 17.6491 8.75319 17.5083 8.61296C17.3684 8.47192 17.2899 8.28134 17.2899 8.08271C17.2899 7.88408 17.3684 7.69349 17.5083 7.55246L20.1603 4.90046C20.4513 4.60946 20.4513 4.13096 20.1603 3.83996C19.8693 3.54896 19.3908 3.54896 19.0998 3.83996L16.4478 6.49196C16.3068 6.63183 16.1162 6.71031 15.9176 6.71031C15.7189 6.71031 15.5283 6.63183 15.3873 6.49196C15.2474 6.35092 15.1689 6.16034 15.1689 5.96171C15.1689 5.76307 15.2474 5.57249 15.3873 5.43146L18.0393 2.77946C18.1759 2.63801 18.2515 2.44855 18.2498 2.25191C18.2481 2.05526 18.1692 1.86715 18.0302 1.72809C17.8911 1.58904 17.703 1.51016 17.5064 1.50845C17.3097 1.50674 17.1203 1.58234 16.9788 1.71896L12.7353 5.96096C12.1729 6.52354 11.8569 7.28646 11.8569 8.08196C11.8569 8.87745 12.1729 9.64037 12.7353 10.203L13.7958 11.265C14.3584 11.8274 15.1213 12.1433 15.9168 12.1433C16.7123 12.1433 17.4752 11.8274 18.0378 11.265L22.2798 7.02296C22.3497 6.95339 22.4053 6.8707 22.4432 6.77964C22.4812 6.68857 22.5008 6.59092 22.5009 6.49227C22.501 6.39362 22.4817 6.29591 22.444 6.20474C22.4063 6.11357 22.351 6.03072 22.2813 5.96096ZM2.5293 1.90796L2.4048 2.28296C1.96427 3.6044 1.90045 5.02242 2.22049 6.3781C2.54054 7.73378 3.2318 8.97354 4.2168 9.95846L5.8308 11.5725C7.14823 12.8897 8.75406 13.8824 10.5213 14.472L11.0163 14.637L18.4413 22.062C18.5806 22.2012 18.7459 22.3117 18.9279 22.3871C19.1098 22.4624 19.3048 22.5012 19.5018 22.5012C19.6988 22.5012 19.8938 22.4624 20.0757 22.3871C20.2577 22.3117 20.423 22.2012 20.5623 22.062C20.7016 21.9227 20.812 21.7574 20.8874 21.5754C20.9628 21.3934 21.0016 21.1984 21.0016 21.0015C21.0016 20.8045 20.9628 20.6095 20.8874 20.4275C20.812 20.2456 20.7016 20.0802 20.5623 19.941L2.5293 1.90796ZM3.0003 17.8185L1.9398 18.879C1.80038 19.0181 1.68978 19.1834 1.61431 19.3654C1.53884 19.5474 1.5 19.7425 1.5 19.9395C1.5 20.1365 1.53884 20.3315 1.61431 20.5135C1.68978 20.6955 1.80038 20.8608 1.9398 21L3.0003 22.0605C3.13948 22.1999 3.30479 22.3105 3.48676 22.3859C3.66873 22.4614 3.8638 22.5003 4.0608 22.5003C4.2578 22.5003 4.45287 22.4614 4.63484 22.3859C4.81681 22.3105 4.98212 22.1999 5.1213 22.0605L6.1818 21L9.6828 15.7485C8.95507 15.4809 8.25151 15.1517 7.5798 14.7645L3.0003 17.8185Z" fill="black"/>
</g>
</svg>
