<svg width="20" height="20" viewBox="0 0 20 20" fill="none" xmlns="http://www.w3.org/2000/svg">
<g id="shower 1">
<path id="Vector" d="M14.7372 1.11108H9.40382C8.30459 1.11402 7.2513 1.55237 6.47454 2.33017C5.69778 3.10797 5.26084 4.16185 5.25938 5.26108H4.07049C3.2856 5.26255 2.53328 5.575 1.97829 6.13C1.42329 6.68499 1.11084 7.43731 1.10938 8.2222V9.99997C1.10938 10.1576 1.172 10.3088 1.28348 10.4203C1.39496 10.5318 1.54616 10.5944 1.70382 10.5944H9.99826C10.1559 10.5944 10.3071 10.5318 10.4186 10.4203C10.5301 10.3088 10.5927 10.1576 10.5927 9.99997V8.2222C10.5912 7.43731 10.2788 6.68499 9.7238 6.13C9.1688 5.575 8.41648 5.26255 7.6316 5.26108H6.44271C6.44418 4.4762 6.75662 3.72388 7.31162 3.16888C7.86662 2.61389 8.61894 2.30144 9.40382 2.29997H14.7372C15.522 2.30144 16.2744 2.61389 16.8294 3.16888C17.3844 3.72388 17.6968 4.4762 17.6983 5.26108V18.2944H18.8872V5.26108C18.8857 4.16089 18.448 3.10617 17.67 2.32821C16.8921 1.55026 15.8374 1.11255 14.7372 1.11108ZM7.62604 6.44442C8.09754 6.44442 8.54972 6.63172 8.88312 6.96512C9.21652 7.29851 9.40382 7.7507 9.40382 8.2222V9.40553H2.29271V8.2222C2.29271 7.7507 2.48001 7.29851 2.81341 6.96512C3.14681 6.63172 3.59899 6.44442 4.07049 6.44442H7.62604Z" fill="#2A2A2B"/>
<path id="Vector_2" d="M1.70312 12.3722H2.88646V16.5222H1.70312V12.3722Z" fill="#2A2A2B"/>
<path id="Vector_3" d="M4.07031 12.3722H5.25365V14.15H4.07031V12.3722Z" fill="#2A2A2B"/>
<path id="Vector_4" d="M4.07031 15.9277H5.25365V18.3H4.07031V15.9277Z" fill="#2A2A2B"/>
<path id="Vector_5" d="M6.44531 12.3722H7.62865V15.3333H6.44531V12.3722Z" fill="#2A2A2B"/>
<path id="Vector_6" d="M6.44531 16.5167H7.62865V17.7001H6.44531V16.5167Z" fill="#2A2A2B"/>
<path id="Vector_7" d="M8.82031 12.3722H10.0036V14.15H8.82031V12.3722Z" fill="#2A2A2B"/>
<path id="Vector_8" d="M8.82031 15.3334H10.0036V18.8889H8.82031V15.3334Z" fill="#2A2A2B"/>
</g>
</svg>
