<svg width="15" height="15" viewBox="0 0 15 15" fill="none" xmlns="http://www.w3.org/2000/svg">
<path d="M10.8241 0.722656H4.79864C2.18138 0.722656 0.621094 2.2296 0.621094 4.75738V10.5699C0.621094 13.1046 2.18138 14.6115 4.79864 14.6115H10.8169C13.4341 14.6115 14.9944 13.1046 14.9944 10.5768V4.75738C15.0016 2.2296 13.4413 0.722656 10.8241 0.722656ZM12.6648 6.27821C12.6648 6.56293 12.4203 6.79905 12.1255 6.79905C11.8307 6.79905 11.5862 6.56293 11.5862 6.27821V4.75738L4.79864 11.3129H6.37331C6.66811 11.3129 6.91258 11.549 6.91258 11.8338C6.91258 12.1185 6.66811 12.3546 6.37331 12.3546H3.4972C3.4253 12.3546 3.35339 12.3407 3.28868 12.3129C3.15926 12.2574 3.0514 12.1602 2.99388 12.0282C2.97231 11.9657 2.95793 11.9032 2.95793 11.8338V9.05599C2.95793 8.77127 3.2024 8.53516 3.4972 8.53516C3.792 8.53516 4.03647 8.77127 4.03647 9.05599V10.5768L10.8241 4.02127H9.24941C8.95461 4.02127 8.71014 3.78516 8.71014 3.50043C8.71014 3.21571 8.95461 2.9796 9.24941 2.9796H12.1255C12.1974 2.9796 12.2621 2.99349 12.334 3.02127C12.4635 3.07682 12.5713 3.17405 12.6288 3.30599C12.6504 3.36849 12.6648 3.43099 12.6648 3.50043V6.27821Z" fill="#FE8501"/>
</svg>
