<svg xmlns="http://www.w3.org/2000/svg" width="14" height="14" viewBox="0 0 14 14" fill="none">
  <g clip-path="url(#clip0_5249_21478)">
    <path d="M13.6892 5.49486C13.6041 5.23313 13.3719 5.04782 13.0984 5.02307L9.36698 4.68431L7.89231 1.23181C7.78344 0.978163 7.5357 0.814453 7.25996 0.814453C6.98422 0.814453 6.73638 0.978163 6.6282 1.23181L5.15353 4.68431L1.42154 5.02307C1.14797 5.04831 0.916312 5.23362 0.83071 5.49486C0.7456 5.7566 0.824201 6.04369 1.03111 6.22515L3.85174 8.69844L3.02008 12.3614C2.95923 12.6307 3.06377 12.9092 3.28724 13.0708C3.40736 13.158 3.54849 13.2016 3.6901 13.2016C3.8118 13.2016 3.9336 13.1693 4.04238 13.1042L7.25996 11.1803L10.477 13.1042C10.7129 13.2452 11.0097 13.2323 11.2327 13.0708C11.4562 12.9092 11.5607 12.6307 11.4998 12.3614L10.6682 8.69844L13.4888 6.22515C13.6956 6.04369 13.7743 5.75719 13.6892 5.49486Z" fill="#FE8501"/>
  </g>
  <defs>
    <clipPath id="clip0_5249_21478">
      <rect width="12.9261" height="12.9261" fill="white" transform="translate(0.796875 0.537109)"/>
    </clipPath>
  </defs>
</svg>