<svg width="95" height="96" viewBox="0 0 95 96" fill="none" xmlns="http://www.w3.org/2000/svg">
<path d="M47.5 0.75C38.1549 0.75 29.0196 3.52116 21.2493 8.71306C13.4791 13.905 7.42295 21.2844 3.84671 29.9182C0.270473 38.552 -0.665235 48.0524 1.15792 57.218C2.98107 66.3836 7.48119 74.8028 14.0892 81.4108C20.6973 88.0188 29.1164 92.5189 38.282 94.3421C47.4476 96.1652 56.948 95.2295 65.5818 91.6533C74.2156 88.0771 81.5951 82.0209 86.787 74.2507C91.9789 66.4805 94.75 57.3452 94.75 48C94.75 35.4685 89.7719 23.4503 80.9108 14.5892C72.0497 5.72811 60.0315 0.75 47.5 0.75ZM69.7863 38.5106L47.5 60.7575C45.2852 62.9696 42.2828 64.2121 39.1525 64.2121C36.0222 64.2121 33.0199 62.9696 30.805 60.7575L25.2138 55.2056C24.8466 54.8385 24.5554 54.4027 24.3567 53.923C24.158 53.4433 24.0558 52.9292 24.0558 52.41C24.0558 51.8908 24.158 51.3767 24.3567 50.897C24.5554 50.4173 24.8466 49.9815 25.2138 49.6144C25.5809 49.2472 26.0167 48.956 26.4964 48.7573C26.9761 48.5587 27.4902 48.4564 28.0094 48.4564C28.5286 48.4564 29.0427 48.5587 29.5224 48.7573C30.0021 48.956 30.4379 49.2472 30.805 49.6144L36.3569 55.2056C36.7229 55.5747 37.1584 55.8676 37.6383 56.0675C38.1181 56.2674 38.6327 56.3703 39.1525 56.3703C39.6723 56.3703 40.187 56.2674 40.6668 56.0675C41.1466 55.8676 41.5821 55.5747 41.9481 55.2056L64.195 32.9194C64.5621 32.5522 64.998 32.261 65.4777 32.0623C65.9573 31.8636 66.4715 31.7614 66.9907 31.7614C67.5098 31.7614 68.024 31.8636 68.5036 32.0623C68.9833 32.261 69.4191 32.5522 69.7863 32.9194C70.1534 33.2865 70.4446 33.7223 70.6433 34.202C70.842 34.6817 70.9443 35.1958 70.9443 35.715C70.9443 36.2342 70.842 36.7483 70.6433 37.228C70.4446 37.7077 70.1534 38.1435 69.7863 38.5106Z" fill="#0CBB5E"/>
</svg>
