<svg width="37" height="37" viewBox="0 0 37 37" fill="none" xmlns="http://www.w3.org/2000/svg">
<path d="M18.5 0.125C15.0141 0.125 11.6065 1.20267 8.70808 3.22175C5.80967 5.24082 3.55063 8.1106 2.21663 11.4682C0.882637 14.8258 0.533603 18.5204 1.21367 22.0848C1.89373 25.6492 3.57235 28.9233 6.03725 31.4931C8.50215 34.0629 11.6426 35.8129 15.0615 36.5219C18.4805 37.2309 22.0243 36.867 25.2448 35.4763C28.4654 34.0855 31.218 31.7304 33.1547 28.7086C35.0913 25.6868 36.125 22.1342 36.125 18.5C36.125 13.6266 34.2681 8.95289 30.9628 5.50691C27.6574 2.06093 23.1744 0.125 18.5 0.125ZM26.8131 14.8097L18.5 23.4612C17.6738 24.3215 16.5539 24.8047 15.3863 24.8047C14.2186 24.8047 13.0987 24.3215 12.2725 23.4612L10.1869 21.3022C10.0499 21.1594 9.94131 20.9899 9.8672 20.8034C9.79308 20.6168 9.75494 20.4169 9.75494 20.215C9.75494 20.0131 9.79308 19.8132 9.8672 19.6266C9.94131 19.4401 10.0499 19.2706 10.1869 19.1278C10.3238 18.985 10.4864 18.8718 10.6653 18.7945C10.8443 18.7173 11.036 18.6775 11.2297 18.6775C11.4234 18.6775 11.6151 18.7173 11.7941 18.7945C11.973 18.8718 12.1356 18.985 12.2725 19.1278L14.3434 21.3022C14.48 21.4457 14.6424 21.5596 14.8214 21.6374C15.0004 21.7151 15.1924 21.7551 15.3863 21.7551C15.5802 21.7551 15.7721 21.7151 15.9511 21.6374C16.1301 21.5596 16.2925 21.4457 16.4291 21.3022L24.7275 12.6353C24.8645 12.4925 25.027 12.3793 25.206 12.302C25.3849 12.2248 25.5767 12.185 25.7703 12.185C25.964 12.185 26.1558 12.2248 26.3347 12.302C26.5136 12.3793 26.6762 12.4925 26.8131 12.6353C26.9501 12.7781 27.0587 12.9476 27.1328 13.1341C27.2069 13.3207 27.2451 13.5206 27.2451 13.7225C27.2451 13.9244 27.2069 14.1243 27.1328 14.3109C27.0587 14.4974 26.9501 14.6669 26.8131 14.8097Z" fill="#3DC97E"/>
</svg>
