<svg width="151" height="156" viewBox="0 0 151 156" fill="none" xmlns="http://www.w3.org/2000/svg">
<g id="Success">
<path id="Layer 5" d="M75.5 19.5C64.3007 19.5 53.3528 22.931 44.0409 29.359C34.7289 35.7871 27.4712 44.9235 23.1853 55.613C18.8995 66.3025 17.7782 78.0649 19.9631 89.4128C22.1479 100.761 27.541 111.184 35.4601 119.366C43.3793 127.547 53.4689 133.119 64.453 135.376C75.4372 137.633 86.8226 136.475 97.1695 132.047C107.516 127.619 116.36 120.121 122.582 110.501C128.804 100.881 132.125 89.5702 132.125 78C132.125 62.4848 126.159 47.6051 115.54 36.6343C104.921 25.6634 90.5179 19.5 75.5 19.5ZM102.208 66.2513L75.5 93.795C72.8457 96.5338 69.2477 98.0721 65.4963 98.0721C61.7449 98.0721 58.1468 96.5338 55.4925 93.795L48.7919 86.9212C48.3519 86.4667 48.0029 85.9271 47.7648 85.3332C47.5267 84.7393 47.4042 84.1028 47.4042 83.46C47.4042 82.8172 47.5267 82.1807 47.7648 81.5868C48.0029 80.9929 48.3519 80.4533 48.7919 79.9987C49.2319 79.5442 49.7542 79.1837 50.329 78.9377C50.9039 78.6917 51.52 78.565 52.1422 78.565C52.7644 78.565 53.3805 78.6917 53.9554 78.9377C54.5302 79.1837 55.0526 79.5442 55.4925 79.9987L62.146 86.9212C62.5846 87.3782 63.1065 87.7408 63.6816 87.9883C64.2566 88.2358 64.8733 88.3633 65.4963 88.3633C66.1192 88.3633 66.736 88.2358 67.311 87.9883C67.886 87.7408 68.4079 87.3782 68.8466 86.9212L95.5075 59.3288C95.9475 58.8742 96.4698 58.5137 97.0447 58.2677C97.6195 58.0217 98.2356 57.8951 98.8578 57.8951C99.4801 57.8951 100.096 58.0217 100.671 58.2677C101.246 58.5137 101.768 58.8742 102.208 59.3288C102.648 59.7833 102.997 60.3229 103.235 60.9168C103.473 61.5107 103.596 62.1472 103.596 62.79C103.596 63.4328 103.473 64.0693 103.235 64.6632C102.997 65.2571 102.648 65.7967 102.208 66.2513Z" fill="#3DC97E"/>
</g>
</svg>
