<svg width="21" height="21" viewBox="0 0 21 21" fill="none" xmlns="http://www.w3.org/2000/svg">
<path d="M16.9023 10.2998C16.9023 13.8897 13.9922 16.7998 10.4023 16.7998V18.7998C15.0968 18.7998 18.9023 14.9942 18.9023 10.2998H16.9023ZM10.4023 16.7998C6.81249 16.7998 3.90234 13.8897 3.90234 10.2998H1.90234C1.90234 14.9942 5.70792 18.7998 10.4023 18.7998V16.7998ZM3.90234 10.2998C3.90234 6.70995 6.81249 3.7998 10.4023 3.7998V1.7998C5.70792 1.7998 1.90234 5.60538 1.90234 10.2998H3.90234ZM10.4023 3.7998C13.9922 3.7998 16.9023 6.70995 16.9023 10.2998H18.9023C18.9023 5.60538 15.0968 1.7998 10.4023 1.7998V3.7998ZM12.7357 10.2998C12.7357 11.5885 11.691 12.6331 10.4023 12.6331V14.6331C12.7956 14.6331 14.7357 12.693 14.7357 10.2998H12.7357ZM10.4023 12.6331C9.11368 12.6331 8.06901 11.5885 8.06901 10.2998H6.06901C6.06901 12.693 8.00911 14.6331 10.4023 14.6331V12.6331ZM8.06901 10.2998C8.06901 9.01114 9.11368 7.96647 10.4023 7.96647V5.96647C8.00911 5.96647 6.06901 7.90657 6.06901 10.2998H8.06901ZM10.4023 7.96647C11.691 7.96647 12.7357 9.01114 12.7357 10.2998H14.7357C14.7357 7.90657 12.7956 5.96647 10.4023 5.96647V7.96647ZM14.9985 4.2894L12.0523 7.23568L13.4665 8.64989L16.4128 5.70361L14.9985 4.2894ZM12.0523 13.3639L14.9985 16.3102L16.4128 14.896L13.4665 11.9497L12.0523 13.3639ZM8.75243 7.23567L5.80615 4.2894L4.39194 5.70361L7.33821 8.64989L8.75243 7.23567ZM7.33821 11.9497L4.39194 14.896L5.80615 16.3102L8.75243 13.3639L7.33821 11.9497Z" fill="#98A2B3"/>
</svg>
