<svg width="24" height="24" viewBox="0 0 24 24" fill="none" xmlns="http://www.w3.org/2000/svg">
<g id="Support">
<path id="Vector" d="M19.9315 11.3622C19.7042 11.3622 19.4862 11.2719 19.3254 11.1112C19.1647 10.9504 19.0744 10.7324 19.0744 10.5051V8.08453C19.0744 4.65596 15.9064 1.9131 12.0115 1.9131C8.11666 1.9131 4.94866 4.69024 4.94866 8.08453V10.5051C4.94866 10.7324 4.85835 10.9504 4.69761 11.1112C4.53686 11.2719 4.31885 11.3622 4.09152 11.3622C3.86419 11.3622 3.64617 11.2719 3.48543 11.1112C3.32468 10.9504 3.23438 10.7324 3.23438 10.5051V8.08453C3.23438 3.72339 7.17723 0.171387 12.0115 0.171387C16.8458 0.171387 20.7887 3.72339 20.7887 8.08453V10.5051C20.7896 10.6179 20.768 10.7298 20.7253 10.8342C20.6825 10.9386 20.6194 11.0335 20.5396 11.1132C20.4599 11.193 20.365 11.2561 20.2606 11.2989C20.1562 11.3416 20.0443 11.3632 19.9315 11.3622Z" fill="black"/>
<path id="Vector_2" d="M17.6177 19.4263C17.3904 19.4263 17.1724 19.336 17.0116 19.1752C16.8509 19.0145 16.7606 18.7964 16.7606 18.5691V10.4297C16.7677 10.2071 16.8611 9.99611 17.0211 9.84125C17.1811 9.68639 17.3951 9.59986 17.6177 9.59998C20.5732 9.59998 22.98 11.8148 22.98 14.5303C22.98 17.2457 20.5732 19.4263 17.6177 19.4263ZM18.4749 11.376V17.6228C19.2253 17.4986 19.9107 17.1214 20.4171 16.5538C20.9235 15.9862 21.2206 15.2625 21.2589 14.5028C21.2221 13.7419 20.9257 13.0166 20.4192 12.4477C19.9126 11.8787 19.2264 11.5005 18.4749 11.376ZM6.38572 19.4263C3.4303 19.4263 1.02344 17.2183 1.02344 14.5028C1.02344 11.7874 3.4303 9.59998 6.38572 9.59998C6.61305 9.59998 6.83107 9.69028 6.99182 9.85103C7.15256 10.0118 7.24287 10.2298 7.24287 10.4571V18.5691C7.24287 18.7964 7.15256 19.0145 6.99182 19.1752C6.83107 19.336 6.61305 19.4263 6.38572 19.4263ZM5.52858 11.376C4.77704 11.5005 4.09084 11.8787 3.58428 12.4477C3.07771 13.0166 2.78136 13.7419 2.74458 14.5028C2.78288 15.2625 3.07992 15.9862 3.58635 16.5538C4.09279 17.1214 4.77814 17.4986 5.52858 17.6228V11.376Z" fill="black"/>
<path id="Vector_3" d="M17.3366 22.2172H14.4978C14.2704 22.2172 14.0524 22.1269 13.8917 21.9661C13.7309 21.8054 13.6406 21.5874 13.6406 21.36C13.6406 21.1327 13.7309 20.9147 13.8917 20.7539C14.0524 20.5932 14.2704 20.5029 14.4978 20.5029H17.3366C17.7804 20.5029 18.2059 20.3266 18.5197 20.0128C18.8335 19.6991 19.0098 19.2735 19.0098 18.8297V18.4526C19.0098 18.2253 19.1001 18.0073 19.2608 17.8465C19.4216 17.6858 19.6396 17.5955 19.8669 17.5955C20.0942 17.5955 20.3123 17.6858 20.473 17.8465C20.6337 18.0073 20.7241 18.2253 20.7241 18.4526V18.8297C20.7241 19.7281 20.3672 20.5898 19.7319 21.225C19.0966 21.8603 18.235 22.2172 17.3366 22.2172Z" fill="black"/>
<path id="Vector_4" d="M13.031 23.8286H11.3373C10.7154 23.8286 10.1189 23.5815 9.67906 23.1417C9.23926 22.7019 8.99219 22.1055 8.99219 21.4835V21.3875C8.994 20.7667 9.24188 20.172 9.68148 19.7336C10.1211 19.2953 10.7165 19.0492 11.3373 19.0492H13.031C13.6512 19.0492 14.2459 19.2955 14.6845 19.7341C15.123 20.1726 15.3693 20.7673 15.3693 21.3875V21.4835C15.3693 22.1043 15.1232 22.6997 14.6849 23.1393C14.2466 23.5789 13.6518 23.8268 13.031 23.8286ZM11.351 20.7635C11.1849 20.7635 11.0255 20.829 10.9074 20.9458C10.7893 21.0627 10.722 21.2214 10.7202 21.3875V21.4835C10.7202 21.6508 10.7867 21.8113 10.905 21.9296C11.0233 22.0479 11.1837 22.1143 11.351 22.1143H13.031C13.1972 22.1125 13.3559 22.0453 13.4727 21.9272C13.5895 21.809 13.6551 21.6496 13.655 21.4835V21.3875C13.655 21.222 13.5893 21.0633 13.4723 20.9462C13.3553 20.8292 13.1965 20.7635 13.031 20.7635H11.351Z" fill="black"/>
</g>
</svg>
