<svg width="24" height="25" viewBox="0 0 24 25" fill="none" xmlns="http://www.w3.org/2000/svg">
<g id="Tag">
<path id="Vector" d="M7.50002 6.92092C7.20334 6.92092 6.91333 7.00889 6.66666 7.17371C6.41999 7.33853 6.22773 7.5728 6.1142 7.84689C6.00067 8.12098 5.97096 8.42258 6.02884 8.71355C6.08672 9.00452 6.22958 9.2718 6.43936 9.48158C6.64914 9.69135 6.91641 9.83422 7.20738 9.89209C7.49835 9.94997 7.79995 9.92027 8.07404 9.80673C8.34813 9.6932 8.5824 9.50094 8.74722 9.25427C8.91204 9.0076 9.00002 8.71759 9.00002 8.42092C9.00002 8.02309 8.84198 7.64156 8.56068 7.36025C8.27937 7.07895 7.89784 6.92092 7.50002 6.92092ZM21.12 11.6309L12.71 3.21092C12.6166 3.11823 12.5058 3.04491 12.3839 2.99514C12.2621 2.94538 12.1316 2.92015 12 2.92092H3.00002C2.7348 2.92092 2.48045 3.02627 2.29291 3.21381C2.10537 3.40134 2.00002 3.6557 2.00002 3.92092V12.9209C1.99926 13.0525 2.02448 13.183 2.07425 13.3048C2.12401 13.4267 2.19734 13.5375 2.29002 13.6309L10.71 22.0409C11.2725 22.6027 12.035 22.9183 12.83 22.9183C13.625 22.9183 14.3875 22.6027 14.95 22.0409L21.12 15.9209C21.6818 15.3584 21.9974 14.5959 21.9974 13.8009C21.9974 13.0059 21.6818 12.2434 21.12 11.6809V11.6309ZM19.71 14.4509L13.53 20.6209C13.3427 20.8072 13.0892 20.9117 12.825 20.9117C12.5608 20.9117 12.3074 20.8072 12.12 20.6209L4.00002 12.5109V4.92092H11.59L19.71 13.0409C19.8027 13.1344 19.876 13.2452 19.9258 13.367C19.9756 13.4888 20.0008 13.6193 20 13.7509C19.9989 14.0133 19.8948 14.2647 19.71 14.4509Z" fill="#5D5D5D"/>
</g>
</svg>
