<svg width="5" height="14" viewBox="0 0 5 14" fill="none" xmlns="http://www.w3.org/2000/svg">
<path d="M2.5013 2.33737L2.5013 2.34404M2.5013 7.00951L2.5013 7.01618M2.5013 11.6816L2.5013 11.6883M2.5013 3.00482C2.13311 3.00482 1.83464 2.70599 1.83464 2.33737C1.83464 1.96875 2.13311 1.66992 2.5013 1.66992C2.86949 1.66992 3.16797 1.96875 3.16797 2.33737C3.16797 2.70599 2.86949 3.00482 2.5013 3.00482ZM2.5013 7.67696C2.13311 7.67696 1.83464 7.37813 1.83464 7.00951C1.83464 6.64089 2.13311 6.34206 2.5013 6.34206C2.86949 6.34206 3.16797 6.64089 3.16797 7.00951C3.16797 7.37813 2.86949 7.67696 2.5013 7.67696ZM2.5013 12.3491C2.13311 12.3491 1.83463 12.0503 1.83463 11.6816C1.83463 11.313 2.13311 11.0142 2.5013 11.0142C2.86949 11.0142 3.16797 11.313 3.16797 11.6816C3.16797 12.0503 2.86949 12.3491 2.5013 12.3491Z" stroke="#111827" stroke-width="2" stroke-linecap="round" stroke-linejoin="round"/>
</svg>
