<svg width="16" height="17" viewBox="0 0 16 17" fill="none" xmlns="http://www.w3.org/2000/svg">
<g clip-path="url(#clip0_3777_15572)">
<path d="M5.1674 5.66992C5.53909 5.29851 5.98035 5.004 6.46595 4.80325C6.95154 4.60249 7.47194 4.49941 7.9974 4.49992V8.49992L10.8274 11.3299C9.26406 12.8933 6.73406 12.8933 5.17073 11.3299C3.6074 9.76659 3.6074 7.23325 5.1674 5.66992ZM7.9974 1.83325C11.6807 1.83325 14.6641 4.81659 14.6641 8.49992C14.6641 12.1833 11.6807 15.1666 7.9974 15.1666C4.31406 15.1666 1.33073 12.1799 1.33073 8.49992C1.33073 4.81659 4.31406 1.83325 7.9974 1.83325ZM7.9974 13.8333C10.9441 13.8333 13.3307 11.4466 13.3307 8.49992C13.3307 5.55325 10.9441 3.16659 7.9974 3.16659C5.05073 3.16659 2.66406 5.55325 2.66406 8.49992C2.66406 11.4466 5.05073 13.8333 7.9974 13.8333Z" fill="#FD4034"/>
</g>
<defs>
<clipPath id="clip0_3777_15572">
<rect width="16" height="16" fill="white" transform="matrix(-1 0 0 1 16 0.5)"/>
</clipPath>
</defs>
</svg>
