<svg width="25" height="25" viewBox="0 0 25 25" fill="none" xmlns="http://www.w3.org/2000/svg">
<path d="M3.5 19.5081V10.568C3.5 9.89855 3.8342 9.27335 4.3906 8.90199L11.3906 4.22985C12.0624 3.78146 12.9376 3.78146 13.6094 4.22985L20.6094 8.90199C21.1658 9.27335 21.5 9.89855 21.5 10.568V19.5081M3.5 19.5081C3.5 20.614 4.39543 21.5105 5.5 21.5105H19.5C20.6046 21.5105 21.5 20.614 21.5 19.5081M3.5 19.5081L10.25 15.0029M21.5 19.5081L14.75 15.0029M3.5 10.4976L10.25 15.0029M21.5 10.4976L14.75 15.0029M14.75 15.0029L13.6094 15.7642C12.9376 16.2125 12.0624 16.2125 11.3906 15.7642L10.25 15.0029" stroke="#C9C9C9" stroke-width="2" stroke-linecap="round" stroke-linejoin="round"/>
</svg>
