<svg width="24" height="25" viewBox="0 0 24 25" fill="none" xmlns="http://www.w3.org/2000/svg">
<g id="Icon/Outline/users">
<path id="Icon" d="M12 5.28008C12.7329 4.44869 13.8053 3.92432 15 3.92432C17.2091 3.92432 19 5.71728 19 7.92901C19 10.1407 17.2091 11.9337 15 11.9337C13.8053 11.9337 12.7329 11.4093 12 10.5779M15 21.9454H3V20.9442C3 17.6267 5.68629 14.9372 9 14.9372C12.3137 14.9372 15 17.6267 15 20.9442V21.9454ZM15 21.9454H21V20.9442C21 17.6267 18.3137 14.9372 15 14.9372C13.9071 14.9372 12.8825 15.2297 12 15.7408M13 7.92901C13 10.1407 11.2091 11.9337 9 11.9337C6.79086 11.9337 5 10.1407 5 7.92901C5 5.71728 6.79086 3.92432 9 3.92432C11.2091 3.92432 13 5.71728 13 7.92901Z" stroke="#5D5D5D" stroke-width="2" stroke-linecap="round" stroke-linejoin="round"/>
</g>
</svg>
