<svg width="20" height="20" viewBox="0 0 20 20" fill="none" xmlns="http://www.w3.org/2000/svg">
<path d="M14.1641 16.6666H18.3307V14.9999C18.3307 13.6192 17.2114 12.4999 15.8307 12.4999C15.0344 12.4999 14.325 12.8723 13.8672 13.4523M14.1641 16.6666H5.83073M14.1641 16.6666V14.9999C14.1641 14.4531 14.0587 13.9308 13.8672 13.4523M5.83073 16.6666H1.66406V14.9999C1.66406 13.6192 2.78335 12.4999 4.16406 12.4999C4.9604 12.4999 5.66978 12.8723 6.1276 13.4523M5.83073 16.6666V14.9999C5.83073 14.4531 5.93608 13.9308 6.1276 13.4523M6.1276 13.4523C6.74198 11.9174 8.24308 10.8333 9.9974 10.8333C11.7517 10.8333 13.2528 11.9174 13.8672 13.4523M12.4974 5.83325C12.4974 7.21396 11.3781 8.33325 9.9974 8.33325C8.61668 8.33325 7.4974 7.21396 7.4974 5.83325C7.4974 4.45254 8.61668 3.33325 9.9974 3.33325C11.3781 3.33325 12.4974 4.45254 12.4974 5.83325ZM17.4974 8.33325C17.4974 9.25373 16.7512 9.99992 15.8307 9.99992C14.9103 9.99992 14.1641 9.25373 14.1641 8.33325C14.1641 7.41278 14.9103 6.66659 15.8307 6.66659C16.7512 6.66659 17.4974 7.41278 17.4974 8.33325ZM5.83073 8.33325C5.83073 9.25373 5.08454 9.99992 4.16406 9.99992C3.24359 9.99992 2.4974 9.25373 2.4974 8.33325C2.4974 7.41278 3.24359 6.66659 4.16406 6.66659C5.08454 6.66659 5.83073 7.41278 5.83073 8.33325Z" stroke="#7A7A7A" stroke-width="2" stroke-linecap="round" stroke-linejoin="round"/>
</svg>
