<svg width="24" height="29" viewBox="0 0 24 29" fill="none" xmlns="http://www.w3.org/2000/svg">
<g id="valet" clip-path="url(#clip0_3348_15057)">
<path id="Vector" d="M8.2766 3.32814V1.01389C8.2766 1.01389 7.72792 0 5.74813 0C3.76834 0 3.21966 1.01389 3.21966 1.01389V3.32814C3.70352 2.8671 4.72904 2.65431 5.74836 2.65431C6.76733 2.65431 7.79263 2.8671 8.2766 3.32814ZM8.9571 9.42169C8.9571 9.68945 8.96859 9.96995 8.99227 10.2591C9.01514 10.3162 9.03801 10.3754 9.06088 10.4382C9.38476 11.3349 9.65726 12.8058 9.65622 15.1024C9.65622 15.5174 9.64657 15.962 9.62807 16.4324C9.85965 16.475 10.1605 16.4924 10.4583 16.4918C10.843 16.4919 11.222 16.4661 11.4678 16.4451C11.4855 15.9742 11.4951 15.5252 11.4951 15.1025C11.4906 11.6383 10.9364 9.72124 10.181 8.56836C9.85655 8.07657 9.48498 7.73742 9.12789 7.52245C9.03675 8.02618 8.9571 8.67717 8.9571 9.42169ZM10.4582 16.836C10.1655 16.8352 9.87045 16.822 9.61301 16.7789C9.60634 16.9157 9.59979 17.0525 9.59152 17.1939C9.56164 17.7003 9.94861 18.1347 10.4559 18.1643C10.4741 18.1654 10.4921 18.1659 10.51 18.1659C10.9933 18.1659 11.3987 17.7891 11.4274 17.3008C11.4374 17.1275 11.4458 16.9588 11.4536 16.7915C11.2013 16.8124 10.834 16.8359 10.4582 16.836ZM1.03759 16.4916C1.33503 16.4923 1.63569 16.4748 1.8675 16.4321C1.84877 15.962 1.839 15.5173 1.83912 15.1024C1.83555 12.6399 2.15368 11.1334 2.50353 10.2552C2.52686 9.96754 2.53835 9.68818 2.53824 9.42146C2.53835 8.67751 2.45917 8.02549 2.36814 7.52176C1.80119 7.86195 1.21367 8.51178 0.790606 9.58822C0.318587 10.7794 0.00172396 12.5018 0 15.1025C0.00011493 15.5251 0.00988401 15.9739 0.0278132 16.4444C0.0670044 16.4478 0.108379 16.4512 0.153892 16.4548C0.393522 16.4732 0.713833 16.4916 1.03759 16.4916ZM0.0420645 16.7916C0.0498798 16.9589 0.0583847 17.128 0.0684985 17.3013C0.0972311 17.7893 0.502246 18.1656 0.985413 18.1656C1.00369 18.1656 1.02196 18.1651 1.04047 18.164C1.54742 18.1343 1.93416 17.6998 1.9044 17.1934C1.89612 17.0521 1.88946 16.9154 1.88279 16.7788C1.62535 16.8221 1.33032 16.8354 1.03782 16.8361C0.661884 16.8359 0.294222 16.8124 0.0420645 16.7916ZM2.88303 9.42157C2.88303 10.1038 2.81694 10.8628 2.63961 11.6574V13.7528V15.9266V27.1742C2.63961 27.958 3.27598 28.5933 4.06049 28.5933C4.66744 28.5933 5.18428 28.2125 5.38794 27.6775C5.44759 27.5209 5.48172 27.3516 5.48172 27.174V17.7798H6.01442V27.174C6.01442 27.9579 6.65079 28.5932 7.43531 28.5932C8.22005 28.5932 8.85642 27.9579 8.85642 27.174V15.9265V13.7527V11.6575C8.67885 10.8628 8.61266 10.1038 8.61266 9.42157C8.61277 8.60142 8.70563 7.89144 8.80758 7.35787C8.46141 7.21119 8.16339 7.17963 7.98433 7.18009C7.91135 7.18032 7.85561 7.18525 7.81906 7.18996H7.20384C7.17786 7.98406 6.77319 9.06957 6.39645 9.91738L6.21084 8.55161C6.062 8.60738 5.90547 8.63654 5.7487 8.63654H5.74801H5.74779C5.59102 8.63665 5.43414 8.6075 5.28508 8.55172L5.09958 9.91715C4.72295 9.06934 4.31817 7.98395 4.29219 7.18996H3.67605C3.67524 7.18984 3.67456 7.18973 3.67375 7.1895C3.63927 7.18514 3.58422 7.18055 3.51112 7.18055C3.33218 7.17986 3.03428 7.21119 2.68811 7.3581C2.79017 7.89167 2.88291 8.6013 2.88303 9.42157ZM6.64562 10.4251H8.10133V10.8078H6.64562V10.4251Z" fill="black"/>
<path id="Vector_2" d="M5.12822 8.06761C5.30809 8.21739 5.52807 8.29199 5.74965 8.29222C5.97124 8.29199 6.19167 8.21716 6.37154 8.06715L6.40487 8.0147L6.1865 7.15392H5.74988H5.31303L5.09466 8.0147L5.12822 8.06761ZM8.33593 3.95352C8.33593 2.52737 3.16406 2.52737 3.16406 3.95352C3.16406 5.3799 4.32187 6.53587 5.75 6.53587C7.17824 6.53587 8.33593 5.3799 8.33593 3.95352ZM13.5815 28.4061H23.159V12.6441H24.0019V11.5728H12.7387V12.6441H13.5815V28.4061ZM14.9224 15.0929C14.9224 14.7759 15.1796 14.519 15.497 14.519H21.2435C21.561 14.519 21.8182 14.7759 21.8182 15.0929V20.8314C21.8182 21.1484 21.561 21.4053 21.2435 21.4053H15.497C15.1796 21.4053 14.9224 21.1484 14.9224 20.8314V15.0929Z" fill="black"/>
<path id="Vector_3" d="M18.0334 18.5631C18.1198 18.5817 18.231 18.5878 18.3544 18.5878C18.91 18.5878 19.3855 18.4462 19.7065 18.1502C19.9594 17.922 20.0892 17.5707 20.0892 17.1638C20.0892 16.757 19.9163 16.4117 19.6447 16.2022C19.3668 15.9802 18.9533 15.8693 18.3732 15.8693C17.799 15.8693 17.3915 15.9063 17.1016 15.9556V20.0549H18.0335L18.0334 18.5631ZM18.0334 16.6152C18.1015 16.5969 18.231 16.5845 18.4161 16.5845C18.8916 16.5845 19.1569 16.8124 19.1569 17.1946C19.1569 17.6137 18.8482 17.8666 18.3483 17.8666C18.2063 17.8666 18.1138 17.8603 18.0334 17.8419V16.6152Z" fill="black"/>
</g>
<defs>
<clipPath id="clip0_3348_15057">
<rect width="24" height="28.5933" fill="white"/>
</clipPath>
</defs>
</svg>
