<svg width="436" height="349" viewBox="0 0 436 349" fill="none" xmlns="http://www.w3.org/2000/svg">
<g opacity="0.5">
<path opacity="0.5" d="M377.598 319.335C386.34 326.751 43.391 326.751 52.1372 319.335C43.391 311.919 386.34 311.919 377.598 319.335Z" fill="#5BCAF4"/>
<g opacity="0.3">
<path opacity="0.8" d="M364.537 170.434C361.202 365.53 68.5671 365.499 65.2578 170.434C68.5932 -24.6655 361.228 -24.6306 364.537 170.434Z" fill="#5BCAF4"/>
<path opacity="0.6" d="M185.488 231.649C183.53 345.946 12.073 345.946 10.1328 231.649C12.0905 117.351 183.556 117.351 185.488 231.649ZM244.247 231.649C246.205 345.946 417.662 345.946 419.602 231.649C417.645 117.351 246.188 117.351 244.247 231.649Z" fill="#5BCAF4"/>
<path opacity="0.5" d="M299.458 143.112C300.801 221.428 418.272 221.415 419.602 143.112C418.259 64.7921 300.788 64.8051 299.458 143.112ZM130.273 143.112C128.934 221.428 11.4626 221.415 10.1328 143.112C11.4713 64.7921 128.943 64.8051 130.273 143.112Z" fill="#5BCAF4"/>
</g>
</g>
<g opacity="0.9">
<g opacity="0.8">
<path d="M338.142 275.614C339.908 263.399 349.539 254.473 361.189 251.359C382.989 245.055 384.999 228.927 387.903 236.989C390.807 245.05 384.707 253.762 389.935 260.066C395.163 266.37 391.007 278.179 382.632 280.771C374.256 283.362 344.264 303.085 344.264 318.86H321.697C320.541 318.86 320.541 310.235 320.589 309.589C321.038 295.878 334.903 288.257 338.142 275.614Z" fill="#56C0A3"/>
<g opacity="0.8">
<path d="M354.471 285.849C354 278.088 357.623 270.309 363.457 265.214C366.783 262.296 370.489 260.171 373.716 257.335C376.249 255.254 379.105 253.252 380.543 250.207C379.384 253.959 376.027 256.428 373.306 259.041C363.858 266.178 355.269 273.045 354.471 285.849Z" fill="white"/>
</g>
</g>
<path d="M418.289 289.727C415.154 299.464 406.621 304.882 396.925 307.02C369.295 313.088 356.377 316.918 352.06 318.288C350.059 319.4 328.678 318.654 326.07 318.859C333.552 301.54 332.506 271.701 370.595 274.253C396.144 279.052 405.828 260.45 412.015 255.149C413.323 254.028 418.324 249.269 419.104 253.06C416.479 265.297 421.838 277.512 418.289 289.727Z" fill="#3EC5E5"/>
<path d="M408.81 274.432C403.875 293.038 380.906 293.374 365.175 294.818C355.531 295.961 345.612 301.702 343.184 311.679C344.457 301.135 354.716 294.429 364.548 293.016C380.143 290.979 402.07 291.934 408.81 274.432Z" fill="#3EC5E5"/>
<path opacity="0.8" d="M408.81 274.432C403.875 293.038 380.906 293.374 365.175 294.818C355.531 295.961 345.612 301.702 343.184 311.679C344.457 301.135 354.716 294.429 364.548 293.016C380.143 290.979 402.07 291.934 408.81 274.432Z" fill="white"/>
<g opacity="0.8">
<path d="M91.5959 275.614C89.8257 263.399 80.1945 254.473 68.5489 251.359C46.7707 245.055 44.739 228.927 41.8352 236.989C38.9315 245.05 45.0267 253.762 39.7991 260.066C34.5715 266.37 38.7309 278.179 47.089 280.771C55.4471 283.362 85.457 303.085 85.457 318.86H108.042C109.197 318.86 109.197 310.235 109.149 309.589C108.7 295.878 94.8354 288.257 91.5959 275.614Z" fill="#56C0A3"/>
<g opacity="0.8">
<path d="M75.2833 285.849C75.7585 278.088 72.1354 270.309 66.3017 265.214C62.975 262.296 59.269 260.171 56.0426 257.335C53.5094 255.254 50.6536 253.252 49.2148 250.207C50.3746 253.959 53.7318 256.428 56.4524 259.041C65.8788 266.178 74.468 273.045 75.2833 285.849Z" fill="white"/>
</g>
</g>
<path d="M11.4514 289.727C14.5818 299.464 23.1187 304.882 32.8154 307.02C60.4447 313.088 73.3633 316.918 77.6754 318.288C79.681 319.4 101.062 318.654 103.67 318.859C96.1836 301.54 97.2344 271.701 59.1454 274.253C33.5914 279.052 23.9122 260.45 17.7254 255.149C16.4174 254.028 11.4165 249.269 10.636 253.06C13.2564 265.297 7.90231 277.512 11.4514 289.727Z" fill="#3EC5E5"/>
<path d="M20.9297 274.432C25.8652 293.038 48.8598 293.374 64.5689 294.818C74.2132 295.961 84.1323 301.702 86.5564 311.679C85.2877 301.135 75.0242 294.429 65.1924 293.016C49.5923 290.979 27.6659 291.934 20.9297 274.432Z" fill="#3EC5E5"/>
<path opacity="0.8" d="M20.9297 274.432C25.8652 293.038 48.8598 293.374 64.5689 294.818C74.2132 295.961 84.1323 301.702 86.5564 311.679C85.2877 301.135 75.0242 294.429 65.1924 293.016C49.5923 290.979 27.6659 291.934 20.9297 274.432Z" fill="white"/>
</g>
<g opacity="0.5">
<g style="mix-blend-mode:multiply" opacity="0.8">
<g style="mix-blend-mode:multiply" opacity="0.8">
<path d="M53.3329 220.546C51.7023 220.066 53.5466 218.679 54.2049 217.75C61.0719 209.649 70.3369 199.096 77.8623 190.406C75.1286 193.163 72.1158 196.221 69.2338 199.131C49.4394 219.198 49.2607 219.198 48.7418 219.198C47.8698 219.141 47.9745 218.203 48.489 217.75C57.1174 207.563 69.0638 194.524 78.1893 184.01C70.1712 192.094 59.1056 203.471 51.493 211.093C43.7104 218.509 44.6434 218.509 43.1828 218.073C42.664 217.562 43.039 217.113 44.6129 215.237C53.298 205.12 65.7284 191.636 75.1329 180.996C67.4942 188.512 37.7459 219.181 40.0654 215.808C39.8883 215.808 39.7183 215.739 39.5902 215.617C39.0801 215.106 39.394 214.744 41.138 212.676C49.6662 202.813 61.5297 189.921 70.786 179.521C67.734 182.575 64.3855 186.004 61.1722 189.263C38.7095 212.065 37.432 213.152 36.7954 213.156C35.4874 212.689 35.9932 212.284 37.9072 209.98C46.6272 199.912 58.7742 186.698 68.2136 176.097C63.7184 180.59 58.3556 185.995 53.5335 190.859C34.2318 210.307 34.1707 210.307 33.6998 210.312C33.613 210.314 33.5265 210.299 33.4462 210.265C33.3658 210.232 33.2933 210.183 33.2333 210.12C32.5532 208.855 34.6329 207.598 35.5616 206.137C42.6814 197.791 52.1296 187.4 60.2828 178.287C53.8125 184.564 34.9206 204.601 31.1885 206.826C31.0093 206.825 30.8376 206.754 30.7089 206.63C30.0898 205.605 31.4196 204.998 32.0518 204.012C40.811 193.931 53.346 180.258 62.6459 169.74C58.9791 173.436 54.6322 177.859 50.5294 182.038C30.5214 202.376 29.4619 203.292 28.8428 203.292C27.5348 202.856 28.0624 202.389 29.8194 200.239C37.7241 191.012 48.6546 179.02 57.2874 169.265C53.9041 172.655 50.0498 176.537 46.3874 180.228C27.1598 199.584 27.0857 199.584 26.5974 199.584C25.5161 199.262 25.7254 198.834 26.9854 197.403C35.1692 187.941 46.3831 175.46 54.763 165.74C50.6341 169.666 25.2763 195.885 26.2137 194.096C26.0392 194.095 25.8719 194.027 25.7472 193.904C25.115 192.91 26.5276 192.186 27.1555 191.147C33.1243 183.94 41.0246 174.805 47.7216 166.94C45.5416 169.121 43.2482 171.485 41.1118 173.662C25.6774 188.97 26.8459 188.931 25.2196 188.521C24.413 187.417 27.7005 184.699 28.8908 182.824C32.5226 178.321 37.8724 171.821 41.949 166.822C20.9556 188.796 23.637 183.648 34.1707 168.624C32.139 170.665 32.091 170.665 31.8163 170.665C31.6771 170.665 31.5417 170.619 31.4302 170.536C31.3187 170.453 31.2369 170.336 31.1968 170.202C31.1568 170.069 31.1606 169.926 31.2078 169.795C31.2549 169.664 31.3429 169.552 31.4588 169.474C31.7727 169.2 33.4862 167.468 34.7506 166.194C37.8026 163.14 37.8026 163.14 38.1122 163.14C39.8213 163.659 37.6326 165.474 37.0178 166.748C35.0907 169.627 32.1651 173.885 30.0418 177.052C33.072 174.203 50.1676 156.256 49.1648 158.123C50.2722 158.45 49.9888 158.913 48.7854 160.44C43.8979 166.621 37.3143 174.5 31.9602 181.122C34.4803 178.579 37.4146 175.591 40.1875 172.764C55.7222 156.941 55.8835 156.941 56.4067 156.937C57.2438 156.989 57.1872 157.901 56.6814 158.346C50.4161 165.941 42.1713 175.372 35.3174 183.513C82.4054 135.176 57.5272 165.483 38.0686 186.772C40.4753 184.355 43.0215 181.785 45.4806 179.316C66.3126 158.333 66.4304 158.333 66.91 158.328C68.218 158.764 67.6686 159.24 65.8897 161.408C57.8063 170.857 46.5444 183.199 37.759 193.154C41.3778 189.507 45.607 185.197 49.6226 181.118C69.5783 160.802 70.6465 159.899 71.2612 159.894C72.5954 160.4 72.1332 160.697 69.9532 163.384C61.4905 173.239 49.8144 185.982 40.4753 196.465C45.6157 191.483 76.938 159.227 74.6577 162.438C74.8336 162.438 75.0026 162.507 75.1286 162.63C75.7302 163.528 74.6272 163.991 74.117 164.811C64.7387 175.372 52.3214 188.979 42.5855 200.021L52.6135 189.943C77.8579 164.902 76.6851 164.929 78.3506 165.339C78.8651 165.849 78.5381 166.233 76.7287 168.366C67.8822 178.592 55.478 192.081 45.9209 202.83C50.2809 198.468 55.5129 193.128 60.2348 188.351C80.1208 168.166 80.2646 168.166 80.8009 168.161C80.9777 168.164 81.1471 168.232 81.2762 168.353C81.795 168.872 81.4244 169.309 79.6499 171.407C71.283 181.114 59.8119 193.577 50.5861 203.912C53.4332 201.046 56.5332 197.905 59.5023 194.899C81.5334 172.589 82.6932 171.595 83.2774 171.595C84.6072 172.053 84.0317 172.563 82.1482 174.884C73.572 184.939 61.4774 198.057 52.147 208.593C60.3569 200.479 87.633 172.039 86.0242 174.906C86.2032 174.904 86.3756 174.973 86.5038 175.098C87.0052 175.595 86.7654 175.948 84.6595 178.483C77.2824 187.208 67.5596 197.975 59.171 207.467C68.8196 197.87 87.9862 177.872 87.184 179.735C88.0908 179.848 87.9644 180.686 87.3671 181.275C80.2646 189.769 71.0694 200.151 63.2214 209.256C64.9654 207.511 66.7486 205.683 68.4883 203.916C87.3235 184.669 89.1242 183.033 88.1083 186.436C81.8909 194.131 73.5851 203.729 66.7792 211.895C70.4982 208.309 89.7956 188.237 88.4309 190.414C88.6068 190.415 88.7755 190.484 88.9018 190.606C89.4991 191.479 88.3873 192.05 87.9034 192.914C83.8398 198.123 78.5512 204.636 73.9252 210.412C86.7698 197.421 87.9339 196.051 87.5633 198.76C86.4079 199.58 79.8199 206.333 74.6097 211.564C66.9361 219.316 66.9448 219.312 66.5742 219.312C65.5584 219.006 65.7022 218.64 66.8053 217.252C71.1653 211.721 76.9336 204.601 81.686 198.664L78.0803 202.324C60.3656 220.306 60.1694 220.306 59.6462 220.306C59.4683 220.305 59.2979 220.235 59.171 220.11C58.6608 219.604 58.6608 219.604 63.7838 213.461C68.4272 207.899 75.2158 199.89 80.3518 193.791C76.9816 197.172 73.0052 201.207 69.4213 204.841C53.9215 220.546 53.8343 220.546 53.346 220.546H53.3329ZM86.6433 198.76C86.7195 198.834 86.8121 198.889 86.9136 198.921C86.8115 198.891 86.7186 198.835 86.6433 198.76ZM31.8294 169.378C31.9143 169.378 31.9984 169.394 32.077 169.427C32.1555 169.459 32.227 169.506 32.2872 169.566C32.19 169.469 32.0647 169.406 31.9292 169.385C31.7937 169.363 31.655 169.386 31.5329 169.448C31.6246 169.401 31.7264 169.377 31.8294 169.378Z" fill="#5BCAF4"/>
</g>
</g>
<g style="mix-blend-mode:multiply" opacity="0.8">
<g style="mix-blend-mode:multiply" opacity="0.8">
<path d="M212.168 89.5448C210.969 89.1958 212.321 88.175 212.801 87.4944C217.845 81.5483 224.656 73.8049 230.162 67.4269C228.157 69.4468 225.946 71.6891 223.831 73.8311C209.308 88.5589 209.178 88.5589 208.789 88.5589C208.153 88.5152 208.227 87.826 208.602 87.4901C214.955 80.0127 223.709 70.4458 230.402 62.7329C223.862 69.0192 210.721 83.4853 205.066 87.8652C204.107 87.5468 204.512 87.1585 205.764 85.6404C212.134 78.2241 221.259 68.3212 228.148 60.5167C222.541 66.0309 200.71 88.5371 202.424 86.0592C202.36 86.0605 202.297 86.0488 202.237 86.0248C202.178 86.0008 202.124 85.965 202.079 85.9196C201.439 84.9336 205.158 81.8537 206.518 79.9778C211.68 74.1626 219.406 65.6601 224.978 59.4348C183.018 102.523 200.998 80.8111 223.09 56.922C219.794 60.2201 215.857 64.1856 212.317 67.7541C198.147 82.0151 198.103 82.0151 197.754 82.0151C197.691 82.018 197.628 82.007 197.569 81.9829C197.51 81.9588 197.457 81.9222 197.414 81.8755C196.943 80.8852 198.421 80.0651 199.123 78.9526C204.355 72.8451 211.275 65.202 217.261 58.5187C212.513 63.1299 198.657 77.8489 195.897 79.4587C194.685 79.0922 196.036 78.0671 196.534 77.3822C202.96 69.9659 212.16 59.954 218.983 52.2323C182.595 89.8371 189.51 79.8688 215.059 51.8921C177.127 90.5613 193.625 71.279 213.219 49.3095C210.189 52.1931 191.581 71.4317 192.269 70.123C192.141 70.1223 192.018 70.0723 191.925 69.9833C191.463 69.2548 192.496 68.7226 192.958 67.9591C197.34 62.6718 203.135 55.9666 208.048 50.195C184.94 74.2368 188.38 68.4652 203.815 50.1078C188.45 66.2054 190.386 62.4101 198.103 51.4166C196.616 52.9173 196.581 52.9173 196.359 52.9173C196.258 52.9143 196.161 52.8797 196.081 52.8184C196.001 52.757 195.943 52.672 195.914 52.5755C195.885 52.4789 195.887 52.3756 195.92 52.2804C195.953 52.1851 196.015 52.1027 196.098 52.0448C196.586 51.7088 200.963 46.9232 200.981 47.3856C203.026 47.3158 195.605 56.1935 195.051 57.5939C197.275 55.5042 209.818 42.3251 209.082 43.7037C209.893 43.9436 209.688 44.2839 208.803 45.4007C205.219 49.9464 200.388 55.7398 196.455 60.5909C198.304 58.7237 200.458 56.5294 202.494 54.4572C213.895 42.8442 214.008 42.8442 214.396 42.8442C215.011 42.8791 214.968 43.551 214.597 43.8782C210.002 49.4491 203.95 56.3811 198.901 62.3446C233.275 27.0476 215.199 49.1393 200.92 64.7353C239.92 24.9405 217.344 51.2115 200.689 69.4206C203.344 66.7464 206.453 63.5792 209.409 60.5865C224.054 45.6799 224.839 45.0168 225.292 45.0124C225.424 45.0134 225.55 45.0649 225.645 45.1564C226.016 45.5272 225.837 45.7715 224.337 47.5688C218.129 54.8019 209.561 64.1463 202.707 71.8418C206.479 68.186 229.46 44.5194 227.79 46.8665C227.854 46.8656 227.917 46.8776 227.977 46.9015C228.036 46.9255 228.09 46.961 228.135 47.0061C228.649 47.9571 226.138 49.7108 225.201 51.0806C219.097 57.921 210.599 67.3004 204.273 74.4593C247.437 30.398 229.395 51.8746 206.718 76.5184C209.923 73.3076 213.769 69.3988 217.222 65.8913C231.815 51.0806 231.924 51.0806 232.312 51.0806C232.442 51.0802 232.567 51.1302 232.66 51.2202C233.262 52.2978 229.452 55.4475 228.008 57.4237C223.012 63.0557 215.617 71.1961 210.132 77.3124C251.849 34.5599 231.679 58.6103 211.275 80.75C243.434 47.3725 244.642 48.7336 216.428 79.9211C248.884 46.5175 238.516 59.7315 219.397 81.2299C249.865 49.846 236.537 66.345 222.013 83.1668C224.751 80.5493 238.9 65.8084 237.906 67.4051C239.501 67.8021 236.122 70.6421 235.399 71.929C233.136 74.769 229.874 78.8174 227.258 82.0806C237.007 72.531 236.131 72.5485 237.286 72.8539C237.818 73.7656 231.305 78.9134 227.782 82.9269C222.153 88.5981 222.153 88.5981 221.883 88.5981C221.756 88.5968 221.634 88.5468 221.542 88.4585C221.229 88.1444 221.355 87.983 222.053 87.0843C225.248 83.0272 229.486 77.814 232.974 73.4472C223.269 83.1843 216.873 89.9636 216.799 89.3136C216.668 89.312 216.544 89.2604 216.45 89.1696C216.075 88.7988 216.075 88.7988 219.838 84.2924C223.243 80.209 228.222 74.3328 231.985 69.8568C229.513 72.3391 226.596 75.2969 223.967 77.9624C212.591 89.5012 212.526 89.5012 212.168 89.5012V89.5448ZM236.611 73.5606C236.667 73.6132 236.734 73.6533 236.807 73.6784C236.733 73.6554 236.666 73.615 236.611 73.5606ZM196.381 51.9968C196.508 51.9977 196.63 52.0477 196.721 52.1364C196.65 52.0656 196.558 52.019 196.458 52.0034C196.359 51.9877 196.257 52.0037 196.167 52.0491C196.233 52.0137 196.306 51.9957 196.381 51.9968Z" fill="#5BCAF4"/>
</g>
</g>
<g style="mix-blend-mode:multiply" opacity="0.8">
<g style="mix-blend-mode:multiply" opacity="0.8">
<path d="M386.237 206.752C385.439 206.516 386.342 205.845 386.673 205.386C390.021 201.438 394.547 196.291 398.21 192.055C372.25 218.627 387.231 201.216 398.371 188.935C394.011 193.115 385.291 202.725 381.533 205.64C380.896 205.43 381.166 205.168 381.999 204.161C386.233 199.227 392.293 192.648 396.875 187.461C371.308 213.723 377.116 205.932 394.761 186.741C367.114 215.15 378.86 200.889 393.505 185.07C391.325 187.252 388.709 189.9 386.346 192.268C376.933 201.757 376.902 201.757 376.671 201.757C376.157 201.674 376.327 201.225 376.671 200.815C380.443 196.23 385.278 191.021 389.62 186.139C386.464 189.193 377.251 198.987 375.433 200.06C374.626 199.82 375.524 199.135 375.869 198.681C380.137 193.765 386.25 187.095 390.789 181.964C366.809 206.782 371.291 200.204 388.173 181.737C363.09 207.31 373.937 194.598 386.952 180.023C384.938 181.938 372.564 194.725 373.026 193.852C372.215 193.612 373.161 192.897 373.484 192.417C376.396 188.901 380.251 184.446 383.512 180.607C368.252 196.513 370.484 192.679 380.695 180.551C370.524 191.226 371.788 188.682 376.902 181.423C375.703 182.518 376.03 182.523 375.524 182.326C375.228 181.689 376.479 181.17 377.186 180.237C378.668 178.74 378.668 178.74 378.825 178.74C380.068 178.967 375.337 184.412 374.901 185.524C390.597 169.256 384.17 177.549 375.834 187.513C394.831 167.86 388.417 176.21 377.46 188.682C400.167 165.352 388.299 179.923 378.803 190.27C404.462 164.074 389.738 181.297 378.651 193.385C405.103 166.076 395.38 178.3 379.959 194.995C382.466 192.565 397.743 176.834 396.631 178.396C397.359 178.583 396.666 179.181 396.365 179.543C391.813 184.717 385.749 191.348 381.009 196.731C409.467 167.66 397.678 181.777 382.636 198.101C407.666 172.293 402.639 179.377 384.912 198.629C412.38 170.43 399.225 186.239 385.67 200.915C406.943 178.814 407.754 179.761 389.097 200.365C410.483 178.335 403.734 187.02 391.068 201.238C411.189 180.503 402.452 191.374 392.812 202.525C394.626 200.78 404.039 190.986 403.372 192.055C404.876 192.159 397.08 200.396 396.296 201.805C402.774 195.457 402.195 195.471 402.949 195.676C403.141 196.474 399.077 199.576 396.631 202.368C392.89 206.146 392.89 206.146 392.707 206.146C391.173 206.115 399.374 197.421 400.08 196.077C380.722 215.996 391.229 203.131 399.422 193.691C397.778 195.34 395.838 197.307 394.094 199.078C386.533 206.748 386.49 206.748 386.246 206.748L386.237 206.752ZM402.482 196.125C402.518 196.163 402.563 196.19 402.613 196.203C402.563 196.189 402.518 196.162 402.482 196.125ZM375.747 181.798C375.83 181.799 375.91 181.832 375.969 181.89C375.922 181.843 375.862 181.812 375.796 181.801C375.73 181.79 375.663 181.8 375.603 181.829C375.648 181.808 375.697 181.798 375.747 181.798Z" fill="#5BCAF4"/>
</g>
</g>
</g>
<g style="mix-blend-mode:multiply" opacity="0.5">
<g style="mix-blend-mode:multiply" opacity="0.8">
<path d="M20.8789 149.019C43.8088 135.61 67.9312 124.356 92.9366 115.402C70.0058 128.809 45.8836 140.062 20.8789 149.019ZM125.414 73.5608C148.718 60.8799 172.783 49.6526 197.472 39.9434C174.167 52.6225 150.102 63.8496 125.414 73.5608ZM379.092 217.938C394.183 209.638 409.809 202.351 425.866 196.125C410.774 204.424 395.149 211.71 379.092 217.938Z" fill="#5BCAF4"/>
</g>
</g>
<path d="M254.726 77.4604H113.598C110.696 77.4604 108.344 79.814 108.344 82.7173V313.603C108.344 316.506 110.696 318.859 113.598 318.859H254.726C257.628 318.859 259.98 316.506 259.98 313.603V82.7173C259.98 79.814 257.628 77.4604 254.726 77.4604Z" fill="#1D7187"/>
<path d="M246.148 87.7778H122.172C119.27 87.7778 116.918 90.1314 116.918 93.0346V303.281C116.918 306.184 119.27 308.538 122.172 308.538H246.148C249.05 308.538 251.402 306.184 251.402 303.281V93.0346C251.402 90.1314 249.05 87.7778 246.148 87.7778Z" fill="#E3F3F6"/>
<g style="mix-blend-mode:multiply">
<path d="M152.163 114.686C151.915 129.291 130.01 129.287 129.762 114.686C130.01 100.085 151.911 100.085 152.163 114.686Z" fill="#B6E2E5"/>
</g>
<path d="M235.93 103.579H164.578C163.126 103.579 161.949 104.757 161.949 106.21V123.167C161.949 124.62 163.126 125.797 164.578 125.797H235.93C237.382 125.797 238.559 124.62 238.559 123.167V106.21C238.559 104.757 237.382 103.579 235.93 103.579Z" fill="#B6E2E5"/>
<path opacity="0.5" d="M235.928 137.759H132.387C130.935 137.759 129.758 138.937 129.758 140.39V147.248C129.758 148.701 130.935 149.878 132.387 149.878H235.928C237.38 149.878 238.557 148.701 238.557 147.248V140.39C238.557 138.937 237.38 137.759 235.928 137.759Z" fill="#B6E2E5"/>
<path d="M229.512 270.344H139.012C136.835 270.344 135.07 272.11 135.07 274.288V286.568C135.07 288.746 136.835 290.512 139.012 290.512H229.512C231.689 290.512 233.454 288.746 233.454 286.568V274.288C233.454 272.11 231.689 270.344 229.512 270.344Z" fill="#F9A05E"/>
<path d="M159.863 276.858L157.521 283.955H155.742L154.168 279.157L152.542 283.955H150.776L148.422 276.858H150.14L151.757 281.848L153.445 276.858H154.979L156.614 281.888L158.267 276.858H159.863ZM161.807 276.858H163.464V283.955H161.807V276.858ZM167.667 278.197H165.374V276.858H171.613V278.197H169.319V283.955H167.667V278.197ZM180.089 276.858V283.955H178.432V281.046H175.179V283.955H173.527V276.858H175.184V279.637H178.436V276.84L180.089 276.858ZM182.805 276.858C185.539 276.74 190.108 276.539 190.003 280.409C190.112 284.274 185.534 284.078 182.805 283.955V276.858ZM185.975 282.607C189.537 282.463 189.227 277.399 184.462 278.206V282.607H185.975ZM196.831 283.955L195.453 281.979H193.932V283.955H192.275V276.858C193.387 276.923 196.055 276.653 197.023 277.172C198.954 277.913 198.963 280.954 197.023 281.674L198.627 283.955H196.831ZM196.395 278.515C195.937 278.079 194.559 278.223 193.914 278.197V280.671C195.44 280.871 197.816 280.426 196.412 278.515H196.395ZM205.525 282.433H202.202L201.566 283.955H199.87L203.061 276.858H204.696L207.897 283.955H206.153L205.525 282.433ZM205.002 281.185L203.868 278.467L202.739 281.185H205.002ZM220.092 276.858L217.75 283.955H215.971L214.397 279.157L212.771 283.955H211.023L208.668 276.858H210.386L212.004 281.848L213.691 276.858H215.221L216.856 281.888L218.526 276.858H220.092Z" fill="#E3F3F6"/>
<path d="M233.504 171.926H135.012C132.11 171.926 129.758 174.28 129.758 177.183V250.255C129.758 253.158 132.11 255.512 135.012 255.512H233.504C236.406 255.512 238.758 253.158 238.758 250.255V177.183C238.758 174.28 236.406 171.926 233.504 171.926Z" fill="#F9A05E"/>
<path d="M229.174 216.084H139.358C139.103 216.084 138.849 216.034 138.613 215.937C138.376 215.839 138.162 215.696 137.981 215.515C137.8 215.335 137.656 215.12 137.558 214.884C137.46 214.647 137.409 214.394 137.409 214.138C137.244 212.829 137.845 211.333 139.358 211.355H229.174C231.83 211.315 231.838 216.127 229.174 216.084Z" fill="#E3F3F6"/>
<path d="M252.29 269.685C252.312 270.632 251.418 271.334 250.515 271.369C250.463 271.4 189.227 271.369 189.148 271.369C188.9 271.386 188.651 271.351 188.417 271.267C188.182 271.182 187.969 271.049 187.789 270.878C187.608 270.706 187.466 270.498 187.371 270.268C187.275 270.038 187.229 269.79 187.234 269.541C189.414 226.985 148.086 213.701 147.449 216.009C147.484 215.535 147.704 215.094 148.061 214.781C148.419 214.469 148.885 214.309 149.359 214.338H212.662C224.442 214.199 252.669 231.265 252.29 269.685Z" fill="url(#paint0_linear_8710_29678)"/>
<g opacity="0.8">
<g style="mix-blend-mode:multiply" opacity="0.5">
<path d="M217.262 224.992C217.262 232.116 184.793 230.96 185.399 223.77C185.403 216.646 217.868 217.802 217.262 224.992Z" fill="#0F8542"/>
</g>
</g>
<path opacity="0.6" d="M241.544 238.838C236.051 228.504 219.06 213.737 208.025 214.343C224.872 219.761 247.701 236.504 246.161 264.512C245.446 265.384 194.713 264.512 193.802 264.808C193.531 264.822 193.265 264.735 193.054 264.563C192.844 264.391 192.705 264.148 192.664 263.879C193.148 255.904 184.594 232.116 174.487 224.59C169.539 220.381 161.695 213.684 154.715 214.339C193.375 228.268 187.057 264.547 193.802 266.143H245.355C246.052 266.153 246.728 265.906 247.256 265.45C249.68 257.013 245.202 245.954 241.544 238.838Z" fill="#0F8542"/>
<g opacity="0.5">
<path opacity="0.8" d="M168.081 224.922C157.891 217.017 147.449 216.014 147.449 216.014C148.884 210.412 163.777 220.511 168.081 224.922Z" fill="#0F8542"/>
<path d="M252.29 269.685C252.294 269.861 252.266 270.035 252.207 270.2C252.06 270.559 251.806 270.863 251.48 271.073C251.154 271.283 250.772 271.388 250.385 271.374H189.149C185.853 271.108 187.662 266.387 186.969 264.285C187.03 264.721 187.57 267.984 190.81 267.984H249.234C250.042 267.823 250.767 267.38 251.28 266.735C251.793 266.09 252.062 265.283 252.037 264.459C252.174 266.143 252.258 267.885 252.29 269.685Z" fill="#0F8542"/>
</g>
<path d="M260.115 149.961C259.348 149.363 260.407 153.848 259.876 154.664C259.235 158.738 258.402 159.51 254.334 158.524C253.305 158.524 254.077 159.332 254.892 159.545C256.165 159.772 258.472 160.671 258.973 162.442L262.213 160.797L262.505 157.696C262.505 157.696 261.942 151.239 260.115 149.961Z" fill="url(#paint1_linear_8710_29678)"/>
<path d="M298.264 176.616C282.895 173.632 273.137 167.08 262.512 157.696L258.984 162.442C266.183 169.592 273.05 177.75 281.922 182.841C283.13 183.339 297.527 185.83 297.527 185.825L298.264 176.616Z" fill="url(#paint2_linear_8710_29678)"/>
<path d="M299.967 162.05C299.967 162.05 301.009 171.617 297.996 172.812C297.996 172.812 302.687 177.82 307.488 170.478C307.488 170.478 306.529 165.448 307.488 161.504L299.967 162.05Z" fill="url(#paint3_linear_8710_29678)"/>
<path d="M290.598 307.369C290.598 307.369 290.628 309.603 290.598 310.719C290.598 311.208 295.83 313.599 296.928 310.244L296.209 307.557L291.849 306.017L290.598 307.369Z" fill="url(#paint4_linear_8710_29678)"/>
<path d="M298.66 265.947C301.132 279.161 296.785 307.5 296.218 307.561C292.774 309.24 290.607 307.369 290.607 307.369C289.787 294.988 284.455 229.215 291.217 215.656L299.623 213.23C302.44 216.635 304.428 220.648 305.431 224.953C307.262 234.471 300.133 258.221 298.66 265.947Z" fill="url(#paint5_linear_8710_29678)"/>
<path d="M319.588 312.713C319.588 312.713 317.216 315.121 313.946 313.786C313.733 312.252 313.442 310.731 313.074 309.227C314.282 309.637 316.383 309.895 319.178 308.499C319.479 311.046 319.662 312.695 319.588 312.713Z" fill="url(#paint6_linear_8710_29678)"/>
<path style="mix-blend-mode:multiply" opacity="0.5" d="M305.85 229.345C305.667 236.967 300.021 260.367 298.652 265.947C299.96 260.14 301.15 236.591 296.908 225.812C292.665 215.032 290.634 219.163 290.634 219.163L290.363 218.727C290.585 217.677 290.864 216.64 291.2 215.621L299.606 213.195C300.182 213.195 305.061 224.311 305.414 224.917C305.731 226.371 305.877 227.857 305.85 229.345Z" fill="url(#paint7_linear_8710_29678)"/>
<path d="M313.483 216.075C313.483 216.075 319.404 227.347 317.407 250.896C315.41 274.445 318.488 302.902 319.151 308.481C317.843 312.695 313.047 309.21 313.047 309.21C306.507 291.131 302.779 242.08 297.952 217.689C294.185 202.39 313.483 216.075 313.483 216.075Z" fill="url(#paint8_linear_8710_29678)"/>
<path d="M290.68 198.564C291.273 204.017 291.988 210.648 291.208 215.656C291.133 216.529 304.641 219.979 313.478 216.092C315.658 207.699 317.455 198.974 318.309 190.306C318.392 184.394 320.232 176.472 315.58 174.038C313.291 172.541 309.698 170.469 307.483 170.513C307.483 170.513 305.604 173.444 301.118 173.619C298.502 173.619 299.505 170.775 299.614 170.513C298.136 173.056 294.473 173.327 292.747 175.556C289.468 183.138 290.078 190.489 290.68 198.564Z" fill="url(#paint9_linear_8710_29678)"/>
<path d="M293.738 193.067L294.174 193.172C294.026 193.149 293.88 193.114 293.738 193.067Z" fill="url(#paint10_linear_8710_29678)"/>
<path d="M280.135 316.368C292.373 316.97 298.041 315.967 298.041 315.967C298.228 313.99 297.837 312.002 296.916 310.243C294.065 313.581 287.996 308.42 283.745 310.632C281.43 311.408 280.074 314.1 280.135 316.368Z" fill="url(#paint11_linear_8710_29678)"/>
<path d="M313.921 313.786C314.192 313.529 311.079 318.074 313.485 318.297C318.639 319.579 327.145 318.912 319.55 312.713C319.589 312.713 317.653 314.196 313.921 313.786Z" fill="url(#paint12_linear_8710_29678)"/>
<path d="M288.93 148.325C289.946 144.595 300.026 134.775 307.826 144.211C307.826 144.211 311.105 143.313 312.622 148.373C314.139 153.434 309.369 161.971 309.369 161.971L303.23 149.931L288.93 148.325Z" fill="url(#paint13_linear_8710_29678)"/>
<path d="M290.102 152.98C293.764 158.115 290.102 166.595 299.589 170.033C301.795 169.117 311.243 165.671 309.469 157.199C309.469 155.672 311.461 154.463 309.992 152.291C308.523 150.118 307.764 151.907 307.764 151.907C307.764 151.907 307.114 150.123 306.456 148.652C305.798 147.182 290.102 152.98 290.102 152.98Z" fill="url(#paint14_linear_8710_29678)"/>
<path d="M308.349 154.223C308.349 154.223 307.852 160.706 307.155 161.203C304.194 160.453 306.034 152.583 301.395 152.042C298.674 151.741 292.675 161.243 281.984 157.042C285.036 157.364 287.386 153.634 287.849 151.082C290.142 139.229 309.37 142.554 308.349 154.223Z" fill="url(#paint15_linear_8710_29678)"/>
<path d="M305.57 216.38C318.545 212.402 313.492 199.497 311.674 192.295C311.612 192.112 311.495 191.952 311.339 191.839C311.182 191.726 310.995 191.664 310.802 191.662C306.878 191.662 300.338 190.79 300.338 190.79C303.697 190.997 307.068 190.761 310.366 190.087C311.421 189.839 310.296 183.544 311.303 183.199C312.223 182.326 314.133 194.022 317.948 192.011C317.878 197.586 316.3 203.38 315.249 208.872C314.765 211.054 314.141 213.671 313.596 215.73C313.54 215.944 313.509 216.057 313.501 216.101C304.859 220.027 290.863 216.476 291.23 215.665C297.591 216.86 302.217 216.925 305.57 216.38Z" fill="url(#paint16_linear_8710_29678)"/>
<path d="M249.088 235.95L340.282 243.175C340.901 243.225 341.516 243.029 341.991 242.627C342.465 242.226 342.762 241.652 342.815 241.033L346.857 190.864C346.881 190.557 346.844 190.248 346.748 189.956C346.652 189.663 346.5 189.393 346.299 189.159C346.099 188.926 345.854 188.734 345.579 188.595C345.305 188.457 345.005 188.374 344.699 188.351L253.5 181.114C252.881 181.063 252.268 181.26 251.793 181.662C251.319 182.063 251.024 182.636 250.972 183.256L246.93 233.425C246.904 233.732 246.94 234.042 247.035 234.337C247.13 234.631 247.282 234.903 247.483 235.138C247.683 235.373 247.928 235.565 248.204 235.705C248.48 235.844 248.78 235.928 249.088 235.95Z" fill="url(#paint17_linear_8710_29678)"/>
<g style="mix-blend-mode:multiply" opacity="0.5">
<path d="M252.227 228.962L255.497 188.508C255.544 187.967 255.803 187.466 256.218 187.115C256.633 186.764 257.171 186.592 257.712 186.637L339.68 193.128C340.218 193.17 340.719 193.422 341.072 193.83C341.426 194.239 341.604 194.77 341.568 195.31L338.311 235.763C338.264 236.305 338.005 236.806 337.59 237.157C337.175 237.507 336.638 237.679 336.096 237.634L254.128 231.143C253.587 231.105 253.084 230.854 252.727 230.445C252.371 230.036 252.191 229.503 252.227 228.962ZM257.559 188.391C256.687 188.26 254.303 228.844 253.984 229.115C254.167 229.69 336.271 236.186 336.545 235.658L339.802 195.205C339.929 194.345 257.83 188.692 257.559 188.377V188.391Z" fill="#0F8542"/>
</g>
<g style="mix-blend-mode:multiply" opacity="0.5">
<path d="M286.343 211.306C285.471 225.092 306.107 226.702 307.441 212.977C308.309 199.192 287.677 197.582 286.343 211.306Z" fill="#0F8542"/>
</g>
<path d="M246.232 238.311C248.587 240.056 284.762 311.653 289.048 308.678C290.432 308.893 291.849 308.657 293.089 308.006C293.177 308.106 383.668 257.27 383.777 257.314C384.518 256.903 385.17 256.35 385.696 255.686C386.221 255.022 386.61 254.26 386.839 253.444C387.069 252.629 387.135 251.776 387.033 250.935C386.931 250.094 386.663 249.282 386.245 248.545C386.158 248.401 348.078 181.362 347.999 181.236C347.119 179.794 345.716 178.749 344.083 178.319C342.451 177.889 340.715 178.107 339.24 178.928L248.7 229.533C247.958 229.944 247.305 230.497 246.779 231.162C246.253 231.827 245.863 232.59 245.634 233.406C245.404 234.223 245.339 235.076 245.442 235.918C245.545 236.76 245.813 237.573 246.232 238.311Z" fill="url(#paint18_linear_8710_29678)"/>
<g style="mix-blend-mode:multiply" opacity="0.4">
<path d="M295.5 296.096C295.064 295.385 296.834 294.909 297.161 294.6C297.277 294.534 297.414 294.517 297.543 294.551C297.671 294.585 297.781 294.668 297.85 294.783C298.286 295.494 296.511 295.969 296.184 296.279C296.069 296.344 295.932 296.362 295.804 296.327C295.676 296.293 295.567 296.21 295.5 296.096ZM299.742 293.723C299.711 293.665 299.691 293.602 299.684 293.537C299.677 293.472 299.683 293.406 299.702 293.343C299.72 293.28 299.751 293.221 299.792 293.171C299.834 293.12 299.885 293.078 299.942 293.046C300.378 292.924 301.686 291.681 302.075 292.423C302.137 292.539 302.151 292.675 302.113 292.802C302.076 292.929 301.99 293.035 301.874 293.099C301.434 293.221 300.126 294.469 299.742 293.723ZM303.967 291.363C303.935 291.305 303.916 291.242 303.909 291.177C303.902 291.111 303.908 291.046 303.927 290.983C303.945 290.92 303.976 290.861 304.017 290.811C304.059 290.76 304.11 290.717 304.167 290.686C304.603 290.564 305.911 289.321 306.299 290.058C306.331 290.116 306.35 290.179 306.357 290.244C306.364 290.309 306.358 290.375 306.34 290.438C306.321 290.501 306.29 290.559 306.249 290.61C306.207 290.661 306.156 290.703 306.099 290.734C305.658 290.856 304.35 292.104 303.967 291.363ZM308.192 289.002C308.16 288.945 308.139 288.882 308.132 288.817C308.125 288.751 308.131 288.685 308.15 288.622C308.168 288.559 308.199 288.5 308.241 288.45C308.283 288.399 308.334 288.357 308.392 288.326C308.828 288.2 310.136 286.956 310.524 287.698C310.586 287.814 310.6 287.951 310.563 288.077C310.525 288.204 310.439 288.311 310.324 288.374C309.883 288.496 308.575 289.74 308.192 289.002ZM312.416 286.638C312.385 286.58 312.365 286.517 312.358 286.452C312.352 286.387 312.358 286.321 312.376 286.258C312.395 286.195 312.426 286.137 312.467 286.086C312.508 286.035 312.559 285.993 312.617 285.962C313.053 285.84 314.361 284.596 314.749 285.338C314.78 285.395 314.8 285.458 314.807 285.523C314.814 285.588 314.808 285.653 314.789 285.716C314.77 285.778 314.739 285.836 314.698 285.887C314.657 285.937 314.606 285.979 314.548 286.01C314.108 286.136 312.8 287.38 312.416 286.638ZM316.641 284.278C316.61 284.22 316.59 284.157 316.583 284.092C316.576 284.027 316.582 283.961 316.601 283.898C316.62 283.835 316.651 283.777 316.692 283.726C316.733 283.675 316.784 283.633 316.842 283.602C317.278 283.48 318.586 282.236 318.974 282.973C319.036 283.09 319.05 283.226 319.012 283.353C318.975 283.479 318.889 283.586 318.773 283.65C318.333 283.772 317.025 285.015 316.641 284.278ZM320.866 281.918C320.834 281.86 320.814 281.797 320.807 281.732C320.799 281.667 320.805 281.6 320.824 281.537C320.843 281.474 320.874 281.416 320.916 281.365C320.957 281.314 321.009 281.272 321.067 281.242C321.503 281.115 322.811 279.872 323.199 280.613C323.261 280.73 323.275 280.866 323.237 280.993C323.2 281.119 323.114 281.226 322.998 281.29C322.558 281.412 321.25 282.655 320.866 281.918ZM325.091 279.553C325.06 279.496 325.04 279.433 325.033 279.367C325.026 279.302 325.032 279.236 325.051 279.173C325.069 279.111 325.1 279.052 325.142 279.001C325.183 278.95 325.234 278.908 325.292 278.877C325.728 278.755 327.035 277.512 327.424 278.253C327.455 278.31 327.474 278.373 327.481 278.438C327.488 278.503 327.482 278.569 327.463 278.631C327.445 278.694 327.414 278.752 327.373 278.802C327.331 278.853 327.281 278.894 327.223 278.925C326.783 279.052 325.475 280.295 325.091 279.553ZM329.316 277.193C329.284 277.136 329.265 277.072 329.258 277.007C329.251 276.942 329.257 276.876 329.276 276.813C329.294 276.75 329.325 276.692 329.366 276.641C329.408 276.59 329.459 276.548 329.516 276.517C329.952 276.395 331.26 275.151 331.648 275.889C331.711 276.005 331.724 276.141 331.687 276.268C331.649 276.395 331.563 276.501 331.448 276.565C331.007 276.687 329.699 277.93 329.316 277.193ZM333.541 274.837C333.509 274.78 333.488 274.717 333.481 274.651C333.474 274.586 333.48 274.52 333.499 274.457C333.517 274.394 333.548 274.335 333.59 274.285C333.632 274.234 333.683 274.192 333.741 274.161C334.177 274.035 335.485 272.791 335.873 273.533C335.935 273.649 335.949 273.786 335.912 273.912C335.874 274.039 335.788 274.146 335.673 274.209C335.232 274.327 333.924 275.57 333.541 274.837ZM337.765 272.473C337.734 272.415 337.714 272.352 337.707 272.287C337.701 272.222 337.707 272.156 337.725 272.093C337.744 272.03 337.775 271.972 337.816 271.921C337.857 271.87 337.908 271.828 337.966 271.797C338.402 271.675 339.71 270.431 340.098 271.173C340.129 271.23 340.149 271.293 340.156 271.358C340.163 271.423 340.157 271.488 340.138 271.551C340.119 271.613 340.088 271.671 340.047 271.722C340.006 271.772 339.955 271.814 339.898 271.845C339.457 271.967 338.149 273.21 337.765 272.469V272.473ZM341.99 270.113C341.959 270.055 341.939 269.992 341.932 269.927C341.925 269.862 341.931 269.796 341.95 269.733C341.969 269.67 342 269.612 342.041 269.561C342.082 269.51 342.133 269.468 342.191 269.437C342.627 269.314 343.935 268.071 344.323 268.808C344.385 268.925 344.399 269.061 344.361 269.188C344.324 269.314 344.238 269.421 344.122 269.485C343.682 269.602 342.374 270.846 341.99 270.108V270.113ZM346.215 267.748C346.184 267.691 346.164 267.628 346.157 267.563C346.151 267.499 346.157 267.433 346.175 267.371C346.194 267.308 346.225 267.25 346.266 267.199C346.307 267.149 346.358 267.107 346.416 267.077C346.852 266.95 348.16 265.707 348.548 266.448C348.61 266.565 348.624 266.701 348.586 266.828C348.549 266.954 348.463 267.061 348.347 267.124C347.929 267.242 346.621 268.486 346.215 267.744V267.748ZM350.44 265.388C350.409 265.331 350.389 265.268 350.382 265.202C350.375 265.137 350.381 265.071 350.4 265.008C350.418 264.946 350.449 264.887 350.491 264.836C350.532 264.785 350.583 264.743 350.641 264.712C351.077 264.59 352.385 263.347 352.773 264.084C352.804 264.141 352.824 264.205 352.831 264.27C352.838 264.335 352.831 264.401 352.813 264.464C352.794 264.526 352.763 264.585 352.722 264.636C352.681 264.687 352.63 264.729 352.572 264.76C352.132 264.882 350.824 266.112 350.44 265.384V265.388ZM354.665 263.028C354.633 262.971 354.614 262.907 354.607 262.842C354.6 262.777 354.606 262.711 354.625 262.648C354.643 262.585 354.674 262.527 354.715 262.476C354.757 262.425 354.808 262.383 354.865 262.352C355.301 262.23 356.609 260.986 356.997 261.724C357.06 261.84 357.074 261.976 357.036 262.103C356.998 262.23 356.913 262.336 356.797 262.4C356.357 262.518 355.049 263.761 354.665 263.024V263.028ZM358.89 260.664C358.858 260.606 358.839 260.544 358.832 260.479C358.825 260.414 358.831 260.348 358.85 260.286C358.868 260.223 358.899 260.165 358.941 260.115C358.982 260.064 359.033 260.022 359.09 259.992C359.526 259.865 360.834 258.622 361.222 259.364C361.285 259.48 361.298 259.616 361.261 259.743C361.223 259.869 361.137 259.976 361.022 260.04C360.573 260.158 359.265 261.401 358.89 260.659V260.664ZM363.115 258.304C363.083 258.246 363.063 258.183 363.056 258.118C363.05 258.052 363.056 257.987 363.074 257.924C363.093 257.861 363.124 257.802 363.165 257.751C363.206 257.701 363.257 257.658 363.315 257.627C363.751 257.505 365.059 256.262 365.447 256.999C365.479 257.057 365.498 257.12 365.505 257.185C365.512 257.25 365.506 257.316 365.487 257.379C365.469 257.442 365.438 257.5 365.397 257.551C365.355 257.602 365.304 257.644 365.247 257.675C364.806 257.797 363.498 259.041 363.115 258.299V258.304ZM367.339 255.943C367.308 255.886 367.288 255.823 367.281 255.758C367.274 255.692 367.28 255.626 367.299 255.564C367.318 255.501 367.349 255.442 367.39 255.391C367.431 255.34 367.482 255.298 367.54 255.267C367.976 255.145 369.284 253.902 369.672 254.639C369.734 254.755 369.748 254.892 369.71 255.018C369.673 255.145 369.587 255.252 369.471 255.315C369.031 255.433 367.723 256.676 367.339 255.939V255.943ZM371.569 253.588C371.536 253.531 371.515 253.468 371.507 253.403C371.499 253.338 371.503 253.272 371.521 253.208C371.538 253.145 371.568 253.086 371.608 253.034C371.649 252.982 371.699 252.939 371.756 252.907C372.432 252.711 372.903 251.476 373.635 251.939C374.315 252.589 372.061 254.364 371.569 253.583V253.588ZM292.831 297.016C292.195 296.877 290.621 296.929 290.826 295.974C291.288 295.236 292.238 296.148 292.927 296.03C293.049 296.054 293.158 296.121 293.232 296.221C293.307 296.32 293.341 296.444 293.329 296.567C293.317 296.691 293.26 296.805 293.167 296.888C293.075 296.972 292.955 297.017 292.831 297.016ZM374.568 250.006C373.735 249.77 374.416 248.619 374.132 247.999C374.122 247.933 374.126 247.865 374.143 247.8C374.159 247.735 374.189 247.673 374.229 247.62C374.27 247.566 374.321 247.521 374.379 247.487C374.437 247.454 374.502 247.432 374.568 247.423C375.506 247.271 375.506 250.119 374.568 250.006ZM288.48 294.504C288.288 293.976 287.12 292.894 287.857 292.41C288.528 291.999 288.881 293.334 289.165 293.679C289.766 294.211 289.069 295.167 288.48 294.508V294.504ZM372.959 245.347L372.166 243.947C371.843 243.392 372.746 242.895 373.038 243.454L373.831 244.85C374.167 245.404 373.265 245.905 372.959 245.347ZM286.13 290.398C286.004 289.962 284.77 288.706 285.533 288.326C286.252 287.89 286.701 289.57 287.015 289.905C287.325 290.459 286.453 290.979 286.13 290.398ZM370.636 241.246C370.513 240.81 369.28 239.549 370.043 239.17C370.762 238.733 371.211 240.413 371.525 240.749C371.848 241.316 370.941 241.818 370.636 241.246ZM283.806 286.311L283.013 284.915C282.686 284.361 283.592 283.859 283.885 284.417L284.678 285.818C285.014 286.372 284.111 286.869 283.806 286.311ZM368.316 237.172L367.522 235.771C367.195 235.217 368.102 234.72 368.394 235.278L369.188 236.674C369.524 237.228 368.621 237.73 368.316 237.172ZM281.482 282.223L280.689 280.827C280.366 280.273 281.269 279.771 281.561 280.33L282.354 281.73C282.694 282.284 281.787 282.782 281.482 282.223ZM365.992 233.084C365.866 232.648 364.636 231.387 365.399 231.007C366.114 230.571 366.568 232.251 366.877 232.587C367.2 233.141 366.297 233.642 365.992 233.084ZM279.163 278.135L278.365 276.739C278.042 276.185 278.949 275.684 279.237 276.242L280.035 277.642C280.37 278.197 279.477 278.698 279.163 278.135ZM363.668 228.996L362.875 227.596C362.552 227.042 363.455 226.545 363.747 227.103L364.54 228.499C364.88 229.053 363.973 229.555 363.668 228.996ZM276.861 274.048C276.734 273.612 275.5 272.355 276.263 271.976C276.983 271.539 277.436 273.219 277.746 273.555C278.047 274.109 277.144 274.611 276.861 274.048ZM361.349 224.909C361.222 224.472 359.988 223.216 360.751 222.836C361.471 222.4 361.92 224.08 362.234 224.411C362.556 224.965 361.654 225.467 361.349 224.909ZM274.515 269.96L273.721 268.564C273.399 268.01 274.301 267.508 274.593 268.067L275.387 269.467C275.727 270.039 274.82 270.523 274.515 269.96ZM359.025 220.821L358.231 219.434C357.909 218.884 358.811 218.382 359.103 218.941L359.897 220.341C360.233 220.878 359.33 221.379 359.025 220.821ZM272.195 265.872L271.398 264.476C271.075 263.922 271.982 263.421 272.27 263.979L273.067 265.38C273.403 265.934 272.501 266.435 272.195 265.872ZM356.701 216.733L355.907 215.333C355.585 214.783 356.487 214.282 356.779 214.84L357.573 216.24C357.913 216.79 357.006 217.292 356.701 216.733ZM269.885 261.785L269.091 260.389C268.764 259.835 269.671 259.333 269.963 259.896L270.757 261.314C271.079 261.846 270.177 262.348 269.885 261.785ZM354.381 212.646L353.588 211.25C353.261 210.696 354.168 210.194 354.46 210.752L355.253 212.153C355.589 212.702 354.687 213.204 354.381 212.646ZM267.548 257.701L266.754 256.301C266.432 255.747 267.334 255.245 267.626 255.808L268.42 257.204C268.76 257.758 267.853 258.26 267.548 257.701ZM352.058 208.558L351.264 207.162C350.941 206.608 351.844 206.106 352.136 206.665L352.93 208.065C353.265 208.619 352.363 209.116 352.058 208.558ZM265.228 253.614L264.43 252.213C264.108 251.659 265.015 251.158 265.302 251.721L266.1 253.117C266.436 253.671 265.525 254.172 265.228 253.614ZM349.734 204.47L348.94 203.074C348.618 202.52 349.52 202.019 349.812 202.577L350.61 203.977C350.946 204.531 350.039 205.037 349.734 204.47ZM262.909 249.535L262.115 248.135C261.788 247.58 262.695 247.079 262.987 247.642L263.781 249.038C264.112 249.583 263.209 250.085 262.909 249.535ZM347.414 200.383L346.621 198.987C346.294 198.433 347.201 197.931 347.493 198.489L348.286 199.89C348.622 200.444 347.719 200.941 347.414 200.383ZM260.58 245.439L259.787 244.038C259.464 243.484 260.367 242.982 260.659 243.545L261.452 244.941C261.792 245.495 260.886 245.997 260.58 245.439ZM345.09 196.312C344.964 195.876 343.734 194.62 344.497 194.24C345.212 193.804 345.666 195.484 345.975 195.819C346.298 196.356 345.395 196.853 345.09 196.312ZM258.261 241.351C258.017 240.758 256.983 239.636 257.855 239.17C258.727 239.026 258.662 240.365 259.163 240.836C259.469 241.408 258.549 241.909 258.261 241.351ZM342.727 192.36C342.413 191.758 341.088 191.57 341.419 190.772C342.069 190.039 342.984 191.274 343.486 191.697C343.987 192.12 343.133 192.822 342.727 192.36ZM257.855 237.076C256.949 236.792 258.217 234.227 259.002 234.72C259.639 235.304 258.514 236.05 258.483 236.731C258.444 236.859 258.356 236.966 258.239 237.031C258.122 237.095 257.984 237.111 257.855 237.076ZM338.851 190.833C338.171 190.711 337.186 191.623 336.745 190.885C336.588 189.921 338.158 189.987 338.803 189.847C338.92 189.86 339.028 189.913 339.109 189.999C339.19 190.084 339.237 190.196 339.243 190.313C339.249 190.43 339.212 190.546 339.141 190.639C339.069 190.732 338.966 190.796 338.851 190.82V190.833ZM260.702 233.394C260.671 233.336 260.651 233.273 260.644 233.208C260.638 233.143 260.644 233.077 260.662 233.014C260.681 232.951 260.712 232.892 260.753 232.842C260.794 232.791 260.845 232.749 260.903 232.717C261.339 232.595 262.647 231.352 263.035 232.094C263.097 232.21 263.111 232.346 263.074 232.473C263.036 232.6 262.95 232.706 262.835 232.77C262.394 232.892 261.086 234.135 260.702 233.394ZM264.927 231.034C264.896 230.976 264.876 230.913 264.869 230.848C264.862 230.782 264.868 230.717 264.887 230.654C264.906 230.591 264.937 230.532 264.978 230.481C265.019 230.431 265.07 230.388 265.128 230.357C265.564 230.235 266.872 228.992 267.26 229.729C267.291 229.787 267.311 229.85 267.318 229.915C267.325 229.98 267.319 230.046 267.3 230.109C267.282 230.172 267.251 230.23 267.209 230.281C267.168 230.332 267.117 230.374 267.059 230.405C266.619 230.527 265.311 231.775 264.927 231.034ZM269.152 228.673C269.12 228.616 269.1 228.553 269.093 228.487C269.086 228.422 269.091 228.356 269.11 228.293C269.129 228.23 269.16 228.171 269.202 228.121C269.243 228.07 269.295 228.028 269.353 227.997C269.789 227.875 271.097 226.627 271.485 227.369C271.547 227.485 271.561 227.622 271.523 227.748C271.486 227.875 271.4 227.982 271.284 228.045C270.844 228.159 269.536 229.411 269.152 228.673ZM273.377 226.309C273.346 226.251 273.326 226.188 273.319 226.123C273.312 226.058 273.318 225.992 273.337 225.929C273.355 225.866 273.386 225.808 273.428 225.757C273.469 225.706 273.52 225.664 273.578 225.633C274.014 225.511 275.322 224.267 275.71 225.009C275.772 225.125 275.786 225.262 275.748 225.388C275.711 225.515 275.625 225.621 275.509 225.685C275.069 225.807 273.761 227.051 273.373 226.309H273.377ZM277.602 223.949C277.57 223.891 277.551 223.828 277.544 223.763C277.537 223.698 277.543 223.632 277.562 223.569C277.58 223.506 277.611 223.448 277.652 223.397C277.694 223.346 277.745 223.304 277.802 223.273C278.238 223.15 279.546 221.907 279.934 222.644C279.966 222.702 279.986 222.765 279.992 222.83C279.999 222.896 279.993 222.961 279.975 223.024C279.956 223.087 279.925 223.146 279.884 223.197C279.843 223.247 279.792 223.29 279.734 223.321C279.294 223.443 277.986 224.69 277.602 223.949ZM281.827 221.589C281.795 221.531 281.775 221.468 281.767 221.403C281.76 221.337 281.766 221.271 281.785 221.208C281.803 221.145 281.834 221.087 281.876 221.036C281.918 220.985 281.969 220.943 282.027 220.913C282.463 220.79 283.771 219.543 284.159 220.284C284.222 220.401 284.235 220.537 284.198 220.664C284.16 220.79 284.074 220.897 283.959 220.961C283.518 221.083 282.21 222.326 281.827 221.589ZM286.052 219.224C286.02 219.167 286 219.104 285.993 219.038C285.987 218.973 285.993 218.907 286.011 218.844C286.03 218.782 286.061 218.723 286.102 218.672C286.143 218.621 286.194 218.579 286.252 218.548C286.688 218.426 287.996 217.183 288.384 217.924C288.416 217.982 288.435 218.045 288.442 218.11C288.449 218.175 288.443 218.241 288.424 218.304C288.406 218.367 288.375 218.425 288.334 218.476C288.292 218.527 288.241 218.569 288.184 218.6C287.761 218.723 286.453 219.966 286.052 219.224ZM290.276 216.864C290.245 216.807 290.225 216.743 290.218 216.678C290.211 216.613 290.217 216.547 290.236 216.484C290.255 216.421 290.286 216.363 290.327 216.312C290.368 216.261 290.419 216.219 290.477 216.188C290.913 216.066 292.221 214.822 292.609 215.56C292.64 215.617 292.66 215.68 292.667 215.746C292.674 215.811 292.668 215.877 292.649 215.94C292.631 216.002 292.6 216.061 292.558 216.112C292.517 216.163 292.466 216.205 292.408 216.236C291.968 216.38 290.66 217.601 290.276 216.864ZM294.501 214.504C294.469 214.447 294.449 214.383 294.442 214.318C294.435 214.253 294.44 214.187 294.459 214.124C294.478 214.061 294.509 214.002 294.551 213.951C294.592 213.9 294.644 213.858 294.702 213.828C295.138 213.701 296.446 212.458 296.834 213.2C296.865 213.257 296.885 213.32 296.892 213.386C296.899 213.451 296.893 213.517 296.874 213.579C296.855 213.642 296.825 213.701 296.783 213.752C296.742 213.803 296.691 213.845 296.633 213.876C296.193 213.998 294.885 215.241 294.501 214.504ZM298.726 212.14C298.695 212.082 298.675 212.019 298.668 211.954C298.661 211.888 298.667 211.823 298.686 211.76C298.704 211.697 298.735 211.638 298.777 211.587C298.818 211.537 298.869 211.494 298.927 211.463C299.363 211.341 300.671 210.098 301.059 210.84C301.09 210.897 301.11 210.96 301.116 211.024C301.123 211.089 301.117 211.155 301.099 211.217C301.08 211.28 301.049 211.338 301.008 211.388C300.966 211.439 300.916 211.481 300.858 211.511C300.405 211.638 299.097 212.89 298.726 212.14ZM302.951 209.779C302.919 209.722 302.9 209.659 302.893 209.594C302.886 209.528 302.892 209.462 302.911 209.4C302.929 209.337 302.96 209.278 303.001 209.227C303.043 209.177 303.094 209.134 303.151 209.103C303.587 208.981 304.895 207.738 305.283 208.475C305.315 208.533 305.335 208.596 305.341 208.661C305.348 208.726 305.342 208.792 305.324 208.855C305.305 208.918 305.274 208.976 305.233 209.027C305.192 209.078 305.141 209.12 305.083 209.151C304.643 209.273 303.335 210.517 302.951 209.779ZM307.176 207.419C307.144 207.362 307.124 207.299 307.116 207.233C307.109 207.168 307.115 207.102 307.134 207.039C307.152 206.976 307.183 206.917 307.225 206.867C307.267 206.816 307.318 206.774 307.376 206.743C307.812 206.617 309.12 205.373 309.508 206.115C309.54 206.172 309.559 206.236 309.566 206.301C309.573 206.366 309.567 206.432 309.549 206.495C309.53 206.558 309.499 206.616 309.458 206.667C309.416 206.718 309.365 206.76 309.308 206.791C308.867 206.913 307.559 208.157 307.176 207.419ZM311.401 205.055C311.369 204.997 311.349 204.934 311.343 204.869C311.336 204.804 311.342 204.738 311.36 204.675C311.379 204.612 311.41 204.554 311.451 204.503C311.492 204.452 311.543 204.41 311.601 204.379C312.037 204.257 313.345 203.013 313.733 203.755C313.764 203.812 313.784 203.875 313.791 203.94C313.798 204.005 313.792 204.07 313.773 204.133C313.754 204.195 313.724 204.253 313.682 204.304C313.641 204.354 313.59 204.396 313.533 204.427C313.092 204.553 311.784 205.796 311.401 205.037V205.055ZM315.625 202.695C315.594 202.637 315.574 202.574 315.567 202.509C315.56 202.444 315.567 202.378 315.585 202.315C315.604 202.252 315.635 202.194 315.676 202.143C315.717 202.092 315.768 202.05 315.826 202.019C316.262 201.896 317.57 200.653 317.958 201.39C317.989 201.448 318.009 201.511 318.016 201.576C318.023 201.641 318.017 201.707 317.998 201.77C317.98 201.833 317.949 201.892 317.907 201.942C317.866 201.993 317.815 202.035 317.757 202.067C317.317 202.189 316.009 203.432 315.625 202.695ZM319.85 200.335C319.818 200.277 319.798 200.214 319.791 200.149C319.784 200.083 319.79 200.017 319.808 199.954C319.827 199.891 319.858 199.833 319.9 199.782C319.941 199.731 319.993 199.689 320.051 199.658C320.487 199.532 321.795 198.289 322.183 199.03C322.214 199.088 322.234 199.151 322.241 199.216C322.248 199.281 322.242 199.347 322.223 199.41C322.204 199.473 322.174 199.531 322.132 199.582C322.091 199.633 322.04 199.675 321.982 199.706C321.542 199.829 320.234 201.072 319.85 200.335ZM324.075 197.97C324.044 197.913 324.024 197.849 324.017 197.784C324.01 197.719 324.016 197.653 324.035 197.59C324.053 197.527 324.084 197.469 324.126 197.418C324.167 197.367 324.218 197.325 324.276 197.294C324.712 197.172 326.02 195.928 326.408 196.67C326.439 196.727 326.459 196.79 326.465 196.855C326.472 196.92 326.466 196.985 326.448 197.048C326.429 197.11 326.398 197.169 326.357 197.219C326.316 197.27 326.265 197.311 326.207 197.342C325.767 197.468 324.459 198.712 324.075 197.97ZM328.3 195.61C328.269 195.553 328.249 195.489 328.242 195.424C328.235 195.359 328.241 195.293 328.26 195.23C328.278 195.167 328.309 195.109 328.35 195.058C328.392 195.007 328.443 194.965 328.5 194.934C328.936 194.812 330.244 193.568 330.633 194.306C330.664 194.363 330.684 194.426 330.691 194.492C330.697 194.557 330.691 194.623 330.673 194.685C330.654 194.748 330.623 194.807 330.582 194.858C330.541 194.909 330.49 194.951 330.432 194.982C329.992 195.104 328.684 196.347 328.309 195.61H328.3ZM332.525 193.246C332.493 193.188 332.474 193.126 332.467 193.061C332.46 192.996 332.466 192.93 332.485 192.868C332.503 192.805 332.534 192.747 332.576 192.697C332.617 192.646 332.668 192.604 332.725 192.574C333.161 192.447 334.469 191.204 334.857 191.946C334.889 192.003 334.908 192.066 334.915 192.131C334.922 192.197 334.916 192.263 334.898 192.325C334.879 192.388 334.848 192.447 334.807 192.498C334.765 192.548 334.714 192.591 334.657 192.622C334.216 192.744 332.908 193.987 332.525 193.259V193.246Z" fill="#925827"/>
</g>
<path style="mix-blend-mode:multiply" opacity="0.2" d="M280.234 298.155C282.619 301.554 285.057 309.82 290.629 308.73C291.488 308.655 292.324 308.409 293.088 308.006C293.166 308.106 383.671 257.27 383.776 257.313C384.516 256.903 385.168 256.35 385.694 255.686C386.22 255.021 386.608 254.26 386.838 253.444C387.067 252.629 387.133 251.776 387.031 250.935C386.929 250.094 386.661 249.282 386.243 248.545L348.08 181.362C347.576 180.482 346.869 179.734 346.018 179.181C341.867 175.791 335.554 181.323 331.865 183.059C338.371 179.421 342.391 184.076 343.873 186.357L377.881 246.241C378.299 246.978 378.566 247.791 378.668 248.632C378.77 249.473 378.705 250.325 378.475 251.141C378.246 251.956 377.857 252.718 377.331 253.382C376.806 254.046 376.154 254.6 375.413 255.01L292.329 301.449C289.94 302.644 283.953 304.695 280.234 298.155Z" fill="url(#paint19_linear_8710_29678)"/>
<path d="M315.064 218.212C314.791 219.063 314.565 219.928 314.388 220.804C314.767 221.34 309.243 228.107 311.249 223.805C312.609 221.825 312.783 220.241 313.529 218.4L315.064 218.212Z" fill="url(#paint20_linear_8710_29678)"/>
<path d="M313.687 218.924C313.275 219.791 312.914 220.681 312.605 221.589C312.928 222.213 306.065 228.691 308.83 224.359C309.702 223.461 310.643 222.44 310.643 222.44L312.021 218.906L313.687 218.924Z" fill="url(#paint21_linear_8710_29678)"/>
<path d="M312.496 219.019C311.971 219.823 311.492 220.656 311.062 221.515C311.297 222.178 303.61 227.674 306.946 223.753C307.931 222.98 309.004 222.095 309.004 222.095L310.852 218.779L312.496 219.019Z" fill="url(#paint22_linear_8710_29678)"/>
<path d="M311.805 219.386C311.033 219.962 310.294 220.581 309.591 221.24C309.591 221.942 300.465 224.485 304.951 221.938C306.146 221.55 307.458 221.065 307.458 221.065L310.34 218.583L311.805 219.386Z" fill="url(#paint23_linear_8710_29678)"/>
<path d="M309.204 219.582C310.669 217.802 305.834 218.199 305.716 217.571C305.206 217.052 305.206 216.917 305.498 216.773C305.79 216.629 306.54 217.414 307.443 216.834C308.345 216.254 309.575 216.533 310.338 215.721C313.651 214.757 318.378 219.447 311.524 220.66L309.204 219.582Z" fill="url(#paint24_linear_8710_29678)"/>
<path d="M311.098 215.577C311.41 216.383 311.936 217.088 312.619 217.618C313.302 218.147 314.116 218.481 314.974 218.583C318.392 214.247 321.684 209.976 324.797 205.339C326.035 203.864 326.82 201.5 326.035 199.275C325.215 198.402 323.048 197.298 322.194 196.98C318.78 202.712 314.529 209.727 311.098 215.577Z" fill="url(#paint25_linear_8710_29678)"/>
<path d="M312.301 179.299C312.584 182.976 313.173 186.916 314.481 190.362C316.172 195.235 319.525 199.615 320.406 204.758L324.81 205.33C326.048 203.864 326.833 201.486 326.048 199.266C325.403 195.492 324.596 191.732 323.584 188.063C322.486 184.058 321.404 178.902 318.065 176.044C314.058 172.432 312.2 176.293 312.301 179.299Z" fill="url(#paint26_linear_8710_29678)"/>
<defs>
<linearGradient id="paint0_linear_8710_29678" x1="208.271" y1="333.535" x2="197.992" y2="220.168" gradientUnits="userSpaceOnUse">
<stop stop-color="#1A743A"/>
<stop offset="1" stop-color="#49B749"/>
</linearGradient>
<linearGradient id="paint1_linear_8710_29678" x1="259.531" y1="167.79" x2="258.174" y2="158.145" gradientUnits="userSpaceOnUse">
<stop stop-color="#EF877E"/>
<stop offset="1" stop-color="#FABEB2"/>
</linearGradient>
<linearGradient id="paint2_linear_8710_29678" x1="278.637" y1="196.857" x2="275.775" y2="171.542" gradientUnits="userSpaceOnUse">
<stop stop-color="#E55E25"/>
<stop offset="1" stop-color="#F9A349"/>
</linearGradient>
<linearGradient id="paint3_linear_8710_29678" x1="303.206" y1="162.665" x2="302.752" y2="171.477" gradientUnits="userSpaceOnUse">
<stop stop-color="#EF877E"/>
<stop offset="1" stop-color="#FABEB2"/>
</linearGradient>
<linearGradient id="paint4_linear_8710_29678" x1="289.911" y1="302.494" x2="291.711" y2="310.233" gradientUnits="userSpaceOnUse">
<stop stop-color="#EF877E"/>
<stop offset="1" stop-color="#FABEB2"/>
</linearGradient>
<linearGradient id="paint5_linear_8710_29678" x1="299.331" y1="312.499" x2="296.005" y2="221.013" gradientUnits="userSpaceOnUse">
<stop stop-color="#3DC7F4"/>
<stop offset="1" stop-color="#312C81"/>
</linearGradient>
<linearGradient id="paint6_linear_8710_29678" x1="317.587" y1="307.745" x2="318.398" y2="311.648" gradientUnits="userSpaceOnUse">
<stop stop-color="#EF877E"/>
<stop offset="1" stop-color="#FABEB2"/>
</linearGradient>
<linearGradient id="paint7_linear_8710_29678" x1="298.451" y1="315.688" x2="298.041" y2="203.668" gradientUnits="userSpaceOnUse">
<stop stop-color="#3DC7F4"/>
<stop offset="1" stop-color="#312C81"/>
</linearGradient>
<linearGradient id="paint8_linear_8710_29678" x1="310.727" y1="312.093" x2="307.405" y2="220.603" gradientUnits="userSpaceOnUse">
<stop stop-color="#3DC7F4"/>
<stop offset="1" stop-color="#312C81"/>
</linearGradient>
<linearGradient id="paint9_linear_8710_29678" x1="308.508" y1="220.952" x2="302.253" y2="180.225" gradientUnits="userSpaceOnUse">
<stop stop-color="#E55E25"/>
<stop offset="1" stop-color="#F9A349"/>
</linearGradient>
<linearGradient id="paint10_linear_8710_29678" x1="298.46" y1="222.491" x2="292.197" y2="181.704" gradientUnits="userSpaceOnUse">
<stop stop-color="#E55E25"/>
<stop offset="1" stop-color="#F9A349"/>
</linearGradient>
<linearGradient id="paint11_linear_8710_29678" x1="286.906" y1="319.605" x2="292.047" y2="309.561" gradientUnits="userSpaceOnUse">
<stop stop-color="#3DC7F4"/>
<stop offset="1" stop-color="#312C81"/>
</linearGradient>
<linearGradient id="paint12_linear_8710_29678" x1="317.688" y1="320.059" x2="317.461" y2="312.573" gradientUnits="userSpaceOnUse">
<stop stop-color="#3DC7F4"/>
<stop offset="1" stop-color="#312C81"/>
</linearGradient>
<linearGradient id="paint13_linear_8710_29678" x1="296.147" y1="162.676" x2="307.464" y2="135.835" gradientUnits="userSpaceOnUse">
<stop stop-color="#5A1F0D"/>
<stop offset="1" stop-color="#B84726"/>
</linearGradient>
<linearGradient id="paint14_linear_8710_29678" x1="286.187" y1="136.553" x2="287.173" y2="156.049" gradientUnits="userSpaceOnUse">
<stop stop-color="#EF877E"/>
<stop offset="1" stop-color="#FABEB2"/>
</linearGradient>
<linearGradient id="paint15_linear_8710_29678" x1="293.618" y1="161.701" x2="304.918" y2="134.909" gradientUnits="userSpaceOnUse">
<stop stop-color="#5A1F0D"/>
<stop offset="1" stop-color="#B84726"/>
</linearGradient>
<linearGradient id="paint16_linear_8710_29678" x1="307.222" y1="221.166" x2="300.959" y2="180.386" gradientUnits="userSpaceOnUse">
<stop stop-color="#E55E25"/>
<stop offset="1" stop-color="#F9A349"/>
</linearGradient>
<linearGradient id="paint17_linear_8710_29678" x1="357.226" y1="245.148" x2="244.866" y2="186.343" gradientUnits="userSpaceOnUse">
<stop stop-color="#1A743A"/>
<stop offset="1" stop-color="#49B749"/>
</linearGradient>
<linearGradient id="paint18_linear_8710_29678" x1="394.96" y1="256.027" x2="250.398" y2="232.088" gradientUnits="userSpaceOnUse">
<stop stop-color="#A16127"/>
<stop offset="1" stop-color="#FAA748"/>
</linearGradient>
<linearGradient id="paint19_linear_8710_29678" x1="368.636" y1="214.608" x2="267.071" y2="271.779" gradientUnits="userSpaceOnUse">
<stop stop-color="#A16127"/>
<stop offset="1" stop-color="#FAA748"/>
</linearGradient>
<linearGradient id="paint20_linear_8710_29678" x1="331.211" y1="166.07" x2="307.576" y2="230.998" gradientUnits="userSpaceOnUse">
<stop stop-color="#EF877E"/>
<stop offset="1" stop-color="#FABEB2"/>
</linearGradient>
<linearGradient id="paint21_linear_8710_29678" x1="329.546" y1="165.381" x2="305.877" y2="230.405" gradientUnits="userSpaceOnUse">
<stop stop-color="#EF877E"/>
<stop offset="1" stop-color="#FABEB2"/>
</linearGradient>
<linearGradient id="paint22_linear_8710_29678" x1="328.02" y1="164.831" x2="304.35" y2="229.851" gradientUnits="userSpaceOnUse">
<stop stop-color="#EF877E"/>
<stop offset="1" stop-color="#FABEB2"/>
</linearGradient>
<linearGradient id="paint23_linear_8710_29678" x1="326.329" y1="164.369" x2="302.723" y2="229.229" gradientUnits="userSpaceOnUse">
<stop stop-color="#EF877E"/>
<stop offset="1" stop-color="#FABEB2"/>
</linearGradient>
<linearGradient id="paint24_linear_8710_29678" x1="327.499" y1="164.371" x2="303.725" y2="229.676" gradientUnits="userSpaceOnUse">
<stop stop-color="#EF877E"/>
<stop offset="1" stop-color="#FABEB2"/>
</linearGradient>
<linearGradient id="paint25_linear_8710_29678" x1="320.398" y1="219.05" x2="314.16" y2="178.419" gradientUnits="userSpaceOnUse">
<stop stop-color="#E55E25"/>
<stop offset="1" stop-color="#F9A349"/>
</linearGradient>
<linearGradient id="paint26_linear_8710_29678" x1="323.615" y1="218.553" x2="317.382" y2="177.947" gradientUnits="userSpaceOnUse">
<stop stop-color="#E55E25"/>
<stop offset="1" stop-color="#F9A349"/>
</linearGradient>
</defs>
</svg>
