<svg width="48" height="48" viewBox="0 0 48 48" fill="none" xmlns="http://www.w3.org/2000/svg">
<g id="Workspace">
<path id="Vector" d="M32.5586 31.716L37.4036 28.8887L38.3683 29.4408L33.4711 32.2562L32.5586 31.716Z" fill="#D6D6D6"/>
<path id="Vector_2" d="M38.371 28.3922L33.4738 31.2513L32.4844 30.6783L37.4277 27.8435L38.371 28.3922Z" fill="#72EEF7"/>
<path id="Vector_3" d="M38.3699 28.3921V29.4408L33.4727 32.2562V31.2512L38.3699 28.3921Z" fill="#3CA5AF"/>
<path id="Vector_4" d="M38.6258 35.3049L27.4713 28.7036L26.3438 29.3592L37.5855 35.9099L38.6258 35.3049Z" fill="#D6D6D6"/>
<path id="Vector_5" d="M26.3438 28.4228L37.5855 34.8921L38.6258 34.2343L27.4529 27.7644L26.3438 28.4228Z" fill="#72EEF7"/>
<path id="Vector_6" d="M26.3438 28.4229V29.3592L37.5855 35.9099V34.8922L26.3438 28.4229Z" fill="#3CA5AF"/>
<path id="Vector_7" d="M38.6263 34.2344V35.305L37.5859 35.91V34.8922L38.6263 34.2344Z" fill="#304E75"/>
<path id="Vector_8" d="M26.3438 35.1379L31.3626 32.2837L32.3619 32.8659L27.3839 35.7384L26.3438 35.1379Z" fill="#D6D6D6"/>
<path id="Vector_9" d="M32.3698 31.8923L27.3839 34.7814L26.3438 34.1237L31.2869 31.2627L32.3698 31.8923Z" fill="#72EEF7"/>
<path id="Vector_10" d="M32.3687 31.8923L32.3608 32.8659L27.3828 35.7384V34.7814L32.3687 31.8923Z" fill="#3CA5AF"/>
<path id="Vector_11" d="M26.3438 34.1238V35.1381L27.3839 35.7385V34.7815L26.3438 34.1238Z" fill="#304E75"/>
<path id="Vector_12" d="M31.2656 23.3252V31.2549L32.3702 31.8907V23.971L31.2656 23.3252Z" fill="#3CA5AF"/>
<path id="Vector_13" d="M31.2656 23.3252L32.3702 22.6875L33.4747 23.3333L32.3702 23.971L31.2656 23.3252Z" fill="#72EEF7"/>
<path id="Vector_14" d="M33.4717 23.3335L32.3672 23.9712V31.8908L33.4717 31.2513V23.3335Z" fill="#304E75"/>
<path id="Vector_15" d="M34.4557 3.52466L31.2539 16.1399L40.27 21.3469L43.4152 8.76735L34.4557 3.52466Z" fill="#EB3400"/>
<path id="Vector_16" d="M43.4144 8.76742L40.2692 21.3471L31.5625 26.3753V29.027L42.2083 22.8851L45.7377 7.7582C45.7377 7.7582 44.4554 7.34307 43.4144 8.76742Z" fill="#821D00"/>
<path id="Vector_17" d="M45.7393 7.75825L36.4102 2.39697C34.9626 2.39697 34.4564 3.52479 34.4564 3.52479L43.4158 8.76738C44.4569 7.34313 45.7393 7.75825 45.7393 7.75825ZM40.2707 21.347L31.5641 26.3753L22.3789 21.2031L31.2546 16.1401L40.2707 21.347Z" fill="#FF672B"/>
<path id="Vector_18" d="M22.3789 21.2031V23.7107L31.5641 29.027V26.3753L22.3789 21.2031Z" fill="#EB3400"/>
<path id="Vector_19" d="M24.5938 27.4958V44.6283L26.1102 45.6031V28.4121L24.5938 27.4958Z" fill="#9FBBD4"/>
<path id="Vector_20" d="M27.6814 27.4958L26.1094 28.4121V45.6031L27.6814 44.6959V27.4958Z" fill="#627687"/>
<path id="Vector_21" d="M38.3281 19.5935V36.726L39.8445 37.7007V20.5097L38.3281 19.5935Z" fill="#9FBBD4"/>
<path id="Vector_22" d="M41.4149 19.5935L39.8432 20.5097V37.7006L41.4149 36.7933V19.5935ZM13.293 19.8472L13.2933 38.2046L21.2422 33.6155V15.2578L13.293 19.8472Z" fill="#627687"/>
<path id="Vector_23" d="M3.34766 14.8389V32.4627L13.2934 38.2047V20.9216L3.34766 14.8389Z" fill="#9FBBD4"/>
<path id="Vector_24" d="M42.0069 18.067V19.7636L26.1091 29.0334L2.26172 15.032V13.4775L26.1091 27.2456L42.0069 18.067Z" fill="#E53C00"/>
<path id="Vector_25" d="M26.1094 29.0333V27.2455L42.0072 18.0669V19.7635L26.1094 29.0333Z" fill="#304E75"/>
<path id="Vector_26" d="M2.26172 13.4774L18.1597 4.29883L42.0069 18.0669L26.1086 27.2455L2.26172 13.4774Z" fill="#FFA511"/>
<path id="Vector_27" d="M4.28125 17.637V23.67L12.3587 28.3394V22.3066L4.28125 17.637ZM4.28125 25.553V31.5861L12.3587 36.2555V30.2224L4.28125 25.553Z" fill="white"/>
<path id="Vector_28" d="M8.81075 21.2036C8.81075 21.5163 8.5925 21.644 8.32325 21.4885C8.05419 21.3333 7.83594 20.9537 7.83594 20.641C7.83594 20.3283 8.05428 20.2005 8.32325 20.356C8.5925 20.5113 8.81075 20.8909 8.81075 21.2036Z" fill="#4F5357"/>
<path id="Vector_29" d="M8.81075 29.3145C8.81075 29.6272 8.5925 29.7549 8.32325 29.5995C8.05419 29.4442 7.83594 29.0647 7.83594 28.752C7.83594 28.4394 8.05428 28.3117 8.32325 28.467C8.5925 28.6223 8.81075 29.0019 8.81075 29.3145Z" fill="#424D57"/>
<path id="Vector_30" d="M13.0078 17.5024L18.3059 20.5611L21.4217 18.7625L16.0913 15.7119L13.0078 17.5024Z" fill="#627687"/>
<path id="Vector_31" d="M13.0078 17.5024V18.1421L18.3059 21.2684V20.5612L13.0078 17.5024Z" fill="#2E373D"/>
<path id="Vector_32" d="M18.3086 21.2682L21.4244 19.3857V18.7625L18.3086 20.561V21.2682Z" fill="#424D57"/>
<path id="Vector_33" d="M11.4805 3.49829V13.817L23.4928 20.7525V10.4334L11.4805 3.49829Z" fill="#2E373D"/>
<path id="Vector_34" d="M23.4928 10.4334L24.403 9.89743L12.4682 3.00952L11.4805 3.49824L23.4928 10.4334Z" fill="#627687"/>
<path id="Vector_35" d="M23.4922 20.7525L24.4024 20.152V9.89746L23.4922 10.4334V20.7525Z" fill="#424D57"/>
<path id="Vector_36" d="M15.2144 15.1982L15.2109 18.0614L16.8721 19.0417V16.1669L15.2144 15.1982Z" fill="#2E373D"/>
<path id="Vector_37" d="M16.8711 19.0416L17.5612 18.634V15.7651L16.8711 16.165V19.0416Z" fill="#424D57"/>
<path id="Vector_38" d="M17.5622 15.7652L15.8482 14.8284L15.2109 15.1961L16.8721 16.1668L17.5622 15.7652Z" fill="#627687"/>
<path id="Vector_39" d="M26.125 19.4566L32.3433 15.8665L37.1243 18.5285L30.8208 22.1679L26.125 19.4566Z" fill="#3CA5AF"/>
<path id="Vector_40" d="M26.125 18.9472L32.3433 15.3572L37.1243 18.019L30.8208 21.6585L26.125 18.9472Z" fill="white"/>
</g>
</svg>
