<?xml version="1.0" encoding="UTF-8"?>
<svg version="1.1" viewBox="0 0 1569 1600" width="1280" height="1280"
  xmlns="http://www.w3.org/2000/svg">
  <path transform="translate(815,123)" d="m0 0h54l38 2 40 4 36 6 30 7 43 11 30 10 24 10 24 11 19 10 10 6 11 6 17 10 27 18 18 14 16 12 10 8 12 11 11 9 15 14 10 9 7 6 7 9 1 4-48 48-9 11-14 15-7 8-18 20-8 8-7 8-11 12-7 8-4 2-8-7-10-10-11-9-9-8-15-11-19-13-18-12-21-13-22-12-20-9-31-12-25-8-36-9-28-5-28-3-17-1h-54l-38 3-30 5-28 7-27 9-30 14-19 10-15 9-12 8-12 9-11 9-14 12-24 22-16 17-9 11-10 12-10 14-11 18-12 23-11 22-10 24-12 36-10 38-7 36-2 16-1 13v65l3 32 6 36 6 24 13 38 10 25 13 29 10 21 10 18 9 14 14 19 11 13 13 13 7 8 11 12 1 2v256l1 2-5-2-16-8-17-10-15-10-22-14-15-10-23-16-19-14-16-13-11-9-11-10-8-7-17-17-9-11-12-14-11-14-14-18-14-20-12-19-12-20-10-18-15-28-8-17-21-55-7-23-9-36-7-41-6-48-3-35-1-24v-13l2-38 3-36 5-35 6-36 8-36 7-24 11-32 11-27 16-32 14-27 12-20 15-24 11-16 9-12 12-14 11-14 12-14 46-46 11-9 13-11 19-14 15-10 17-11 40-24 22-11 23-10 22-10 22-8 84-22 31-6 24-3 26-2z" fill="#FE881E"/>
  <path transform="translate(850,582)" d="m0 0 2 1-1 13-1 32-1 70-1 194v217l1 306-1 1h-44l-1-1-1-202-1-272-1-213v-33l1-75 3-7 14-11 11-8z" fill="#FE881E"/>
  <path transform="translate(706,792)" d="m0 0h2l1 10 2 279v181l-1 43v109l3 2-7 1-50-1-2-1 1-6 1-455 1-88 1-32 5-15 2-8 6-7 12-7 10-3 1 3 3 2v11l1 1 1 22 1-26 3-1 2 1v-14zm-3 20 1 4zm0 5m-5 18 1 3v-3zm1 7m-38 475v2l2-1zm0 5m2 0m-3 3 1 3v-3zm0 5v6l2 1 1-6zm1 9m2 1m-1 3m-1 1v3l2-2zm-1 4m1 4m0 2m-1 7m0 3v2l2-1z" fill="#FECE9C"/>
  <path transform="translate(917,528)" d="m0 0h4l-1 18-1 65-2 249v216l1 273v67h-36l-3-3 1-84v-437l-1-102v-141l1-95 4-6 7-6 22-12z" fill="#FE881F"/>
  <path transform="translate(1355,834)" d="m0 0 6 1 16 7 9 6 1 2 1 209 1 163v165h98l75 1 7 1v21l-166 5h-48l-2-6v-465l1-96z" fill="#FE881F"/>
  <path transform="translate(640,835)" d="m0 0 2 2v95l2 124 1 43 1 142v175l-1 1h-25l-106-2-71-3-152-9-13-2-2-1v-2l4-2 23-4 24-2 23-1 41-1h226l-1-124v-416l12-5 9-6z" fill="#FFD66C"/>
  <path transform="translate(1305,792)" d="m0 0 5 1 14 6 6 5 1 2v42l1 295v205l-1 66-5 2h-23l-1-446 1-149 1-28z" fill="#FE881F"/>
  <path transform="translate(961,720)" d="m0 0 5 2 9 6 15 9 22 14 29 19 18 11 30 20 25 17 15 10 16 10 20 13 11 8 7 5 1 2 1 9v35l-1 2-5-2-18-8-23-12-18-10-24-13-16-9-23-12-23-13-21-12-25-14-16-9-10-4-2-2v-43z" fill="#FE881E"/>
  <path transform="translate(706,792)" d="m0 0h2l1 10 1 129v78l-3-3-4-17h-2l-2 9-2 11-1 2-1 15v13l-2 1v12l-2 6-6 10-1 10-2 6-4 3-4-4-1-4-4-2-3-1-1 17-2 3-1 17-1 32-1 59-1 45-2 20h-1v-315l1-88 1-32 5-15 2-8 6-7 12-7 10-3 1 3 3 2v11l1 1 1 22 1-26 3-1 2 1v-14zm-3 20 1 4zm0 5m-5 18 1 3v-3z" fill="#FEC493"/>
  <path transform="translate(961,616)" d="m0 0 4 1 10 8 18 13 12 8 17 12 18 13 13 10 19 14 20 15 17 12 19 14 16 11 16 12 11 8 10 8 3 5v50l-5-2-20-13-29-19-20-13-33-22-16-11-12-8-20-13-23-15-29-19-16-9-1-14v-16z" fill="#FE881E"/>
  <path transform="translate(961,1037)" d="m0 0 6 1 88 29 36 13 32 12 26 10 31 12 3 2v25l-1 25-16-4-55-15-51-14-68-18-29-7-3-2v-54z" fill="#FE881E"/>
  <path transform="translate(961,509)" d="m0 0 4 2 9 10 15 13 16 12 21 16 17 14 14 11 10 9 11 9 13 12 8 7 10 9 11 9 12 11 11 9 14 12 10 8 13 10 4 4 1 2 1 26-1 20-4-1-12-8-21-16-17-12-12-9-18-13-19-14-17-13-20-15-15-12-13-10-15-12-13-10-15-11-13-7-1-1v-69z" fill="#FE881E"/>
  <path transform="translate(961,1142)" d="m0 0 12 2 63 16 30 8 36 9 36 10 39 10 5 2 1 2-1 40v7l-10-1-42-8-45-8-58-9-46-8-17-3-4-1v-51z" fill="#FE881E"/>
  <path transform="translate(963,1350)" d="m0 0h14l81 7 83 6 38 3 5 1v17l-1 35h-33l-103-2-77-1-8-1-1-5 1-56z" fill="#FE891F"/>
  <path transform="translate(961,1247)" d="m0 0 15 1 107 17 68 11 30 5 1 1v50l-14-1-118-11-39-3-38-2-10-1-2-2z" fill="#FE891F"/>
  <path transform="translate(962,828)" d="m0 0 38 19 19 10 35 18 15 8 14 7 23 13 19 11 22 12 25 14 10 7 2 3 1 5v37l-10-3-22-9-37-17-34-15-40-18-23-11-16-8-25-11-15-5-2-2v-64z" fill="#FE881E"/>
  <path transform="translate(962,934)" d="m0 0 25 10 36 15 28 12 37 17 24 12 33 15 32 16 7 6v40l-1 2-11-3-29-10-27-10-47-17-27-10-35-14-34-12-10-3-2-2v-63z" fill="#FE881E"/>
  <path transform="translate(266,1027)" d="m0 0 9 5 6 10 12 23 7 10 6 8 8 10 9 10v2l4 2 7 11 9 11 4 6 7 9 10 13 5 5 8 10 10 14 9 10 8 9 4 3v2l6 3v2l4 2 14 12 16 14 18 13 22 16 11 7 16 8 10 3h8l9-3 6-7 5-16 3-7 4-32 1-34 2-1 2 20v11h1v18l-1 39-1 19h2v21 3l-1 3-5 3-1 2h-9v-2h-5l8 3h10l11-2 1-225h1v247l1 2-5-2-16-8-17-10-15-10-22-14-15-10-23-16-19-14-16-13-11-9-11-10-8-7-17-17-9-11-12-14-11-14-14-18-14-20-12-19-12-20-10-18-15-28-8-17 3-2z" fill="#FECC2F"/>
  <path transform="translate(618,1271)" d="m0 0h1l1 12 1 4 1 19 1 24 2 12 2 15 2 7 2 9 4 5 3 6 6 9 1 15 1 1v7l-1 1h-25l-106-2-71-3-152-9-13-2-2-1v-2l4-2 23-4 24-2 23-1 41-1h226z" fill="#FFCE58"/>
  <path transform="translate(701,1217)" d="m0 0 4 2 2 3 1 8 1 15-1 8v12l-1 3v16l1 14-1 18-1 49v28l1 6v10l-2 5-9-1-25-2-9 4-4-1-2-2-1-3 1-116 3-21 2-21 2-4 5 1v3h2l2 4 2 14 7-2-1-11 2-4h5l-1-2v-7h3l1-9h2l2-8 6-8zm-40 100v2l2-1zm0 5m2 0m-3 3 1 3v-3zm0 5v6l2 1 1-6zm1 9m2 1m-1 3m-1 1v3l2-2zm-1 4m1 4m0 2m-1 7m0 3v2l2-1z" fill="#FFDBA5"/>
  <path transform="translate(640,835)" d="m0 0 2 2v95l1 69v70l-8-10-9-1-2 6-2 4-2 21h-1l-1-8h-1l-1-114v-121l12-5 9-6z" fill="#FE891F"/>
  <path transform="translate(821,649)" d="m0 0 3 1 3 7 1 4 4 8v7l4 7 1 9 2 10v16l1 12 1 6h2l1-3 1 46v58l-2 2-4 3-1 5-2-4-2-7-1-5v-14l-3-9-2-4-4-21h-3-3l-4-2-2 4h-4l-1 3-2-16v-41l2-1 3-9 1-20 3-6 2-18 3-13 1-7h2l-1-2z" fill="#FE954C"/>
  <path transform="translate(643,1056)" d="m0 0h1l1 43v111h-2l-2-3-2 1-3 4h-2l-1 2-4-4v-2h-2l-3-9h-2v9l-2-1-2 10-2-3v-108l1-23 1-5h2l2-10 4-8h9l5 6 2 3z" fill="#FEC36D"/>
  <path transform="translate(391,1388)" d="m0 0h81v1l-12 3-3 1-1 11 3 5 5 2 14 1v1h-16l-88-5-83-5-13-2-2-1v-2l4-2 23-4 24-2 23-1z" fill="#FFD76D"/>
  <path transform="translate(1261,784)" d="m0 0h12l3 3 1 9-1 22-2 13-8 5-19 12-16 9-9 4h-4v-32l3-11 6-8 14-14 14-10z" fill="#FE881F"/>
  <path transform="translate(1272,853)" d="m0 0h2v36l-1 16-4 5-9 4-33 16-6 2-1-1-1-39 1-8 18-10 13-8 19-12z" fill="#FE881F"/>
  <path transform="translate(1259,1225)" d="m0 0h14v44l-1 12-13-1-33-4-6-2v-45l1-1z" fill="#FE881F"/>
  <path transform="translate(1270,1076)" d="m0 0h4v36l-1 12-15 7-23 8-11 3h-4v-40l1-7 5-3 36-13z" fill="#FE881F"/>
  <path transform="translate(1267,1007)" d="m0 0h7v30l-1 14-4 3-29 12-17 6h-2l-1-6v-34l2-10 24-9z" fill="#FE8920"/>
  <path transform="translate(1268,930)" d="m0 0h5l1 7-1 47-5 3-42 11h-5l-1-38 5-5 21-13 19-10z" fill="#FE881F"/>
  <path transform="translate(720,783)" d="m0 0 27 9 10 2 15 1 2 3v60l-4-1-16-9-11-8-8-7-12-8-1-1-2-37zm19 16v31l2 1 1-4v-24l-1-4z" fill="#FE8A21"/>
  <path transform="translate(1269,1146)" d="m0 0h4v37l-1 18-1 1-29 3-19 1-2-1v-38l8-5 15-7 17-6z" fill="#FE881F"/>
  <path transform="translate(618,1271)" d="m0 0h1l1 12 1 4 1 19 1 24 2 12 2 15 2 7 2 9 4 5 3 6 6 9 1 15 1 1v7l-1 1h-25v-1l7-1-11-5-8 1-17-4-9-5 1-3-5 2h-6l-7-4-9-2-1-7h62z" fill="#FFCE58"/>
  <path transform="translate(727,1224)" d="m0 0h20l1 45v-44l3-1 22 2 2 3v30l-1 20h-20l-24-2-2-1-1-28z" fill="#FFCE59"/>
  <path transform="translate(1221,1301)" d="m0 0h12l40 4 1 1v30l-1 13h-22l-22-1-7-2-1-1z" fill="#FE881F"/>
  <path transform="translate(726,856)" d="m0 0 9 3 21 10 15 6 3 3v48l-5-1-16-7-18-12-10-5v-14zm14 13v20l2 14 2-2-2-27-1-5z" fill="#FE8B24"/>
  <path transform="translate(724,1008)" d="m0 0 16 1 5 2 1 41 1-42 8 1 16 4 2 3v49l-14-2-11-4-10-7-7-4-6-3-1-8z" fill="#FE8A22"/>
  <path transform="translate(1221,1375)" d="m0 0h21l30 1 1 4v34l-1 2-19 1h-13l-20-1-1-1v-19l1-20z" fill="#FE8920"/>
  <path transform="translate(725,934)" d="m0 0 11 3 15 6 21 5 2 2v43l-9-2-16-6-11-5-12-3-2-2v-31z" fill="#FE8A21"/>
  <path transform="translate(727,1151)" d="m0 0 37 6 10 2v43l-2 1-41-5-3-1-1-13z" fill="#FE8920"/>
  <path transform="translate(725,1083)" d="m0 0 14 1 32 6 2 1v44l-9-1-17-4-20-7-2-3z" fill="#FE8920"/>
  <path transform="translate(728,1303)" d="m0 0h46l2 2v15l-1 22h-16l-27-1-4-2-1-3v-32z" fill="#FFCE59"/>
  <path transform="translate(752,1380)" d="m0 0 22 1 1 34-1 1h-50l-1-5 1-2 1-18 1-7 3-2 6-1z" fill="#FECE59"/>
  <path transform="translate(658,839)" d="m0 0h1l1 9v121l1 2v43l1 3v10l-1 13 1 12v66l-1 24v16l-1 43-1 48-2 20h-1v-315l1-88z" fill="#FEC370"/>
  <path transform="translate(724,1008)" d="m0 0 16 1 5 2 1 41 1 5-2 2-11-8-9-4-1-8z" fill="#FE8D26"/>
  <path transform="translate(575,1103)" d="m0 0h1v247l1 2-5-2-16-8-17-10-24-16 2-1 8 3 13 6 11 5 4 1h10l11-2z" fill="#FFD060"/>
  <path transform="translate(850,582)" d="m0 0 2 1-2 22-6 7-8 2h-16l-1-1v-6l4-9 13-8z" fill="#FE964D"/>
  <path transform="translate(756,1303)" d="m0 0h18l2 2v15l-1 13-2 3-3-1-3-6v-2l-12-3-8-8 1-4 3-3 2-5z" fill="#FE8A21"/>
  <path transform="translate(609,1389)" d="m0 0h9l3 11 9 11 3 4h-6l-11-5-8 1-17-4-9-5 3-5 9 3 2-4 7-1 4-5z" fill="#FE881E"/>
  <path transform="translate(727,1224)" d="m0 0h20v10h-1v-9l-4 2-3 10v6l2 8-2 10-3 6-6 3-1 6h-1l-1-28z" fill="#FFC471"/>
  <path transform="translate(707,1315)" d="m0 0h2l1 99 3 2-7 1-50-1-2-1v-3l3-1 2 3 4-1 9-3 24 2 9 2 1-10v-8l-1-7v-25l1-48z" fill="#FFCF9C"/>
  <path transform="translate(742,1225)" d="m0 0h4l1 9 1 35 1 4-4 1-3 1v2h-12l-1-1v-6l7-4 3-9 1-7-2-7v-6l3-10z" fill="#FECD58"/>
  <path transform="translate(555,1388)" d="m0 0 54 1-2 1-1 3-2 2v1l-8 1-2 3-5-1-4-1-7 3h-6l-7-4-9-2z" fill="#FFCD2E"/>
  <path transform="translate(327,1390)" d="m0 0h11v1l-13 2-3 4 1 7h-16l-16-1-13-2-2-1v-2l4-2 23-4z" fill="#FFDCA8"/>
  <path transform="translate(1230,1122)" d="m0 0h14l9 2-1 4-5 3-1 4-14 5-8 2h-4l1-15 1-2z" fill="#FE964D"/>
  <path transform="translate(722,798)" d="m0 0 1 4 3 1 3 4 3-6 2-2h5v23l-2 4-5-1-9-4-1-2z" fill="#FE881E"/>
  <path transform="translate(803,1325)" d="m0 0h1v76l4 2 4 6 8 2 9 1h14l3-2 2-13h1v18l-1 1h-44l-1-1z" fill="#FFCE5C"/>
  <path transform="translate(906,852)" d="m0 0 3 1 2 22 1 16-2 5 2 1-1 4-3 2-3-1-2-8v-18z" fill="#FE954C"/>
  <path transform="translate(702,928)" d="m0 0 2 1 2 9 1 23-2 9-2 7-2-3-3-14v-17l2-12z" fill="#FFCF9D"/>
  <path transform="translate(727,1151)" d="m0 0 13 2-3 2 4 2 1 3-4 9-2 6-3 1-1 2h-2l-1-3-1 9h-1z" fill="#FEC36F"/>
  <path transform="translate(699,837)" d="m0 0 4 2 2 9v26l-3 7-2-1-2-7v-28-3z" fill="#FFCF9D"/>
  <path transform="translate(752,1158)" d="m0 0 2 1 1 3h5l-2-4 7 1v2h2l-1 4-5 2h-13l-3 7-6 8-4 5-2 5-1-3 3-8 2-5 2-3v-4l6-5 2-5z" fill="#FECD57"/>
  <path transform="translate(722,788)" d="m0 0 6 1 13 5v5l-7 1-3 4-1 5-7-7-1 9h-1v-14z" fill="#FEC371"/>
  <path transform="translate(658,839)" d="m0 0h1l1 9v32l-1 58-1 15h-1v-87z" fill="#FE9331"/>
  <path transform="translate(671,1410)" d="m0 0 25 2 9 2 2-4 3 4 3 2-7 1-50-1-2-1v-3l3-1 2 3 4-1z" fill="#FFD76D"/>
  <path transform="translate(724,1008)" d="m0 0 16 1 2 2-1 6-10 6v-2l-5-2-1 20h-1z" fill="#FEC373"/>
  <path transform="translate(1253,1152)" d="m0 0 2 1-1 2-1 9-2 2-7 1-2 1v-2l-8-1-2-2 1-3 11-5z" fill="#FE974D"/>
  <path transform="translate(917,1349)" d="m0 0h1v67h-15l5-9 4-2 1-2h2l1-4z" fill="#FFCD60"/>
  <path transform="translate(730,860)" d="m0 0 5 2 6 4-1 13h-1l-1-9-3 2-2 5-4 1-2-5v-11h3z" fill="#FEC374"/>
  <path transform="translate(736,1154)" d="m0 0h9l19 3 1 2h-6l1 3-5 1-3-4-5 1-2 5-4 4h-3l1-6 2-4v-2l-5-2z" fill="#FE8F27"/>
  <path transform="translate(554,1339)" d="m0 0 21 1 1 10 1 2-5-2-18-9z" fill="#FFD76F"/>
  <path transform="translate(1175,1065)" d="m0 0 2 1v2l5 1 1-4 1 12-1 2-11-3-3-1 1-5z" fill="#FE9549"/>
  <path transform="translate(760,1226)" d="m0 0h13l1 1v29l-2-1-2-7-1-19-9-2z" fill="#FE8D23"/>
  <path transform="translate(753,1347)" d="m0 0h4l2 20v4l-3 2h-3z" fill="#FFD599"/>
  <path transform="translate(722,788)" d="m0 0 6 1 13 5v5h-2v-3h-3v-2h-2v2l-8 1-2-1v-3h-2z" fill="#FEC492"/>
  <path transform="translate(740,1225)" d="m0 0 2 4-4 10-4-1-2-3v-7l2-2z" fill="#FFD66C"/>
  <path transform="translate(618,1078)" d="m0 0h1l1 18-2 23h-1v-36z" fill="#FEB846"/>
  <path transform="translate(746,1272)" d="m0 0h5l3 3 2 1 9 1v1h-21l-2-1v-2z" fill="#FE8E27"/>
  <path transform="translate(728,1303)" d="m0 0h12v1l-8 2-3 2-1 28h-1v-32z" fill="#FFC975"/>
  <path transform="translate(661,825)" d="m0 0h1v9l-1 11v5l-2-4-1-12z" fill="#FEBB67"/>
  <path transform="translate(771,804)" d="m0 0 3 1h-2v21l-2-1-1-9 1-11z" fill="#FE964E"/>
  <path transform="translate(1269,1146)" d="m0 0h4v7l-5-2h-8l3-3z" fill="#FE9649"/>
  <path transform="translate(700,813)" d="m0 0h3l2 6-3 7h-2z" fill="#FFCF9D"/>
  <path transform="translate(683,797)" d="m0 0 3 1-12 7-5 4-3 6-1-4 6-7z" fill="#FE983A"/>
  <path transform="translate(754,1157)" d="m0 0h10l1 2h-6l1 3-5 1-2-4z" fill="#FE8E25"/>
  <path transform="translate(724,821)" d="m0 0 6 2 6 3 2-4h1v8l-10-4z" fill="#FEC482"/>
  <path transform="translate(832,600)" d="m0 0h9l-4 4h-2v2h-4l-1-4z" fill="#FE881E"/>
  <path transform="translate(1355,834)" d="m0 0 6 1v2h-2l-1 4-3 3z" fill="#FE964B"/>
  <path transform="translate(728,1009)" d="m0 0h12l-1 2-9 2z" fill="#FEC594"/>
  <path transform="translate(749,1224)" d="m0 0 7 2v2l-6 3-2-6z" fill="#FE8F29"/>
  <path transform="translate(762,1369)" d="m0 0 6 1 2 2-1 1-9-1 2-1z" fill="#FFDCA6"/>
  <path transform="translate(701,796)" d="m0 0 2 1v8l-3-1z" fill="#FEC695"/>
  <path transform="translate(704,790)" d="m0 0 1 3-4 2-1-4z" fill="#FECA98"/>
  <path transform="translate(1267,1353)" d="m0 0h5v3l-4-1z" fill="#FEC997"/>
  <path transform="translate(716,1414)" d="m0 0 4 1-2 1z" fill="#FFDCA6"/>
  <path transform="translate(695,794)" d="m0 0 3 2h-3z" fill="#FFCF9D"/>
  <path transform="translate(696,793)" d="m0 0 2 1z" fill="#FECA98"/>
  <path transform="translate(716,1412)" d="m0 0" fill="#FFDCA6"/>
  <path transform="translate(707,788)" d="m0 0" fill="#FFDCA6"/>
</svg>
